  0
SECTION
  2
HEADER
  9
$ACADVER
  1
AC1009
  9
$DWGCODEPAGE
  3
ansi_1252
  9
$INSBASE
 10
0.0
 20
0.0
 30
0.0
  9
$EXTMIN
 10
1.820447261466105
 20
1.653876583286507
 30
0.0
  9
$EXTMAX
 10
46.22399097876097
 20
45.95158971168434
 30
0.0
  9
$LIMMIN
 10
0.0
 20
0.0
  9
$LIMMAX
 10
12.0
 20
9.0
  9
$ORTHOMODE
 70
     0
  9
$REGENMODE
 70
     1
  9
$FILLMODE
 70
     1
  9
$QTEXTMODE
 70
     0
  9
$MIRRTEXT
 70
     1
  9
$DRAGMODE
 70
     2
  9
$LTSCALE
 40
0.0393700787401575
  9
$OSMODE
 70
    37
  9
$ATTMODE
 70
     1
  9
$TEXTSIZE
 40
0.2
  9
$TRACEWID
 40
0.05
  9
$TEXTSTYLE
  7
STANDARD
  9
$CLAYER
  8
MAIN
  9
$CELTYPE
  6
BYLAYER
  9
$CECOLOR
 62
   256
  9
$DIMSCALE
 40
1.0
  9
$DIMASZ
 40
0.18
  9
$DIMEXO
 40
0.0625
  9
$DIMDLI
 40
0.38
  9
$DIMRND
 40
0.0
  9
$DIMDLE
 40
0.0
  9
$DIMEXE
 40
0.18
  9
$DIMTP
 40
0.0
  9
$DIMTM
 40
0.0
  9
$DIMTXT
 40
0.18
  9
$DIMCEN
 40
0.09
  9
$DIMTSZ
 40
0.0
  9
$DIMTOL
 70
     0
  9
$DIMLIM
 70
     0
  9
$DIMTIH
 70
     1
  9
$DIMTOH
 70
     1
  9
$DIMSE1
 70
     0
  9
$DIMSE2
 70
     0
  9
$DIMTAD
 70
     0
  9
$DIMZIN
 70
     0
  9
$DIMBLK
  1

  9
$DIMASO
 70
     1
  9
$DIMSHO
 70
     1
  9
$DIMPOST
  1

  9
$DIMAPOST
  1

  9
$DIMALT
 70
     0
  9
$DIMALTD
 70
     2
  9
$DIMALTF
 40
25.4
  9
$DIMLFAC
 40
1.0
  9
$DIMTOFL
 70
     0
  9
$DIMTVP
 40
0.0
  9
$DIMTIX
 70
     0
  9
$DIMSOXD
 70
     0
  9
$DIMSAH
 70
     0
  9
$DIMBLK1
  1

  9
$DIMBLK2
  1

  9
$DIMSTYLE
  2
STANDARD
  9
$DIMCLRD
 70
     0
  9
$DIMCLRE
 70
     0
  9
$DIMCLRT
 70
     0
  9
$DIMTFAC
 40
1.0
  9
$DIMGAP
 40
0.09
  9
$LUNITS
 70
     2
  9
$LUPREC
 70
     3
  9
$SKETCHINC
 40
0.1
  9
$FILLETRAD
 40
0.5
  9
$AUNITS
 70
     0
  9
$AUPREC
 70
     0
  9
$MENU
  1
.
  9
$ELEVATION
 40
0.0
  9
$PELEVATION
 40
0.0
  9
$THICKNESS
 40
0.0
  9
$LIMCHECK
 70
     0
  9
$CHAMFERA
 40
0.5
  9
$CHAMFERB
 40
0.5
  9
$SKPOLY
 70
     0
  9
$TDCREATE
 40
2456996.683714005
  9
$TDUPDATE
 40
2456996.683714016
  9
$TDINDWG
 40
0.0000000116
  9
$TDUSRTIMER
 40
0.0000000116
  9
$USRTIMER
 70
     1
  9
$ANGBASE
 50
0.0
  9
$ANGDIR
 70
     0
  9
$PDMODE
 70
     0
  9
$PDSIZE
 40
0.0
  9
$PLINEWID
 40
0.0
  9
$COORDS
 70
     1
  9
$SPLFRAME
 70
     0
  9
$SPLINETYPE
 70
     6
  9
$SPLINESEGS
 70
     8
  9
$ATTDIA
 70
     0
  9
$ATTREQ
 70
     1
  9
$HANDLING
 70
     1
  9
$HANDSEED
  5
818
  9
$SURFTAB1
 70
     6
  9
$SURFTAB2
 70
     6
  9
$SURFTYPE
 70
     6
  9
$SURFU
 70
     6
  9
$SURFV
 70
     6
  9
$UCSNAME
  2

  9
$UCSORG
 10
0.0
 20
0.0
 30
0.0
  9
$UCSXDIR
 10
1.0
 20
0.0
 30
0.0
  9
$UCSYDIR
 10
0.0
 20
1.0
 30
0.0
  9
$PUCSNAME
  2

  9
$PUCSORG
 10
0.0
 20
0.0
 30
0.0
  9
$PUCSXDIR
 10
1.0
 20
0.0
 30
0.0
  9
$PUCSYDIR
 10
0.0
 20
1.0
 30
0.0
  9
$USERI1
 70
     0
  9
$USERI2
 70
     0
  9
$USERI3
 70
     0
  9
$USERI4
 70
     0
  9
$USERI5
 70
     0
  9
$USERR1
 40
0.0
  9
$USERR2
 40
0.0
  9
$USERR3
 40
0.0
  9
$USERR4
 40
0.0
  9
$USERR5
 40
0.0
  9
$WORLDVIEW
 70
     1
  9
$SHADEDGE
 70
     3
  9
$SHADEDIF
 70
    70
  9
$TILEMODE
 70
     1
  9
$MAXACTVP
 70
    64
  9
$PLIMCHECK
 70
     0
  9
$PEXTMIN
 10
1.000000000000000E+20
 20
1.000000000000000E+20
 30
1.000000000000000E+20
  9
$PEXTMAX
 10
-1.000000000000000E+20
 20
-1.000000000000000E+20
 30
-1.000000000000000E+20
  9
$PLIMMIN
 10
0.0
 20
0.0
  9
$PLIMMAX
 10
12.0
 20
9.0
  9
$UNITMODE
 70
     0
  9
$VISRETAIN
 70
     1
  9
$PLINEGEN
 70
     0
  9
$PSLTSCALE
 70
     1
  0
ENDSEC
  0
SECTION
  2
TABLES
  0
TABLE
  2
VPORT
 70
     1
  0
VPORT
  2
*ACTIVE
 70
     0
 10
0.0
 20
0.0
 11
1.0
 21
1.0
 12
24.02221912011354
 22
23.80273314748543
 13
0.0
 23
0.0
 14
0.5
 24
0.5
 15
0.5
 25
0.5
 16
0.0
 26
0.0
 36
1.0
 17
0.0
 27
0.0
 37
0.0
 40
45.18366739096579
 41
1.002389075675087
 42
50.0
 43
0.0
 44
0.0
 50
0.0
 51
0.0
 71
     0
 72
   100
 73
     1
 74
     3
 75
     0
 76
     0
 77
     0
 78
     0
  0
ENDTAB
  0
TABLE
  2
LTYPE
 70
     1
  0
LTYPE
  2
CONTINUOUS
 70
     0
  3
Solid line
 72
    65
 73
     0
 40
0.0
  0
ENDTAB
  0
TABLE
  2
LAYER
 70
     3
  0
LAYER
  2
0
 70
     0
 62
     7
  6
CONTINUOUS
  0
LAYER
  2
HOLES
 70
     0
 62
     7
  6
CONTINUOUS
  0
LAYER
  2
MAIN
 70
     0
 62
     7
  6
CONTINUOUS
  0
ENDTAB
  0
TABLE
  2
STYLE
 70
     1
  0
STYLE
  2
STANDARD
 70
     0
 40
0.0
 41
1.0
 50
0.0
 71
     0
 42
0.2
  3
txt
  4

  0
ENDTAB
  0
TABLE
  2
VIEW
 70
     0
  0
ENDTAB
  0
TABLE
  2
UCS
 70
     0
  0
ENDTAB
  0
TABLE
  2
APPID
 70
     1
  0
APPID
  2
ACAD
 70
     0
  0
ENDTAB
  0
TABLE
  2
DIMSTYLE
 70
     1
  0
DIMSTYLE
  2
STANDARD
 70
     0
  3

  4

  5

  6

  7

 40
1.0
 41
0.18
 42
0.0625
 43
0.38
 44
0.18
 45
0.0
 46
0.0
 47
0.0
 48
0.0
140
0.18
141
0.09
142
0.0
143
25.4
144
1.0
145
0.0
146
1.0
147
0.09
 71
     0
 72
     0
 73
     1
 74
     1
 75
     0
 76
     0
 77
     0
 78
     0
170
     0
171
     2
172
     0
173
     0
174
     0
175
     0
176
     0
177
     0
178
     0
  0
ENDTAB
  0
ENDSEC
  0
SECTION
  2
BLOCKS
  0
BLOCK
  8
0
  2
$MODEL_SPACE
 70
     0
 10
0.0
 20
0.0
 30
0.0
  3
$MODEL_SPACE
  1

  0
ENDBLK
  5
21
  8
0
  0
BLOCK
 67
     1
  8
0
  2
$PAPER_SPACE
 70
     0
 10
0.0
 20
0.0
 30
0.0
  3
$PAPER_SPACE
  1

  0
ENDBLK
  5
1D
 67
     1
  8
0
  0
ENDSEC
  0
SECTION
  2
ENTITIES
  0
POINT
  5
3C
  8
HOLES
 10
29.92575253775304
 20
13.22325374828984
 30
0.0
  0
POINT
  5
3D
  8
HOLES
 10
31.11565719992282
 20
13.21715167309922
 30
0.0
  0
POINT
  5
3E
  8
HOLES
 10
35.70673122708678
 20
13.132653517596
 30
0.0
  0
POINT
  5
3F
  8
HOLES
 10
39.42986699622939
 20
16.38905244441494
 30
0.0
  0
POINT
  5
40
  8
HOLES
 10
38.27420832816217
 20
16.36295181503479
 30
0.0
  0
POINT
  5
41
  8
HOLES
 10
33.6631806211258
 20
16.27321374189218
 30
0.0
  0
POINT
  5
42
  8
HOLES
 10
42.89880306253409
 20
44.08083973275339
 30
0.0
  0
POLYLINE
  5
44
  8
MAIN
 66
     1
 10
0.0
 20
0.0
 30
0.0
  0
VERTEX
  5
45
  8
MAIN
 10
42.32625876546244
 20
43.26261787316038
 30
0.0
  0
VERTEX
  5
46
  8
MAIN
 10
42.10690326209861
 20
43.2794453252551
 30
0.0
 42
-0.3996375341442864
  0
VERTEX
  5
47
  8
MAIN
 10
41.92227139127264
 20
43.48416726417545
 30
0.0
  0
VERTEX
  5
48
  8
MAIN
 10
40.94464348362425
 20
43.55916418255762
 30
0.0
 42
-0.9752971977394802
  0
VERTEX
  5
49
  8
MAIN
 10
40.54682960348091
 20
43.59971112063006
 30
0.0
  0
VERTEX
  5
4A
  8
MAIN
 10
40.60037149650968
 20
44.29766044951499
 30
0.0
 42
-0.9752971977395124
  0
VERTEX
  5
4B
  8
MAIN
 10
40.99971514502529
 20
44.27705492083923
 30
0.0
  0
VERTEX
  5
4C
  8
MAIN
 10
41.97734305267364
 20
44.20205800245652
 30
0.0
 42
-0.3996375341442861
  0
VERTEX
  5
4D
  8
MAIN
 10
42.19104052257237
 20
44.37622284207367
 30
0.0
  0
VERTEX
  5
4E
  8
MAIN
 10
42.94784959565165
 20
44.31816563253562
 30
0.0
 42
-0.4142135623731615
  0
VERTEX
  5
4F
  8
MAIN
 10
43.13196600589627
 20
44.10345385484601
 30
0.0
  0
VERTEX
  5
50
  8
MAIN
 10
43.07842411286752
 20
43.40550452596165
 30
0.0
 42
-0.4142135623731572
  0
VERTEX
  5
51
  8
MAIN
 10
42.8637123351779
 20
43.22138811571706
 30
0.0
  0
VERTEX
  5
52
  8
MAIN
 10
42.32625876546244
 20
43.26261787316038
 30
0.0
  0
SEQEND
  5
53
  8
MAIN
  0
POINT
  5
54
  8
HOLES
 10
15.32571262444507
 20
25.20544967450185
 30
0.0
  0
POINT
  5
55
  8
HOLES
 10
10.96409181207481
 20
26.66933320218767
 30
0.0
  0
POINT
  5
56
  8
HOLES
 10
7.410375478392048
 20
27.88408152548112
 30
0.0
  0
POINT
  5
57
  8
HOLES
 10
5.098549989057666
 20
44.09417857968521
 30
0.0
  0
POINT
  5
58
  8
HOLES
 10
8.826709127815622
 20
44.37981341869206
 30
0.0
  0
POINT
  5
59
  8
HOLES
 10
13.41770488432695
 20
44.71044553215507
 30
0.0
  0
POINT
  5
5A
  8
HOLES
 10
14.58332592186127
 20
44.81145410666282
 30
0.0
  0
POINT
  5
5B
  8
HOLES
 10
33.41843723233934
 20
44.8186394549921
 30
0.0
  0
POINT
  5
5C
  8
HOLES
 10
34.56934333991384
 20
44.73755465974324
 30
0.0
  0
POINT
  5
5D
  8
HOLES
 10
39.17870102631733
 20
44.38377370840639
 30
0.0
  0
POINT
  5
5E
  8
HOLES
 10
40.58737429846111
 20
27.86452542086229
 30
0.0
  0
POINT
  5
5F
  8
HOLES
 10
37.03835239735186
 20
26.68372229117603
 30
0.0
  0
POINT
  5
60
  8
HOLES
 10
32.69257538924948
 20
25.19981358230651
 30
0.0
  0
POLYLINE
  5
61
  8
MAIN
 66
     1
 10
0.0
 20
0.0
 30
0.0
  0
VERTEX
  5
62
  8
MAIN
 10
39.24314441968235
 20
11.79300170171206
 30
0.0
  0
VERTEX
  5
63
  8
MAIN
 10
40.18995715766616
 20
11.79300170171201
 30
0.0
  0
VERTEX
  5
64
  8
MAIN
 10
40.18995697306551
 20
12.67436433829262
 30
0.0
 42
-0.4142144050901281
  0
VERTEX
  5
65
  8
MAIN
 10
40.39131971638977
 20
12.87572679774332
 30
0.0
  0
VERTEX
  5
66
  8
MAIN
 10
40.58268206292244
 20
12.8757268910909
 30
0.0
 42
-0.4142138533541369
  0
VERTEX
  5
67
  8
MAIN
 10
40.78404480380766
 20
12.67436424843129
 30
0.0
  0
VERTEX
  5
68
  8
MAIN
 10
40.78404480380767
 20
12.493001701712
 30
0.0
  0
VERTEX
  5
69
  8
MAIN
 10
41.14691596349455
 20
12.493001701712
 30
0.0
  0
VERTEX
  5
6A
  8
MAIN
 10
41.1469157865555
 20
12.67436433446181
 30
0.0
 42
-0.4142144106623094
  0
VERTEX
  5
6B
  8
MAIN
 10
41.34827852987975
 20
12.8757267977433
 30
0.0
  0
VERTEX
  5
6C
  8
MAIN
 10
41.53964087641242
 20
12.87572689109088
 30
0.0
 42
-0.4142138533541101
  0
VERTEX
  5
6D
  8
MAIN
 10
41.74100361729764
 20
12.67436424843127
 30
0.0
  0
VERTEX
  5
6E
  8
MAIN
 10
41.74100361729764
 20
11.79300170171198
 30
0.0
  0
VERTEX
  5
6F
  8
MAIN
 10
42.67781635528146
 20
11.79300170171195
 30
0.0
  0
VERTEX
  5
70
  8
MAIN
 10
42.67781617068079
 20
12.67436433829258
 30
0.0
 42
-0.4142144050902786
  0
VERTEX
  5
71
  8
MAIN
 10
42.87917891400505
 20
12.87572679774326
 30
0.0
  0
VERTEX
  5
72
  8
MAIN
 10
43.07054126053772
 20
12.87572689109084
 30
0.0
 42
-0.4142138533541199
  0
VERTEX
  5
73
  8
MAIN
 10
43.27190400142294
 20
12.67436424843124
 30
0.0
  0
VERTEX
  5
74
  8
MAIN
 10
43.27190400142295
 20
12.49300170171194
 30
0.0
  0
VERTEX
  5
75
  8
MAIN
 10
43.63477516110983
 20
12.49300170171194
 30
0.0
  0
VERTEX
  5
76
  8
MAIN
 10
43.63477498417078
 20
12.67436433446173
 30
0.0
 42
-0.4142144106621983
  0
VERTEX
  5
77
  8
MAIN
 10
43.83613772749503
 20
12.87572679774323
 30
0.0
  0
VERTEX
  5
78
  8
MAIN
 10
44.02750007402769
 20
12.87572689109084
 30
0.0
 42
-0.414213853354137
  0
VERTEX
  5
79
  8
MAIN
 10
44.22886281491293
 20
12.67436424843123
 30
0.0
  0
VERTEX
  5
7A
  8
MAIN
 10
44.22886281491288
 20
11.79300170171192
 30
0.0
  0
VERTEX
  5
7B
  8
MAIN
 10
45.16567555289673
 20
11.79300170171189
 30
0.0
  0
VERTEX
  5
7C
  8
MAIN
 10
45.16567536829608
 20
12.67436433829253
 30
0.0
 42
-0.4142144050902329
  0
VERTEX
  5
7D
  8
MAIN
 10
45.36703811162033
 20
12.87572679774322
 30
0.0
  0
VERTEX
  5
7E
  8
MAIN
 10
45.55840045815299
 20
12.87572689109078
 30
0.0
 42
-0.4142138533540456
  0
VERTEX
  5
7F
  8
MAIN
 10
45.75976319903823
 20
12.67436424843118
 30
0.0
  0
VERTEX
  5
80
  8
MAIN
 10
45.75976319903822
 20
12.49300170171188
 30
0.0
  0
VERTEX
  5
81
  8
MAIN
 10
46.17560251828542
 20
12.49300170171188
 30
0.0
  0
SEQEND
  5
82
  8
MAIN
  0
POLYLINE
  5
83
  8
MAIN
 66
     1
 10
0.0
 20
0.0
 30
0.0
  0
VERTEX
  5
84
  8
MAIN
 10
24.83460763957148
 20
11.84055903068089
 30
0.0
  0
VERTEX
  5
85
  8
MAIN
 10
24.83163619176128
 20
11.84838439173884
 30
0.0
  0
VERTEX
  5
86
  8
MAIN
 10
24.82847663567725
 20
11.85620560761464
 30
0.0
  0
VERTEX
  5
87
  8
MAIN
 10
24.82512703861494
 20
11.86401661501656
 30
0.0
  0
VERTEX
  5
88
  8
MAIN
 10
24.82158570102926
 20
11.87181118142929
 30
0.0
  0
VERTEX
  5
89
  8
MAIN
 10
24.81785116971943
 20
11.87958291480501
 30
0.0
  0
VERTEX
  5
8A
  8
MAIN
 10
24.81392225064526
 20
11.8873252743104
 30
0.0
  0
VERTEX
  5
8B
  8
MAIN
 10
24.80979802128509
 20
11.89503158212515
 30
0.0
  0
VERTEX
  5
8C
  8
MAIN
 10
24.80547784244436
 20
11.90269503627973
 30
0.0
  0
VERTEX
  5
8D
  8
MAIN
 10
24.80096136942222
 20
11.91030872451139
 30
0.0
  0
VERTEX
  5
8E
  8
MAIN
 10
24.79624856244358
 20
11.91786563910907
 30
0.0
  0
VERTEX
  5
8F
  8
MAIN
 10
24.79133969626444
 20
11.92535869270856
 30
0.0
  0
VERTEX
  5
90
  8
MAIN
 10
24.78623536886016
 20
11.93278073499039
 30
0.0
  0
VERTEX
  5
91
  8
MAIN
 10
24.78093650910819
 20
11.94012457022343
 30
0.0
  0
VERTEX
  5
92
  8
MAIN
 10
24.77544438338106
 20
11.94738297558843
 30
0.0
  0
VERTEX
  5
93
  8
MAIN
 10
24.76976060096938
 20
11.95454872020639
 30
0.0
  0
VERTEX
  5
94
  8
MAIN
 10
24.76388711826011
 20
11.96161458478825
 30
0.0
  0
VERTEX
  5
95
  8
MAIN
 10
24.75782624160238
 20
11.96857338181398
 30
0.0
  0
VERTEX
  5
96
  8
MAIN
 10
24.75158062880006
 20
11.9754179761415
 30
0.0
  0
VERTEX
  5
97
  8
MAIN
 10
24.74515328917892
 20
11.98214130593883
 30
0.0
  0
VERTEX
  5
98
  8
MAIN
 10
24.73854758218578
 20
11.98873640382649
 30
0.0
  0
VERTEX
  5
99
  8
MAIN
 10
24.73176721448665
 20
11.99519641811192
 30
0.0
  0
VERTEX
  5
9A
  8
MAIN
 10
24.72481623554194
 20
12.00151463399325
 30
0.0
  0
VERTEX
  5
9B
  8
MAIN
 10
24.71769903164823
 20
12.00768449460648
 30
0.0
  0
VERTEX
  5
9C
  8
MAIN
 10
24.71042031844757
 20
12.01369962178805
 30
0.0
  0
VERTEX
  5
9D
  8
MAIN
 10
24.70298513191789
 20
12.01955383642382
 30
0.0
  0
VERTEX
  5
9E
  8
MAIN
 10
24.69539881786997
 20
12.02524117825609
 30
0.0
  0
VERTEX
  5
9F
  8
MAIN
 10
24.68766701998915
 20
12.03075592502186
 30
0.0
  0
VERTEX
  5
A0
  8
MAIN
 10
24.67979566647189
 20
12.03609261079872
 30
0.0
  0
VERTEX
  5
A1
  8
MAIN
 10
24.67179095531953
 20
12.04124604343904
 30
0.0
  0
VERTEX
  5
A2
  8
MAIN
 10
24.66365933836282
 20
12.04621132097906
 30
0.0
  0
VERTEX
  5
A3
  8
MAIN
 10
24.65540750410177
 20
12.05098384691607
 30
0.0
  0
VERTEX
  5
A4
  8
MAIN
 10
24.64704235945571
 20
12.05555934425526
 30
0.0
  0
VERTEX
  5
A5
  8
MAIN
 10
24.63857101052747
 20
12.05993386823689
 30
0.0
  0
VERTEX
  5
A6
  8
MAIN
 10
24.6300007424939
 20
12.06410381766441
 30
0.0
  0
VERTEX
  5
A7
  8
MAIN
 10
24.62133899874221
 20
12.06806594476545
 30
0.0
  0
VERTEX
  5
A8
  8
MAIN
 10
24.61259335937745
 20
12.07181736352909
 30
0.0
  0
VERTEX
  5
A9
  8
MAIN
 10
24.60377151923096
 20
12.07535555647498
 30
0.0
  0
VERTEX
  5
AA
  8
MAIN
 10
24.59488126550329
 20
12.07867837982268
 30
0.0
  0
VERTEX
  5
AB
  8
MAIN
 10
24.5859304551764
 20
12.08178406704251
 30
0.0
  0
VERTEX
  5
AC
  8
MAIN
 10
24.57692699233118
 20
12.08467123078184
 30
0.0
  0
VERTEX
  5
AD
  8
MAIN
 10
24.56787880550489
 20
12.0873388631739
 30
0.0
  0
VERTEX
  5
AE
  8
MAIN
 10
24.55879382522123
 20
12.08978633454866
 30
0.0
  0
VERTEX
  5
AF
  8
MAIN
 10
24.54967996182231
 20
12.09201339057745
 30
0.0
  0
VERTEX
  5
B0
  8
MAIN
 10
24.54054508372665
 20
12.09402014789471
 30
0.0
  0
VERTEX
  5
B1
  8
MAIN
 10
24.53139699623208
 20
12.09580708825116
 30
0.0
  0
VERTEX
  5
B2
  8
MAIN
 10
24.5222434209751
 20
12.09737505126277
 30
0.0
  0
VERTEX
  5
B3
  8
MAIN
 10
24.5130919761504
 20
12.09872522582922
 30
0.0
  0
VERTEX
  5
B4
  8
MAIN
 10
24.5039501575861
 20
12.09985914030367
 30
0.0
  0
VERTEX
  5
B5
  8
MAIN
 10
24.49482532076026
 20
12.10077865150298
 30
0.0
  0
VERTEX
  5
B6
  8
MAIN
 10
24.48572466383515
 20
12.10148593265338
 30
0.0
  0
VERTEX
  5
B7
  8
MAIN
 10
24.47665521177495
 20
12.10198346037164
 30
0.0
  0
VERTEX
  5
B8
  8
MAIN
 10
24.46762380160262
 20
12.10227400078558
 30
0.0
  0
VERTEX
  5
B9
  8
MAIN
 10
24.45863706884055
 20
12.10236059490028
 30
0.0
  0
VERTEX
  5
BA
  8
MAIN
 10
24.44970143516969
 20
12.10224654331788
 30
0.0
  0
VERTEX
  5
BB
  8
MAIN
 10
24.44082309733092
 20
12.1019353904192
 30
0.0
  0
VERTEX
  5
BC
  8
MAIN
 10
24.43200801728256
 20
12.10143090811499
 30
0.0
  0
VERTEX
  5
BD
  8
MAIN
 10
24.42326191361808
 20
12.10073707927253
 30
0.0
  0
VERTEX
  5
BE
  8
MAIN
 10
24.41459025423879
 20
12.0998580809214
 30
0.0
  0
VERTEX
  5
BF
  8
MAIN
 10
24.40599825026732
 20
12.09879826733826
 30
0.0
  0
VERTEX
  5
C0
  8
MAIN
 10
24.39749085117984
 20
12.09756215310684
 30
0.0
  0
VERTEX
  5
C1
  8
MAIN
 10
24.38907274112709
 20
12.09615439624434
 30
0.0
  0
VERTEX
  5
C2
  8
MAIN
 10
24.38074833640789
 20
12.09457978148036
 30
0.0
  0
VERTEX
  5
C3
  8
MAIN
 10
24.37252178405233
 20
12.09284320376846
 30
0.0
  0
VERTEX
  5
C4
  8
MAIN
 10
24.33504298907664
 20
12.08426109505718
 30
0.0
  0
VERTEX
  5
C5
  8
MAIN
 10
24.30527250304397
 20
12.07843694037358
 30
0.0
  0
VERTEX
  5
C6
  8
MAIN
 10
24.27512191046252
 20
12.07350535205656
 30
0.0
  0
VERTEX
  5
C7
  8
MAIN
 10
24.24462984153204
 20
12.06949254955649
 30
0.0
  0
VERTEX
  5
C8
  8
MAIN
 10
24.2138370272463
 20
12.06642260406595
 30
0.0
  0
VERTEX
  5
C9
  8
MAIN
 10
24.18278615571064
 20
12.06431724331765
 30
0.0
  0
VERTEX
  5
CA
  8
MAIN
 10
24.15152170768917
 20
12.06319566741953
 30
0.0
  0
VERTEX
  5
CB
  8
MAIN
 10
24.12008977231791
 20
12.06307437822643
 30
0.0
  0
VERTEX
  5
CC
  8
MAIN
 10
24.08853784425648
 20
12.06396702466338
 30
0.0
  0
VERTEX
  5
CD
  8
MAIN
 10
24.05691460387989
 20
12.06588426628178
 30
0.0
  0
VERTEX
  5
CE
  8
MAIN
 10
24.02526968242561
 20
12.06883365714574
 30
0.0
  0
VERTEX
  5
CF
  8
MAIN
 10
23.99365341430014
 20
12.07281955191437
 30
0.0
  0
VERTEX
  5
D0
  8
MAIN
 10
23.96211657900723
 20
12.07784303570998
 30
0.0
  0
VERTEX
  5
D1
  8
MAIN
 10
23.93071013537779
 20
12.0839018790477
 30
0.0
  0
VERTEX
  5
D2
  8
MAIN
 10
23.89948495095422
 20
12.09099051875375
 30
0.0
  0
VERTEX
  5
D3
  8
MAIN
 10
23.86849152950318
 20
12.09910006542719
 30
0.0
  0
VERTEX
  5
D4
  8
MAIN
 10
23.83777973969676
 20
12.10821833760941
 30
0.0
  0
VERTEX
  5
D5
  8
MAIN
 10
23.80739854801079
 20
12.11832992242799
 30
0.0
  0
VERTEX
  5
D6
  8
MAIN
 10
23.7773957588389
 20
12.12941626208547
 30
0.0
  0
VERTEX
  5
D7
  8
MAIN
 10
23.74781776471345
 20
12.14145576517796
 30
0.0
  0
VERTEX
  5
D8
  8
MAIN
 10
23.71870930936189
 20
12.15442394146432
 30
0.0
  0
VERTEX
  5
D9
  8
MAIN
 10
23.69011326611387
 20
12.16829355837024
 30
0.0
  0
VERTEX
  5
DA
  8
MAIN
 10
23.66207043391564
 20
12.18303481721234
 30
0.0
  0
VERTEX
  5
DB
  8
MAIN
 10
23.63461935291133
 20
12.19861554687132
 30
0.0
  0
VERTEX
  5
DC
  8
MAIN
 10
23.6077961412232
 20
12.21500141243482
 30
0.0
  0
VERTEX
  5
DD
  8
MAIN
 10
23.58163435421286
 20
12.23215613617457
 30
0.0
  0
VERTEX
  5
DE
  8
MAIN
 10
23.55616486714273
 20
12.25004172812012
 30
0.0
  0
VERTEX
  5
DF
  8
MAIN
 10
23.53141578178939
 20
12.26861872344294
 30
0.0
  0
VERTEX
  5
E0
  8
MAIN
 10
23.507412357197
 20
12.28784642387025
 30
0.0
  0
VERTEX
  5
E1
  8
MAIN
 10
23.4841769644084
 20
12.30768314040325
 30
0.0
  0
VERTEX
  5
E2
  8
MAIN
 10
23.46172906467993
 20
12.32808643471696
 30
0.0
  0
VERTEX
  5
E3
  8
MAIN
 10
23.44008521038089
 20
12.34901335676361
 30
0.0
  0
VERTEX
  5
E4
  8
MAIN
 10
23.41909438472271
 20
12.37059524114613
 30
0.0
  0
VERTEX
  5
E5
  8
MAIN
 10
23.39862480716211
 20
12.39298271567347
 30
0.0
  0
VERTEX
  5
E6
  8
MAIN
 10
23.37871947650005
 20
12.41615935504054
 30
0.0
  0
VERTEX
  5
E7
  8
MAIN
 10
23.35942088841774
 20
12.44010582355491
 30
0.0
  0
VERTEX
  5
E8
  8
MAIN
 10
23.34077079787695
 20
12.46479987353479
 30
0.0
  0
VERTEX
  5
E9
  8
MAIN
 10
23.32280997765683
 20
12.49021636638034
 30
0.0
  0
VERTEX
  5
EA
  8
MAIN
 10
23.30557797550281
 20
12.51632731712481
 30
0.0
  0
VERTEX
  5
EB
  8
MAIN
 10
23.2891128725092
 20
12.54310196296691
 30
0.0
  0
VERTEX
  5
EC
  8
MAIN
 10
23.27345104545991
 20
12.57050685595526
 30
0.0
  0
VERTEX
  5
ED
  8
MAIN
 10
23.25862693590885
 20
12.59850597964463
 30
0.0
  0
VERTEX
  5
EE
  8
MAIN
 10
23.24467282878758
 20
12.62706088918072
 30
0.0
  0
VERTEX
  5
EF
  8
MAIN
 10
23.23161864328078
 20
12.65613087390234
 30
0.0
  0
VERTEX
  5
F0
  8
MAIN
 10
23.21949173860869
 20
12.68567314118664
 30
0.0
  0
VERTEX
  5
F1
  8
MAIN
 10
23.20831673720063
 20
12.71564301991279
 30
0.0
  0
VERTEX
  5
F2
  8
MAIN
 10
23.19811536753638
 20
12.74599418159119
 30
0.0
  0
VERTEX
  5
F3
  8
MAIN
 10
23.18890632867709
 20
12.77667887690754
 30
0.0
  0
VERTEX
  5
F4
  8
MAIN
 10
23.18070517820855
 20
12.80764818517172
 30
0.0
  0
VERTEX
  5
F5
  8
MAIN
 10
23.17352424498442
 20
12.83885227394684
 30
0.0
  0
VERTEX
  5
F6
  8
MAIN
 10
23.1673725676929
 20
12.87024066597051
 30
0.0
  0
VERTEX
  5
F7
  8
MAIN
 10
23.16225585988512
 20
12.90176251037138
 30
0.0
  0
VERTEX
  5
F8
  8
MAIN
 10
23.15817650170784
 20
12.93336685513317
 30
0.0
  0
VERTEX
  5
F9
  8
MAIN
 10
23.15513355818485
 20
12.96500291776559
 30
0.0
  0
VERTEX
  5
FA
  8
MAIN
 10
23.15312282350143
 20
12.99662035120646
 30
0.0
  0
VERTEX
  5
FB
  8
MAIN
 10
23.15213689037274
 20
13.02816950209979
 30
0.0
  0
VERTEX
  5
FC
  8
MAIN
 10
23.15216524322878
 20
13.05960165876579
 30
0.0
  0
VERTEX
  5
FD
  8
MAIN
 10
23.15319437363317
 20
13.09086928639609
 30
0.0
  0
VERTEX
  5
FE
  8
MAIN
 10
23.15520791607643
 20
13.12192624726442
 30
0.0
  0
VERTEX
  5
FF
  8
MAIN
 10
23.15818680205219
 20
13.15272800403138
 30
0.0
  0
VERTEX
  5
100
  8
MAIN
 10
23.16210943014
 20
13.18323180453501
 30
0.0
  0
VERTEX
  5
101
  8
MAIN
 10
23.16695184968314
 20
13.21339684678735
 30
0.0
  0
VERTEX
  5
102
  8
MAIN
 10
23.17268795556496
 20
13.24318442323348
 30
0.0
  0
VERTEX
  5
103
  8
MAIN
 10
23.17928969155188
 20
13.27255804366528
 30
0.0
  0
VERTEX
  5
104
  8
MAIN
 10
23.18679058602395
 20
13.30171501671515
 30
0.0
  0
VERTEX
  5
105
  8
MAIN
 10
23.19525065384595
 20
13.33084626924004
 30
0.0
  0
VERTEX
  5
106
  8
MAIN
 10
23.20467825301177
 20
13.35990653722033
 30
0.0
  0
VERTEX
  5
107
  8
MAIN
 10
23.21507899462247
 20
13.38884947124969
 30
0.0
  0
VERTEX
  5
108
  8
MAIN
 10
23.22645561783876
 20
13.41762783857277
 30
0.0
  0
VERTEX
  5
109
  8
MAIN
 10
23.23880788218142
 20
13.44619374022416
 30
0.0
  0
VERTEX
  5
10A
  8
MAIN
 10
23.25213247915736
 20
13.47449884157436
 30
0.0
  0
VERTEX
  5
10B
  8
MAIN
 10
23.26642296500395
 20
13.50249461430576
 30
0.0
  0
VERTEX
  5
10C
  8
MAIN
 10
23.28166971611565
 20
13.530132587581
 30
0.0
  0
VERTEX
  5
10D
  8
MAIN
 10
23.29785990844691
 20
13.55736460593498
 30
0.0
  0
VERTEX
  5
10E
  8
MAIN
 10
23.31497752187862
 20
13.58414309122763
 30
0.0
  0
VERTEX
  5
10F
  8
MAIN
 10
23.33300337019655
 20
13.61042130584316
 30
0.0
  0
VERTEX
  5
110
  8
MAIN
 10
23.35191515696768
 20
13.63615361421894
 30
0.0
  0
VERTEX
  5
111
  8
MAIN
 10
23.37168755722012
 20
13.66129573973744
 30
0.0
  0
VERTEX
  5
112
  8
MAIN
 10
23.39229232444454
 20
13.6858050140205
 30
0.0
  0
VERTEX
  5
113
  8
MAIN
 10
23.41369842204755
 20
13.70964061572844
 30
0.0
  0
VERTEX
  5
114
  8
MAIN
 10
23.43587217801074
 20
13.73276379608613
 30
0.0
  0
VERTEX
  5
115
  8
MAIN
 10
23.45877746115137
 20
13.7551380885331
 30
0.0
  0
VERTEX
  5
116
  8
MAIN
 10
23.48237587705137
 20
13.77672950012061
 30
0.0
  0
VERTEX
  5
117
  8
MAIN
 10
23.50662698142833
 20
13.79750668255039
 30
0.0
  0
VERTEX
  5
118
  8
MAIN
 10
23.53148850847218
 20
13.81744108106173
 30
0.0
  0
VERTEX
  5
119
  8
MAIN
 10
23.55691661147047
 20
13.83650705971678
 30
0.0
  0
VERTEX
  5
11A
  8
MAIN
 10
23.58286611289752
 20
13.85468200200121
 30
0.0
  0
VERTEX
  5
11B
  8
MAIN
 10
23.60929076105097
 20
13.8719463860386
 30
0.0
  0
VERTEX
  5
11C
  8
MAIN
 10
23.63614349028443
 20
13.88828383410355
 30
0.0
  0
VERTEX
  5
11D
  8
MAIN
 10
23.66337668190601
 20
13.90368113650101
 30
0.0
  0
VERTEX
  5
11E
  8
MAIN
 10
23.69094242288825
 20
13.91812825024901
 30
0.0
  0
VERTEX
  5
11F
  8
MAIN
 10
23.71879275966016
 20
13.93161827335052
 30
0.0
  0
VERTEX
  5
120
  8
MAIN
 10
23.74687994442306
 20
13.94414739576095
 30
0.0
  0
VERTEX
  5
121
  8
MAIN
 10
23.77515667164236
 20
13.95571482844423
 30
0.0
  0
VERTEX
  5
122
  8
MAIN
 10
23.80357630261012
 20
13.96632271215768
 30
0.0
  0
VERTEX
  5
123
  8
MAIN
 10
23.8320930762413
 20
13.97597600781151
 30
0.0
  0
VERTEX
  5
124
  8
MAIN
 10
23.86089291495363
 20
13.9847487944116
 30
0.0
  0
VERTEX
  5
125
  8
MAIN
 10
23.89017007940451
 20
13.99268921383488
 30
0.0
  0
VERTEX
  5
126
  8
MAIN
 10
23.91989027211229
 20
13.99976656803097
 30
0.0
  0
VERTEX
  5
127
  8
MAIN
 10
23.95001683898674
 20
14.00595193936502
 30
0.0
  0
VERTEX
  5
128
  8
MAIN
 10
23.98051087674433
 20
14.01121840255661
 30
0.0
  0
VERTEX
  5
129
  8
MAIN
 10
24.01133136224802
 20
14.01554122966685
 30
0.0
  0
VERTEX
  5
12A
  8
MAIN
 10
24.04243530335409
 20
14.01889808556362
 30
0.0
  0
VERTEX
  5
12B
  8
MAIN
 10
24.07377791051121
 20
14.02126921130487
 30
0.0
  0
VERTEX
  5
12C
  8
MAIN
 10
24.10531278801544
 20
14.02263759293994
 30
0.0
  0
VERTEX
  5
12D
  8
MAIN
 10
24.1369921434866
 20
14.02298911333891
 30
0.0
  0
VERTEX
  5
12E
  8
MAIN
 10
24.16876701380642
 20
14.02231268482098
 30
0.0
  0
VERTEX
  5
12F
  8
MAIN
 10
24.20058750545303
 20
14.0206003605631
 30
0.0
  0
VERTEX
  5
130
  8
MAIN
 10
24.23240304689003
 20
14.01784742302664
 30
0.0
  0
VERTEX
  5
131
  8
MAIN
 10
24.26416265042819
 20
14.01405244793809
 30
0.0
  0
VERTEX
  5
132
  8
MAIN
 10
24.29581518078075
 20
14.00921734269461
 30
0.0
  0
VERTEX
  5
133
  8
MAIN
 10
24.32730962738574
 20
14.00334735842825
 30
0.0
  0
VERTEX
  5
134
  8
MAIN
 10
24.35859537747481
 20
13.99645107534732
 30
0.0
  0
VERTEX
  5
135
  8
MAIN
 10
24.38962248683093
 20
13.9885403613693
 30
0.0
  0
VERTEX
  5
136
  8
MAIN
 10
24.42034194519912
 20
13.9796303044588
 30
0.0
  0
VERTEX
  5
137
  8
MAIN
 10
24.45070593339375
 20
13.96973911947563
 30
0.0
  0
VERTEX
  5
138
  8
MAIN
 10
24.48066806928201
 20
13.95888803071376
 30
0.0
  0
VERTEX
  5
139
  8
MAIN
 10
24.51018364001214
 20
13.94710113166217
 30
0.0
  0
VERTEX
  5
13A
  8
MAIN
 10
24.53920981809115
 20
13.93440522383577
 30
0.0
  0
VERTEX
  5
13B
  8
MAIN
 10
24.56770585919497
 20
13.92082963680139
 30
0.0
  0
VERTEX
  5
13C
  8
MAIN
 10
24.59563327990583
 20
13.90640603175474
 30
0.0
  0
VERTEX
  5
13D
  8
MAIN
 10
24.62295601390918
 20
13.89116819118544
 30
0.0
  0
VERTEX
  5
13E
  8
MAIN
 10
24.64964054553743
 20
13.87515179729499
 30
0.0
  0
VERTEX
  5
13F
  8
MAIN
 10
24.6756560199109
 20
13.85839420190696
 30
0.0
  0
VERTEX
  5
140
  8
MAIN
 10
24.70097432928898
 20
13.84093419062989
 30
0.0
  0
VERTEX
  5
141
  8
MAIN
 10
24.72557017559861
 20
13.82281174400248
 30
0.0
  0
VERTEX
  5
142
  8
MAIN
 10
24.74942110944485
 20
13.80406779827266
 30
0.0
  0
VERTEX
  5
143
  8
MAIN
 10
24.77725646628838
 20
13.78072330093331
 30
0.0
  0
VERTEX
  5
144
  8
MAIN
 10
24.78211472353578
 20
13.776770122103
 30
0.0
  0
VERTEX
  5
145
  8
MAIN
 10
24.78708133707224
 20
13.77288834321006
 30
0.0
  0
VERTEX
  5
146
  8
MAIN
 10
24.79215516019713
 20
13.76908184342516
 30
0.0
  0
VERTEX
  5
147
  8
MAIN
 10
24.79733487758077
 20
13.76535450155164
 30
0.0
  0
VERTEX
  5
148
  8
MAIN
 10
24.80261900288811
 20
13.76171018753947
 30
0.0
  0
VERTEX
  5
149
  8
MAIN
 10
24.80800587687823
 20
13.75815275371508
 30
0.0
  0
VERTEX
  5
14A
  8
MAIN
 10
24.8134936660088
 20
13.75468602575576
 30
0.0
  0
VERTEX
  5
14B
  8
MAIN
 10
24.81908036157273
 20
13.75131379344021
 30
0.0
  0
VERTEX
  5
14C
  8
MAIN
 10
24.82476377939232
 20
13.74803980120957
 30
0.0
  0
VERTEX
  5
14D
  8
MAIN
 10
24.83054156009368
 20
13.74486773857621
 30
0.0
  0
VERTEX
  5
14E
  8
MAIN
 10
24.83641116998178
 20
13.74180123041994
 30
0.0
  0
VERTEX
  5
14F
  8
MAIN
 10
24.8423699025333
 20
13.73884382721373
 30
0.0
  0
VERTEX
  5
150
  8
MAIN
 10
24.84841488052116
 20
13.73599899522325
 30
0.0
  0
VERTEX
  5
151
  8
MAIN
 10
24.85454305878155
 20
13.73327010672623
 30
0.0
  0
VERTEX
  5
152
  8
MAIN
 10
24.86075122762986
 20
13.73066043029934
 30
0.0
  0
VERTEX
  5
153
  8
MAIN
 10
24.86703601692858
 20
13.72817312122146
 30
0.0
  0
VERTEX
  5
154
  8
MAIN
 10
24.87339390080587
 20
13.72581121204313
 30
0.0
  0
VERTEX
  5
155
  8
MAIN
 10
24.87982120301918
 20
13.72357760337237
 30
0.0
  0
VERTEX
  5
156
  8
MAIN
 10
24.88631410295402
 20
13.72147505492729
 30
0.0
  0
VERTEX
  5
157
  8
MAIN
 10
24.89286864224367
 20
13.71950617690531
 30
0.0
  0
VERTEX
  5
158
  8
MAIN
 10
24.89948073199107
 20
13.71767342171848
 30
0.0
  0
VERTEX
  5
159
  8
MAIN
 10
24.90614616056965
 20
13.71597907614272
 30
0.0
  0
VERTEX
  5
15A
  8
MAIN
 10
24.91286060197587
 20
13.71442525392752
 30
0.0
  0
VERTEX
  5
15B
  8
MAIN
 10
24.91961962470159
 20
13.71301388891037
 30
0.0
  0
VERTEX
  5
15C
  8
MAIN
 10
24.92641870109084
 20
13.71174672867779
 30
0.0
  0
VERTEX
  5
15D
  8
MAIN
 10
24.93325321714142
 20
13.71062532881191
 30
0.0
  0
VERTEX
  5
15E
  8
MAIN
 10
24.94011848270845
 20
13.70965104775835
 30
0.0
  0
VERTEX
  5
15F
  8
MAIN
 10
24.94700974206351
 20
13.70882504234737
 30
0.0
  0
VERTEX
  5
160
  8
MAIN
 10
24.95392218476062
 20
13.70814826399647
 30
0.0
  0
VERTEX
  5
161
  8
MAIN
 10
24.96085095675721
 20
13.7076214556182
 30
0.0
  0
VERTEX
  5
162
  8
MAIN
 10
24.96779117173659
 20
13.7072451492528
 30
0.0
  0
VERTEX
  5
163
  8
MAIN
 10
24.97473792257677
 20
13.70701966444016
 30
0.0
  0
VERTEX
  5
164
  8
MAIN
 10
24.98168629290892
 20
13.70694510734102
 30
0.0
  0
VERTEX
  5
165
  8
MAIN
 10
24.98863136870867
 20
13.70702137061258
 30
0.0
  0
VERTEX
  5
166
  8
MAIN
 10
24.99556824986269
 20
13.70724813403828
 30
0.0
  0
VERTEX
  5
167
  8
MAIN
 10
25.00249206165352
 20
13.70762486590686
 30
0.0
  0
VERTEX
  5
168
  8
MAIN
 10
25.00939796610638
 20
13.70815082513085
 30
0.0
  0
VERTEX
  5
169
  8
MAIN
 10
25.01628117314287
 20
13.70882506408977
 30
0.0
  0
VERTEX
  5
16A
  8
MAIN
 10
25.02313695148801
 20
13.70964643217874
 30
0.0
  0
VERTEX
  5
16B
  8
MAIN
 10
25.02996063927953
 20
13.7106135800387
 30
0.0
  0
VERTEX
  5
16C
  8
MAIN
 10
25.03674765433038
 20
13.71172496444033
 30
0.0
  0
VERTEX
  5
16D
  8
MAIN
 10
25.04349350399884
 20
13.71297885378982
 30
0.0
  0
VERTEX
  5
16E
  8
MAIN
 10
25.0501937946233
 20
13.71437333422111
 30
0.0
  0
VERTEX
  5
16F
  8
MAIN
 10
25.05684424048273
 20
13.71590631623594
 30
0.0
  0
VERTEX
  5
170
  8
MAIN
 10
25.0634406722475
 20
13.7175755418503
 30
0.0
  0
VERTEX
  5
171
  8
MAIN
 10
25.0699790448891
 20
13.71937859220348
 30
0.0
  0
VERTEX
  5
172
  8
MAIN
 10
25.07645544502167
 20
13.72131289558373
 30
0.0
  0
VERTEX
  5
173
  8
MAIN
 10
25.08286609765232
 20
13.72337573582323
 30
0.0
  0
VERTEX
  5
174
  8
MAIN
 10
25.08920737232176
 20
13.72556426101369
 30
0.0
  0
VERTEX
  5
175
  8
MAIN
 10
25.09547578862094
 20
13.72787549249345
 30
0.0
  0
VERTEX
  5
176
  8
MAIN
 10
25.10166802107389
 20
13.73030633405621
 30
0.0
  0
VERTEX
  5
177
  8
MAIN
 10
25.10778090338119
 20
13.73285358133234
 30
0.0
  0
VERTEX
  5
178
  8
MAIN
 10
25.11381143202261
 20
13.73551393129336
 30
0.0
  0
VERTEX
  5
179
  8
MAIN
 10
25.11975676922159
 20
13.73828399183203
 30
0.0
  0
VERTEX
  5
17A
  8
MAIN
 10
25.125614245278
 20
13.74116029137071
 30
0.0
  0
VERTEX
  5
17B
  8
MAIN
 10
25.13138136027933
 20
13.74413928845316
 30
0.0
  0
VERTEX
  5
17C
  8
MAIN
 10
25.13705578520386
 20
13.747217381276
 30
0.0
  0
VERTEX
  5
17D
  8
MAIN
 10
25.14263536243245
 20
13.75039091711877
 30
0.0
  0
VERTEX
  5
17E
  8
MAIN
 10
25.1481181056886
 20
13.75365620163342
 30
0.0
  0
VERTEX
  5
17F
  8
MAIN
 10
25.15350219942892
 20
13.75700950795678
 30
0.0
  0
VERTEX
  5
180
  8
MAIN
 10
25.15878599770845
 20
13.76044708561222
 30
0.0
  0
VERTEX
  5
181
  8
MAIN
 10
25.16396802254733
 20
13.76396516916952
 30
0.0
  0
VERTEX
  5
182
  8
MAIN
 10
25.16904696182705
 20
13.76755998663476
 30
0.0
  0
VERTEX
  5
183
  8
MAIN
 10
25.85136892784632
 20
14.26052668148582
 30
0.0
 42
-0.1674676573381546
  0
VERTEX
  5
184
  8
MAIN
 10
25.88255272610323
 20
14.26996146808222
 30
0.0
  0
VERTEX
  5
185
  8
MAIN
 10
45.21365103921107
 20
13.53391349089246
 30
0.0
 42
-0.4031682978653049
  0
VERTEX
  5
186
  8
MAIN
 10
46.17560249338542
 20
12.53443748928197
 30
0.0
  0
VERTEX
  5
187
  8
MAIN
 10
46.17560251340722
 20
12.49300170171186
 30
0.0
  0
VERTEX
  5
188
  8
MAIN
 10
45.75976319416016
 20
12.49300170171186
 30
0.0
  0
VERTEX
  5
189
  8
MAIN
 10
45.75976319416017
 20
12.67436424843116
 30
0.0
 42
0.9999997833049575
  0
VERTEX
  5
18A
  8
MAIN
 10
45.35703791143369
 20
12.67436433829247
 30
0.0
  0
VERTEX
  5
18B
  8
MAIN
 10
45.35703809603435
 20
11.7930017017119
 30
0.0
  0
VERTEX
  5
18C
  8
MAIN
 10
44.0375002620192
 20
11.7930017017119
 30
0.0
  0
VERTEX
  5
18D
  8
MAIN
 10
44.03750026201923
 20
12.67436424843119
 30
0.0
 42
0.9999997928170737
  0
VERTEX
  5
18E
  8
MAIN
 10
43.63477497929271
 20
12.67436433446171
 30
0.0
  0
VERTEX
  5
18F
  8
MAIN
 10
43.63477515623178
 20
12.49300170171191
 30
0.0
  0
VERTEX
  5
190
  8
MAIN
 10
43.27190399654488
 20
12.49300170171189
 30
0.0
  0
VERTEX
  5
191
  8
MAIN
 10
43.27190399654488
 20
12.67436424843122
 30
0.0
 42
0.9999997833050281
  0
VERTEX
  5
192
  8
MAIN
 10
42.8691787138184
 20
12.67436433829251
 30
0.0
  0
VERTEX
  5
193
  8
MAIN
 10
42.86917889841905
 20
11.79300170171192
 30
0.0
  0
VERTEX
  5
194
  8
MAIN
 10
41.54964106440391
 20
11.79300170171193
 30
0.0
  0
VERTEX
  5
195
  8
MAIN
 10
41.54964106440392
 20
12.67436424843122
 30
0.0
 42
0.9999997928171972
  0
VERTEX
  5
196
  8
MAIN
 10
41.14691578167744
 20
12.67436433446175
 30
0.0
  0
VERTEX
  5
197
  8
MAIN
 10
41.1469159586165
 20
12.49300170171192
 30
0.0
  0
VERTEX
  5
198
  8
MAIN
 10
40.78404479892961
 20
12.49300170171193
 30
0.0
  0
VERTEX
  5
199
  8
MAIN
 10
40.7840447989296
 20
12.67436424843123
 30
0.0
 42
0.9999997833050546
  0
VERTEX
  5
19A
  8
MAIN
 10
40.38131951620313
 20
12.67436433829256
 30
0.0
  0
VERTEX
  5
19B
  8
MAIN
 10
40.38131970080377
 20
11.79300170171193
 30
0.0
  0
VERTEX
  5
19C
  8
MAIN
 10
25.47506795369166
 20
11.7930017017121
 30
0.0
  0
VERTEX
  5
19D
  8
MAIN
 10
24.96111989775686
 20
11.7930019166754
 30
0.0
 42
-0.0803968553617493
  0
VERTEX
  5
19E
  8
MAIN
 10
24.86651286648439
 20
11.80842933455303
 30
0.0
 42
-0.2206881935715711
  0
VERTEX
  5
19F
  8
MAIN
 10
24.83590291598814
 20
11.83731559140099
 30
0.0
  0
VERTEX
  5
1A0
  8
MAIN
 10
24.83460763957148
 20
11.84055903068089
 30
0.0
  0
SEQEND
  5
1A1
  8
MAIN
  0
POLYLINE
  5
1A2
  8
MAIN
 66
     1
 10
0.0
 20
0.0
 30
0.0
  0
VERTEX
  5
1A3
  8
MAIN
 10
32.84348124399376
 20
43.9900716275487
 30
0.0
  0
VERTEX
  5
1A4
  8
MAIN
 10
32.62412574062994
 20
44.00689907964346
 30
0.0
 42
-0.3996375341442607
  0
VERTEX
  5
1A5
  8
MAIN
 10
32.43949386980398
 20
44.21162101856382
 30
0.0
  0
VERTEX
  5
1A6
  8
MAIN
 10
31.46186596215555
 20
44.28661793694597
 30
0.0
 42
-0.9752971977394977
  0
VERTEX
  5
1A7
  8
MAIN
 10
31.06405208201222
 20
44.3271648750184
 30
0.0
  0
VERTEX
  5
1A8
  8
MAIN
 10
31.117593975041
 20
45.02511420390331
 30
0.0
 42
-0.975297197739528
  0
VERTEX
  5
1A9
  8
MAIN
 10
31.51693762355659
 20
45.00450867522758
 30
0.0
  0
VERTEX
  5
1AA
  8
MAIN
 10
32.49456553120498
 20
44.92951175684489
 30
0.0
 42
-0.39963753414439
  0
VERTEX
  5
1AB
  8
MAIN
 10
32.70826300110367
 20
45.10367659646202
 30
0.0
  0
VERTEX
  5
1AC
  8
MAIN
 10
33.46507207418297
 20
45.04561938692397
 30
0.0
 42
-0.4142135623731346
  0
VERTEX
  5
1AD
  8
MAIN
 10
33.64918848442759
 20
44.83090760923434
 30
0.0
  0
VERTEX
  5
1AE
  8
MAIN
 10
33.59564659139885
 20
44.13295828035
 30
0.0
 42
-0.4142135623731598
  0
VERTEX
  5
1AF
  8
MAIN
 10
33.38093481370922
 20
43.94884187010543
 30
0.0
  0
VERTEX
  5
1B0
  8
MAIN
 10
32.84348124399376
 20
43.9900716275487
 30
0.0
  0
SEQEND
  5
1B1
  8
MAIN
  0
POLYLINE
  5
1B2
  8
MAIN
 66
     1
 10
0.0
 20
0.0
 30
0.0
  0
VERTEX
  5
1B3
  8
MAIN
 10
40.73094601372551
 20
43.38499934294043
 30
0.0
 42
0.4142135623731013
  0
VERTEX
  5
1B4
  8
MAIN
 10
40.94565779141515
 20
43.56911575318503
 30
0.0
  0
VERTEX
  5
1B5
  8
MAIN
 10
40.99919968444394
 20
44.26706508206998
 30
0.0
 42
0.4142135623730424
  0
VERTEX
  5
1B6
  8
MAIN
 10
40.81508327419932
 20
44.48177685975961
 30
0.0
  0
VERTEX
  5
1B7
  8
MAIN
 10
40.31654803928153
 20
44.52002106906586
 30
0.0
 42
0.4142135623730388
  0
VERTEX
  5
1B8
  8
MAIN
 10
40.10183626159188
 20
44.33590465882126
 30
0.0
  0
VERTEX
  5
1B9
  8
MAIN
 10
40.04829436856311
 20
43.63795532993633
 30
0.0
 42
0.4142135623730273
  0
VERTEX
  5
1BA
  8
MAIN
 10
40.23241077880772
 20
43.4232435522467
 30
0.0
  0
VERTEX
  5
1BB
  8
MAIN
 10
40.73094601372551
 20
43.38499934294043
 30
0.0
  0
SEQEND
  5
1BC
  8
MAIN
  0
POLYLINE
  5
1BD
  8
MAIN
 66
     1
 10
0.0
 20
0.0
 30
0.0
  0
VERTEX
  5
1BE
  8
MAIN
 10
31.24816849225682
 20
44.11245309732878
 30
0.0
 42
0.4142135623731267
  0
VERTEX
  5
1BF
  8
MAIN
 10
31.46288026994646
 20
44.29656950757339
 30
0.0
  0
VERTEX
  5
1C0
  8
MAIN
 10
31.51642216297522
 20
44.99451883645833
 30
0.0
 42
0.414213562373128
  0
VERTEX
  5
1C1
  8
MAIN
 10
31.33230575273064
 20
45.20923061414796
 30
0.0
  0
VERTEX
  5
1C2
  8
MAIN
 10
30.83377051781284
 20
45.24747482345421
 30
0.0
 42
0.4142135623731715
  0
VERTEX
  5
1C3
  8
MAIN
 10
30.61905874012322
 20
45.0633584132096
 30
0.0
  0
VERTEX
  5
1C4
  8
MAIN
 10
30.56551684709441
 20
44.36540908432468
 30
0.0
 42
0.4142135623730911
  0
VERTEX
  5
1C5
  8
MAIN
 10
30.74963325733904
 20
44.15069730663507
 30
0.0
  0
VERTEX
  5
1C6
  8
MAIN
 10
31.24816849225682
 20
44.11245309732878
 30
0.0
  0
SEQEND
  5
1C7
  8
MAIN
  0
POLYLINE
  5
1C8
  8
MAIN
 66
     1
 10
0.0
 20
0.0
 30
0.0
  0
VERTEX
  5
1C9
  8
MAIN
 10
36.59037272341094
 20
44.61564977700161
 30
0.0
  0
VERTEX
  5
1CA
  8
MAIN
 10
35.69300930055893
 20
44.68448935375291
 30
0.0
  0
VERTEX
  5
1CB
  8
MAIN
 10
35.63793763915788
 20
43.96659861547128
 30
0.0
  0
VERTEX
  5
1CC
  8
MAIN
 10
36.53530106200992
 20
43.89775903872
 30
0.0
  0
VERTEX
  5
1CD
  8
MAIN
 10
36.59037272341094
 20
44.61564977700161
 30
0.0
  0
SEQEND
  5
1CE
  8
MAIN
  0
POLYLINE
  5
1CF
  8
MAIN
 66
     1
 10
0.0
 20
0.0
 30
0.0
  0
VERTEX
  5
1D0
  8
MAIN
 10
38.86616210081063
 20
26.38383311190388
 30
0.0
 42
0.414213562373005
  0
VERTEX
  5
1D1
  8
MAIN
 10
38.99161574210453
 20
26.6373314035867
 30
0.0
  0
VERTEX
  5
1D2
  8
MAIN
 10
38.76753760392397
 20
27.30049728629596
 30
0.0
 42
0.4142135623731253
  0
VERTEX
  5
1D3
  8
MAIN
 10
38.51403931224117
 20
27.42595092758987
 30
0.0
  0
VERTEX
  5
1D4
  8
MAIN
 10
38.04034939602028
 20
27.26589511460378
 30
0.0
 42
0.4142135623730587
  0
VERTEX
  5
1D5
  8
MAIN
 10
37.91489575472636
 20
27.01239682292096
 30
0.0
  0
VERTEX
  5
1D6
  8
MAIN
 10
38.13897389290692
 20
26.34923094021171
 30
0.0
 42
0.4142135623731045
  0
VERTEX
  5
1D7
  8
MAIN
 10
38.39247218458971
 20
26.2237772989178
 30
0.0
  0
VERTEX
  5
1D8
  8
MAIN
 10
38.86616210081063
 20
26.38383311190388
 30
0.0
  0
SEQEND
  5
1D9
  8
MAIN
  0
POLYLINE
  5
1DA
  8
MAIN
 66
     1
 10
0.0
 20
0.0
 30
0.0
  0
VERTEX
  5
1DB
  8
MAIN
 10
43.55790811149394
 20
26.88086537040514
 30
0.0
 42
-0.0321936743204397
  0
VERTEX
  5
1DC
  8
MAIN
 10
44.31087812620946
 20
27.05052922606731
 30
0.0
  0
VERTEX
  5
1DD
  8
MAIN
 10
45.58801264525803
 20
27.25304329123438
 30
0.0
 42
0.6075940379749208
  0
VERTEX
  5
1DE
  8
MAIN
 10
45.61606356357759
 20
27.3372474888433
 30
0.0
  0
VERTEX
  5
1DF
  8
MAIN
 10
45.10272155877161
 20
27.86622183668189
 30
0.0
 42
0.3473293232229912
  0
VERTEX
  5
1E0
  8
MAIN
 10
44.73373441900098
 20
27.91514072930517
 30
0.0
 42
-1.255343388591409
  0
VERTEX
  5
1E1
  8
MAIN
 10
44.13542818766331
 20
29.77062317181232
 30
0.0
 42
0.384315035514356
  0
VERTEX
  5
1E2
  8
MAIN
 10
44.48256419469597
 20
30.14286011166595
 30
0.0
  0
VERTEX
  5
1E3
  8
MAIN
 10
44.48310288768303
 20
30.40750607403132
 30
0.0
 42
-0.4142139861663327
  0
VERTEX
  5
1E4
  8
MAIN
 10
44.68446544048129
 20
30.60886862269528
 30
0.0
  0
VERTEX
  5
1E5
  8
MAIN
 10
45.56582807706189
 20
30.60886843809463
 30
0.0
  0
VERTEX
  5
1E6
  8
MAIN
 10
45.56582807706188
 20
31.92840627210977
 30
0.0
  0
VERTEX
  5
1E7
  8
MAIN
 10
44.68446553034258
 20
31.92840627210977
 30
0.0
 42
-0.9999997928171439
  0
VERTEX
  5
1E8
  8
MAIN
 10
44.68446544431205
 20
32.33113155483625
 30
0.0
  0
VERTEX
  5
1E9
  8
MAIN
 10
44.86582807706185
 20
32.33113137545817
 30
0.0
  0
VERTEX
  5
1EA
  8
MAIN
 10
44.86582807706183
 20
32.51234783908656
 30
0.0
  0
VERTEX
  5
1EB
  8
MAIN
 10
44.86582807706186
 20
32.69400253758408
 30
0.0
  0
VERTEX
  5
1EC
  8
MAIN
 10
44.68446553034254
 20
32.69400253758408
 30
0.0
 42
-0.9999997833049755
  0
VERTEX
  5
1ED
  8
MAIN
 10
44.68446544048123
 20
33.09672782031056
 30
0.0
  0
VERTEX
  5
1EE
  8
MAIN
 10
45.56582807706184
 20
33.09672763570991
 30
0.0
  0
VERTEX
  5
1EF
  8
MAIN
 10
45.56582807706182
 20
34.41626546972505
 30
0.0
  0
VERTEX
  5
1F0
  8
MAIN
 10
44.68446553034252
 20
34.41626546972505
 30
0.0
 42
-0.9999997988734015
  0
VERTEX
  5
1F1
  8
MAIN
 10
44.68446544431197
 20
34.8189907500125
 30
0.0
  0
VERTEX
  5
1F2
  8
MAIN
 10
44.86582807706179
 20
34.81899057307345
 30
0.0
  0
VERTEX
  5
1F3
  8
MAIN
 10
44.86582807706178
 20
35.18186173276034
 30
0.0
  0
VERTEX
  5
1F4
  8
MAIN
 10
44.68446553034246
 20
35.18186173276032
 30
0.0
 42
-0.9999997772485768
  0
VERTEX
  5
1F5
  8
MAIN
 10
44.68446544048118
 20
35.58458701792584
 30
0.0
  0
VERTEX
  5
1F6
  8
MAIN
 10
45.56582807706178
 20
35.58458683332519
 30
0.0
  0
VERTEX
  5
1F7
  8
MAIN
 10
45.56582807706177
 20
36.90412466734033
 30
0.0
  0
VERTEX
  5
1F8
  8
MAIN
 10
44.68446553034246
 20
36.90412466734033
 30
0.0
 42
-0.9999997988734015
  0
VERTEX
  5
1F9
  8
MAIN
 10
44.68446544431191
 20
37.30684994762778
 30
0.0
  0
VERTEX
  5
1FA
  8
MAIN
 10
44.86582807706174
 20
37.30684977068873
 30
0.0
  0
VERTEX
  5
1FB
  8
MAIN
 10
44.86582807706172
 20
37.66972093037562
 30
0.0
  0
VERTEX
  5
1FC
  8
MAIN
 10
44.68446553034241
 20
37.6697209303756
 30
0.0
 42
-0.9999997772485768
  0
VERTEX
  5
1FD
  8
MAIN
 10
44.68446544048112
 20
38.07244621554112
 30
0.0
  0
VERTEX
  5
1FE
  8
MAIN
 10
45.56582807706172
 20
38.07244603094047
 30
0.0
  0
VERTEX
  5
1FF
  8
MAIN
 10
45.56582807706171
 20
39.39198386495561
 30
0.0
  0
VERTEX
  5
200
  8
MAIN
 10
44.68446553034241
 20
39.39198386495561
 30
0.0
 42
-0.9999997928171439
  0
VERTEX
  5
201
  8
MAIN
 10
44.68446544431188
 20
39.79470914768208
 30
0.0
  0
VERTEX
  5
202
  8
MAIN
 10
44.86582807706168
 20
39.79470896830401
 30
0.0
  0
VERTEX
  5
203
  8
MAIN
 10
44.86582807706166
 20
40.1575801279909
 30
0.0
  0
VERTEX
  5
204
  8
MAIN
 10
44.68446553034237
 20
40.15758013042992
 30
0.0
 42
-0.9999997833049755
  0
VERTEX
  5
205
  8
MAIN
 10
44.68446544048106
 20
40.5603054131564
 30
0.0
  0
VERTEX
  5
206
  8
MAIN
 10
45.56582807706167
 20
40.56030522855575
 30
0.0
  0
VERTEX
  5
207
  8
MAIN
 10
45.56582807706165
 20
41.87984306257088
 30
0.0
  0
VERTEX
  5
208
  8
MAIN
 10
44.68446553034235
 20
41.87984306257088
 30
0.0
 42
-0.9999997988734015
  0
VERTEX
  5
209
  8
MAIN
 10
44.6844654443118
 20
42.28256834285834
 30
0.0
  0
VERTEX
  5
20A
  8
MAIN
 10
44.86582807706162
 20
42.28256816591929
 30
0.0
  0
VERTEX
  5
20B
  8
MAIN
 10
44.86582807706158
 20
42.64543932316714
 30
0.0
  0
VERTEX
  5
20C
  8
MAIN
 10
44.68446553034229
 20
42.64543932560616
 30
0.0
 42
-0.9999997772485768
  0
VERTEX
  5
20D
  8
MAIN
 10
44.68446544048101
 20
43.04816461077168
 30
0.0
  0
VERTEX
  5
20E
  8
MAIN
 10
45.56582807706161
 20
43.04816442617103
 30
0.0
  0
VERTEX
  5
20F
  8
MAIN
 10
45.5658280770616
 20
44.36770226018616
 30
0.0
  0
VERTEX
  5
210
  8
MAIN
 10
44.68446553034229
 20
44.36770226018616
 30
0.0
 42
-0.9999997988734015
  0
VERTEX
  5
211
  8
MAIN
 10
44.68446544431174
 20
44.77042754047362
 30
0.0
  0
VERTEX
  5
212
  8
MAIN
 10
44.86582807706152
 20
44.77042736109553
 30
0.0
  0
VERTEX
  5
213
  8
MAIN
 10
44.86621609665867
 20
44.83858685081417
 30
0.0
 42
0.4033390311747927
  0
VERTEX
  5
214
  8
MAIN
 10
44.38485837932774
 20
45.3382507041305
 30
0.0
  0
VERTEX
  5
215
  8
MAIN
 10
27.94798344290963
 20
45.95152018027037
 30
0.0
 42
0.4511231803625134
  0
VERTEX
  5
216
  8
MAIN
 10
27.84463371700537
 20
45.84289463873786
 30
0.0
  0
VERTEX
  5
217
  8
MAIN
 10
28.00861829917563
 20
43.96411162020388
 30
0.0
 42
0.3559606383335385
  0
VERTEX
  5
218
  8
MAIN
 10
28.09668211536134
 20
43.87347703744338
 30
0.0
  0
VERTEX
  5
219
  8
MAIN
 10
40.8049721980972
 20
42.39481718882229
 30
0.0
 42
-0.3682998929707546
  0
VERTEX
  5
21A
  8
MAIN
 10
42.57193796466504
 20
40.49504901128621
 30
0.0
  0
VERTEX
  5
21B
  8
MAIN
 10
42.96401296849808
 20
31.47266224720299
 30
0.0
 42
-0.3228186268868772
  0
VERTEX
  5
21C
  8
MAIN
 10
41.68016019325879
 20
29.51772362238403
 30
0.0
  0
VERTEX
  5
21D
  8
MAIN
 10
29.7407924988114
 20
24.95276980268128
 30
0.0
 42
0.3349063385097102
  0
VERTEX
  5
21E
  8
MAIN
 10
29.6768843082401
 20
24.85066932734906
 30
0.0
  0
VERTEX
  5
21F
  8
MAIN
 10
29.84084315891578
 20
22.97218111637696
 30
0.0
 42
0.4737540730853286
  0
VERTEX
  5
220
  8
MAIN
 10
29.96867519726441
 20
22.88493802312236
 30
0.0
  0
VERTEX
  5
221
  8
MAIN
 10
43.55790811149394
 20
26.88086537040513
 30
0.0
  0
SEQEND
  5
222
  8
MAIN
  0
POLYLINE
  5
223
  8
MAIN
 66
     1
 10
0.0
 20
0.0
 30
0.0
  0
VERTEX
  5
224
  8
MAIN
 10
32.57233714073332
 20
25.41865820858041
 30
0.0
  0
VERTEX
  5
225
  8
MAIN
 10
33.67038132900719
 20
25.78967804504005
 30
0.0
 42
-0.4142135623731486
  0
VERTEX
  5
226
  8
MAIN
 10
33.92387962069
 20
25.66422440374612
 30
0.0
  0
VERTEX
  5
227
  8
MAIN
 10
34.14795775613175
 20
25.00105852914244
 30
0.0
 42
-0.4142135749026756
  0
VERTEX
  5
228
  8
MAIN
 10
34.02250412547956
 20
24.74756023202442
 30
0.0
  0
VERTEX
  5
229
  8
MAIN
 10
32.92445992930274
 20
24.37654039289447
 30
0.0
 42
-0.414213562373127
  0
VERTEX
  5
22A
  8
MAIN
 10
32.67096163761996
 20
24.50199403418837
 30
0.0
  0
VERTEX
  5
22B
  8
MAIN
 10
32.44688349943942
 20
25.16515991689762
 30
0.0
 42
-0.4142135623732142
  0
VERTEX
  5
22C
  8
MAIN
 10
32.57233714073332
 20
25.41865820858041
 30
0.0
  0
SEQEND
  5
22D
  8
MAIN
  0
POLYLINE
  5
22E
  8
MAIN
 66
     1
 10
0.0
 20
0.0
 30
0.0
  0
VERTEX
  5
22F
  8
MAIN
 10
37.25162125706471
 20
26.78864013390709
 30
0.0
 42
0.4142135623731052
  0
VERTEX
  5
230
  8
MAIN
 10
36.9981229653819
 20
26.91409377520101
 30
0.0
  0
VERTEX
  5
231
  8
MAIN
 10
34.50407558155595
 20
26.0713762758956
 30
0.0
 42
0.4142135623730275
  0
VERTEX
  5
232
  8
MAIN
 10
34.37862194026205
 20
25.81787798421279
 30
0.0
  0
VERTEX
  5
233
  8
MAIN
 10
34.60270007844261
 20
25.15471210150354
 30
0.0
 42
0.4142135623730579
  0
VERTEX
  5
234
  8
MAIN
 10
34.85619837012541
 20
25.02925846020962
 30
0.0
  0
VERTEX
  5
235
  8
MAIN
 10
37.35024575395114
 20
25.87197595951552
 30
0.0
 42
0.414213562373049
  0
VERTEX
  5
236
  8
MAIN
 10
37.47569939524509
 20
26.12547425119833
 30
0.0
  0
VERTEX
  5
237
  8
MAIN
 10
37.25162125706471
 20
26.78864013390709
 30
0.0
  0
SEQEND
  5
238
  8
MAIN
  0
POLYLINE
  5
239
  8
MAIN
 66
     1
 10
0.0
 20
0.0
 30
0.0
  0
VERTEX
  5
23A
  8
MAIN
 10
34.56187554378017
 20
44.96182043581861
 30
0.0
  0
VERTEX
  5
23B
  8
MAIN
 10
35.71751280479367
 20
44.87316785883554
 30
0.0
 42
-0.414213562373106
  0
VERTEX
  5
23C
  8
MAIN
 10
35.90162921503829
 20
44.65845608114591
 30
0.0
  0
VERTEX
  5
23D
  8
MAIN
 10
35.84808732266394
 20
43.9605067607917
 30
0.0
 42
-0.4142135749026262
  0
VERTEX
  5
23E
  8
MAIN
 10
35.6333755526373
 20
43.77639034137835
 30
0.0
  0
VERTEX
  5
23F
  8
MAIN
 10
34.47773828330637
 20
43.86504291899948
 30
0.0
 42
-0.4142135623730924
  0
VERTEX
  5
240
  8
MAIN
 10
34.29362187306175
 20
44.07975469668909
 30
0.0
  0
VERTEX
  5
241
  8
MAIN
 10
34.34716376609053
 20
44.777704025574
 30
0.0
 42
-0.4142135623731838
  0
VERTEX
  5
242
  8
MAIN
 10
34.56187554378017
 20
44.96182043581861
 30
0.0
  0
SEQEND
  5
243
  8
MAIN
  0
POLYLINE
  5
244
  8
MAIN
 66
     1
 10
0.0
 20
0.0
 30
0.0
  0
VERTEX
  5
245
  8
MAIN
 10
39.40391288548493
 20
44.38978486121728
 30
0.0
 42
0.4142135623730891
  0
VERTEX
  5
246
  8
MAIN
 10
39.21979647524032
 20
44.60449663890691
 30
0.0
  0
VERTEX
  5
247
  8
MAIN
 10
36.59493481824897
 20
44.80585805045649
 30
0.0
 42
0.4142135623731308
  0
VERTEX
  5
248
  8
MAIN
 10
36.38022304055935
 20
44.62174164021189
 30
0.0
  0
VERTEX
  5
249
  8
MAIN
 10
36.32668114753056
 20
43.92379231132698
 30
0.0
 42
0.414213562372997
  0
VERTEX
  5
24A
  8
MAIN
 10
36.51079755777518
 20
43.70908053363733
 30
0.0
  0
VERTEX
  5
24B
  8
MAIN
 10
39.13565921476655
 20
43.50771912208829
 30
0.0
 42
0.414213562373018
  0
VERTEX
  5
24C
  8
MAIN
 10
39.35037099245619
 20
43.69183553233289
 30
0.0
  0
VERTEX
  5
24D
  8
MAIN
 10
39.40391288548493
 20
44.38978486121728
 30
0.0
  0
SEQEND
  5
24E
  8
MAIN
  0
POLYLINE
  5
24F
  8
MAIN
 66
     1
 10
0.0
 20
0.0
 30
0.0
  0
VERTEX
  5
250
  8
MAIN
 10
29.44085480723246
 20
13.49376179298692
 30
0.0
  0
VERTEX
  5
251
  8
MAIN
 10
29.22089331035377
 20
13.49787760285655
 30
0.0
 42
0.3996375341442416
  0
VERTEX
  5
252
  8
MAIN
 10
29.0176238627868
 20
13.31164782090472
 30
0.0
  0
VERTEX
  5
253
  8
MAIN
 10
28.03729515136139
 20
13.32999124301815
 30
0.0
 42
0.9752971977395142
  0
VERTEX
  5
254
  8
MAIN
 10
27.63742818743439
 20
13.32747160384854
 30
0.0
  0
VERTEX
  5
255
  8
MAIN
 10
27.62433242875834
 20
12.62759411377995
 30
0.0
 42
0.9752971977394554
  0
VERTEX
  5
256
  8
MAIN
 10
28.02382522815177
 20
12.6101172532333
 30
0.0
  0
VERTEX
  5
257
  8
MAIN
 10
29.00415393957718
 20
12.59177383112045
 30
0.0
 42
0.3996375341443082
  0
VERTEX
  5
258
  8
MAIN
 10
29.20031426100574
 20
12.39807011846362
 30
0.0
  0
VERTEX
  5
259
  8
MAIN
 10
29.95921410173501
 20
12.38386996298713
 30
0.0
 42
0.4142135623731473
  0
VERTEX
  5
25A
  8
MAIN
 10
30.16292074423347
 20
12.58009331481357
 30
0.0
  0
VERTEX
  5
25B
  8
MAIN
 10
30.17601650290948
 20
13.27997080488159
 30
0.0
 42
0.4142135623731811
  0
VERTEX
  5
25C
  8
MAIN
 10
29.97979315108304
 20
13.48367744738003
 30
0.0
  0
VERTEX
  5
25D
  8
MAIN
 10
29.44085480723246
 20
13.49376179298692
 30
0.0
  0
SEQEND
  5
25E
  8
MAIN
  0
POLYLINE
  5
25F
  8
MAIN
 66
     1
 10
0.0
 20
0.0
 30
0.0
  0
VERTEX
  5
260
  8
MAIN
 10
1.820447261466105
 20
13.98074214695197
 30
0.0
  0
VERTEX
  5
261
  8
MAIN
 10
1.820447261466105
 20
22.28074214695161
 30
-0.0000000000000002
  0
VERTEX
  5
262
  8
MAIN
 10
3.665667262852029
 20
22.2807421469516
 30
-0.0000000000000002
 42
0.2429577986668593
  0
VERTEX
  5
263
  8
MAIN
 10
3.820586596700442
 20
22.20074214695152
 30
-0.0000000000000002
  0
VERTEX
  5
264
  8
MAIN
 10
4.075667262852043
 20
22.2007421469516
 30
-0.0000000000000002
 42
0.4142135623731049
  0
VERTEX
  5
265
  8
MAIN
 10
4.265667262851982
 20
22.39074214695167
 30
-0.0000000000000002
  0
VERTEX
  5
266
  8
MAIN
 10
4.265667262851912
 20
22.58474214695165
 30
-0.0000000000000002
 42
-0.4142135623730954
  0
VERTEX
  5
267
  8
MAIN
 10
4.661667262851756
 20
22.9807421469518
 30
-0.0000000000000002
  0
VERTEX
  5
268
  8
MAIN
 10
6.145667262851779
 20
22.98074214695232
 30
-0.0000000000000002
  0
VERTEX
  5
269
  8
MAIN
 10
6.145667262851907
 20
22.58074214695233
 30
0.0000000000000001
  0
VERTEX
  5
26A
  8
MAIN
 10
5.645667262851925
 20
22.58074214695216
 30
0.0000000000000003
 42
0.9999999999999999
  0
VERTEX
  5
26B
  8
MAIN
 10
5.645667262852063
 20
22.20074214695216
 30
0.0000000000000003
  0
VERTEX
  5
26C
  8
MAIN
 10
6.14566726285206
 20
22.20074214695233
 30
0.0000000000000001
 42
0.2429577986671031
  0
VERTEX
  5
26D
  8
MAIN
 10
6.300586596700517
 20
22.28074214695267
 30
0.0000000000000001
  0
VERTEX
  5
26E
  8
MAIN
 10
6.865667262852147
 20
22.28074214695298
 30
0.0000000000000004
  0
VERTEX
  5
26F
  8
MAIN
 10
6.865667262852188
 20
22.1848339615913
 30
0.0000000000000004
 42
0.4142135623730935
  0
VERTEX
  5
270
  8
MAIN
 10
7.055667262852259
 20
21.99483396159136
 30
0.0000000000000004
  0
VERTEX
  5
271
  8
MAIN
 10
7.814699945069892
 20
21.99483396159162
 30
0.0000000000000004
 42
0.4142135623730921
  0
VERTEX
  5
272
  8
MAIN
 10
8.004699945069822
 20
22.1848339615917
 30
0.0000000000000004
  0
VERTEX
  5
273
  8
MAIN
 10
8.004699945069651
 20
22.6486445594465
 30
0.0000000000000004
 42
-0.4142063044983031
  0
VERTEX
  5
274
  8
MAIN
 10
8.336699943565995
 20
22.98065037575828
 30
-0.0000000000000005
  0
VERTEX
  5
275
  8
MAIN
 10
10.52102627442606
 20
22.98065037575905
 30
-0.0000000000000005
 42
-0.414213562373096
  0
VERTEX
  5
276
  8
MAIN
 10
10.91727380659846
 20
22.58440284358691
 30
-0.0000000000000005
  0
VERTEX
  5
277
  8
MAIN
 10
10.47824112438089
 20
22.41371265835877
 30
-0.0000000000000001
  0
VERTEX
  5
278
  8
MAIN
 10
10.47824112438087
 20
22.50297827308436
 30
0.0000000000000002
 42
0.4142135623730503
  0
VERTEX
  5
279
  8
MAIN
 10
10.28824112438082
 20
22.69297827308429
 30
0.0000000000000002
  0
VERTEX
  5
27A
  8
MAIN
 10
8.4826999449894
 20
22.69297827308368
 30
-0.0000000000000005
 42
0.414224215424782
  0
VERTEX
  5
27B
  8
MAIN
 10
8.292699945115137
 20
22.50297136246887
 30
-0.0000000000000005
  0
VERTEX
  5
27C
  8
MAIN
 10
8.292699945052293
 20
22.15483396159015
 30
-0.0000000000000005
 42
0.4142135623730868
  0
VERTEX
  5
27D
  8
MAIN
 10
8.482699945052294
 20
21.96483396159016
 30
-0.0000000000000005
  0
VERTEX
  5
27E
  8
MAIN
 10
10.87476568059531
 20
21.9648339615903
 30
-0.0000000000000005
 42
0.1989124128203588
  0
VERTEX
  5
27F
  8
MAIN
 10
11.05154240680044
 20
22.03805729720216
 30
-0.0000000000000005
  0
VERTEX
  5
280
  8
MAIN
 10
11.22100389258808
 20
22.20751884224875
 30
-0.0000000000000005
 42
-0.1989123673796599
  0
VERTEX
  5
281
  8
MAIN
 10
11.39778058788473
 20
22.28074214695209
 30
-0.0000000000000005
  0
VERTEX
  5
282
  8
MAIN
 10
13.17630648881618
 20
22.28074214695248
 30
0.0000000000000001
 42
0.2429577986668615
  0
VERTEX
  5
283
  8
MAIN
 10
13.3312258226646
 20
22.2007421469524
 30
0.0000000000000001
  0
VERTEX
  5
284
  8
MAIN
 10
13.58630648881621
 20
22.20074214695249
 30
0.0000000000000001
 42
0.4142135623731103
  0
VERTEX
  5
285
  8
MAIN
 10
13.77630648881615
 20
22.39074214695256
 30
0.0000000000000001
  0
VERTEX
  5
286
  8
MAIN
 10
13.77630648881607
 20
22.58474214695253
 30
0.0000000000000001
 42
-0.4142135623730944
  0
VERTEX
  5
287
  8
MAIN
 10
14.17230648881591
 20
22.98074214695268
 30
0.0000000000000001
  0
VERTEX
  5
288
  8
MAIN
 10
15.65630648881591
 20
22.9807421469532
 30
0.0000000000000001
  0
VERTEX
  5
289
  8
MAIN
 10
15.65630648881606
 20
22.58074214695321
 30
0.0000000000000004
  0
VERTEX
  5
28A
  8
MAIN
 10
15.15630648881608
 20
22.58074214695304
 30
0.0000000000000006
 42
0.9999999999999999
  0
VERTEX
  5
28B
  8
MAIN
 10
15.1563064888162
 20
22.20074214695304
 30
0.0000000000000006
  0
VERTEX
  5
28C
  8
MAIN
 10
15.65630648881621
 20
22.20074214695321
 30
0.0000000000000004
 42
0.2429577986670999
  0
VERTEX
  5
28D
  8
MAIN
 10
15.81122582266468
 20
22.28074214695355
 30
0.0000000000000004
  0
VERTEX
  5
28E
  8
MAIN
 10
17.17726860925049
 20
22.28074214695399
 30
0.0000000000000001
 42
-0.2618553124591128
  0
VERTEX
  5
28F
  8
MAIN
 10
15.94665693075075
 20
21.47611730455132
 30
0.0
  0
VERTEX
  5
290
  8
MAIN
 10
5.68682590098094
 20
20.78911426582726
 30
-0.0000000000000001
 42
0.3947634340953665
  0
VERTEX
  5
291
  8
MAIN
 10
3.820447261467583
 20
18.79358292505065
 30
-0.0000000000000002
  0
VERTEX
  5
292
  8
MAIN
 10
3.820447261467585
 20
9.167901368853263
 30
-0.0000000000000002
 42
0.3947634340953668
  0
VERTEX
  5
293
  8
MAIN
 10
5.68682590098094
 20
7.172370028076669
 30
-0.0000000000000001
  0
VERTEX
  5
294
  8
MAIN
 10
15.94665693075074
 20
6.485366989352605
 30
0.0
 42
-0.2618553124591125
  0
VERTEX
  5
295
  8
MAIN
 10
17.17726860925049
 20
5.680742146949923
 30
0.0000000000000001
  0
VERTEX
  5
296
  8
MAIN
 10
15.81122582266467
 20
5.680742146950385
 30
0.0000000000000004
 42
0.242957798667101
  0
VERTEX
  5
297
  8
MAIN
 10
15.6563064888162
 20
5.760742146950717
 30
0.0000000000000004
  0
VERTEX
  5
298
  8
MAIN
 10
15.15630648881622
 20
5.76074214695089
 30
0.0000000000000006
 42
0.9999999999999999
  0
VERTEX
  5
299
  8
MAIN
 10
15.15630648881606
 20
5.380742146950892
 30
0.0000000000000006
  0
VERTEX
  5
29A
  8
MAIN
 10
15.65630648881606
 20
5.380742146950722
 30
0.0000000000000004
  0
VERTEX
  5
29B
  8
MAIN
 10
15.65630648881591
 20
4.98074214695073
 30
0.0000000000000001
  0
VERTEX
  5
29C
  8
MAIN
 10
14.17230648881591
 20
4.980742146951243
 30
0.0000000000000001
 42
-0.4142135623730939
  0
VERTEX
  5
29D
  8
MAIN
 10
13.77630648881607
 20
5.376742146951399
 30
0.0000000000000001
  0
VERTEX
  5
29E
  8
MAIN
 10
13.77630648881615
 20
5.570742146951376
 30
0.0000000000000001
 42
0.4142135623731056
  0
VERTEX
  5
29F
  8
MAIN
 10
13.58630648881621
 20
5.760742146951442
 30
0.0000000000000001
  0
VERTEX
  5
2A0
  8
MAIN
 10
13.3312258226646
 20
5.76074214695153
 30
0.0000000000000001
 42
0.2429577986668551
  0
VERTEX
  5
2A1
  8
MAIN
 10
13.17630648881617
 20
5.680742146951458
 30
0.0000000000000001
  0
VERTEX
  5
2A2
  8
MAIN
 10
11.39778058788473
 20
5.680742146951841
 30
-0.0000000000000005
 42
-0.1989123673796618
  0
VERTEX
  5
2A3
  8
MAIN
 10
11.22100389258808
 20
5.753965451655182
 30
-0.0000000000000005
  0
VERTEX
  5
2A4
  8
MAIN
 10
11.05154240680044
 20
5.923426996701771
 30
-0.0000000000000005
 42
0.1989124128203621
  0
VERTEX
  5
2A5
  8
MAIN
 10
10.87476568059531
 20
5.996650332313633
 30
-0.0000000000000005
  0
VERTEX
  5
2A6
  8
MAIN
 10
8.482699945052305
 20
5.996650332313765
 30
-0.0000000000000005
 42
0.4142135623730834
  0
VERTEX
  5
2A7
  8
MAIN
 10
8.292699945052297
 20
5.806650332313778
 30
-0.0000000000000005
  0
VERTEX
  5
2A8
  8
MAIN
 10
8.292699945115144
 20
5.458512931435062
 30
-0.0000000000000005
 42
0.4142242154247778
  0
VERTEX
  5
2A9
  8
MAIN
 10
8.482699944989397
 20
5.268506020820253
 30
-0.0000000000000005
  0
VERTEX
  5
2AA
  8
MAIN
 10
10.28824112438082
 20
5.26850602081964
 30
0.0000000000000002
 42
0.4142135623730465
  0
VERTEX
  5
2AB
  8
MAIN
 10
10.47824112438086
 20
5.458506020819568
 30
0.0000000000000002
  0
VERTEX
  5
2AC
  8
MAIN
 10
10.47824112438089
 20
5.547771635545159
 30
-0.0000000000000001
  0
VERTEX
  5
2AD
  8
MAIN
 10
10.91727380659847
 20
5.377081450317013
 30
-0.0000000000000005
 42
-0.4142135623730951
  0
VERTEX
  5
2AE
  8
MAIN
 10
10.52102627442605
 20
4.98083391814488
 30
-0.0000000000000005
  0
VERTEX
  5
2AF
  8
MAIN
 10
8.336699943566005
 20
4.980833918145657
 30
-0.0000000000000005
 42
-0.4142063044982975
  0
VERTEX
  5
2B0
  8
MAIN
 10
8.004699945069651
 20
5.312839734457425
 30
0.0000000000000004
  0
VERTEX
  5
2B1
  8
MAIN
 10
8.004699945069824
 20
5.776650332312238
 30
0.0000000000000004
 42
0.414213562373096
  0
VERTEX
  5
2B2
  8
MAIN
 10
7.814699945069881
 20
5.966650332312303
 30
0.0000000000000004
  0
VERTEX
  5
2B3
  8
MAIN
 10
7.055667262852253
 20
5.966650332312568
 30
0.0000000000000004
 42
0.4142135623730955
  0
VERTEX
  5
2B4
  8
MAIN
 10
6.86566726285219
 20
5.776650332312633
 30
0.0000000000000004
  0
VERTEX
  5
2B5
  8
MAIN
 10
6.865667262852147
 20
5.680742146950946
 30
0.0000000000000004
  0
VERTEX
  5
2B6
  8
MAIN
 10
6.300586596700525
 20
5.680742146951268
 30
0.0000000000000001
 42
0.2429577986671019
  0
VERTEX
  5
2B7
  8
MAIN
 10
6.145667262852063
 20
5.760742146951598
 30
0.0000000000000001
  0
VERTEX
  5
2B8
  8
MAIN
 10
5.64566726285206
 20
5.760742146951771
 30
0.0000000000000003
 42
0.9999999999999999
  0
VERTEX
  5
2B9
  8
MAIN
 10
5.645667262851921
 20
5.380742146951773
 30
0.0000000000000003
  0
VERTEX
  5
2BA
  8
MAIN
 10
6.145667262851907
 20
5.380742146951603
 30
0.0000000000000001
  0
VERTEX
  5
2BB
  8
MAIN
 10
6.145667262851779
 20
4.980742146951611
 30
-0.0000000000000002
  0
VERTEX
  5
2BC
  8
MAIN
 10
4.66166726285176
 20
4.980742146952124
 30
-0.0000000000000002
 42
-0.4142135623730952
  0
VERTEX
  5
2BD
  8
MAIN
 10
4.265667262851911
 20
5.37674214695228
 30
-0.0000000000000002
  0
VERTEX
  5
2BE
  8
MAIN
 10
4.265667262851985
 20
5.57074214695226
 30
-0.0000000000000002
 42
0.4142135623731071
  0
VERTEX
  5
2BF
  8
MAIN
 10
4.075667262852042
 20
5.760742146952323
 30
-0.0000000000000002
  0
VERTEX
  5
2C0
  8
MAIN
 10
3.820586596700446
 20
5.760742146952411
 30
-0.0000000000000002
 42
0.2429577986668573
  0
VERTEX
  5
2C1
  8
MAIN
 10
3.665667262852017
 20
5.680742146952339
 30
-0.0000000000000002
  0
VERTEX
  5
2C2
  8
MAIN
 10
1.820447261466105
 20
5.680742146952324
 30
-0.0000000000000002
  0
VERTEX
  5
2C3
  8
MAIN
 10
1.820447261466105
 20
13.98074214695197
 30
0.0
  0
SEQEND
  5
2C4
  8
MAIN
  0
POLYLINE
  5
2C5
  8
MAIN
 66
     1
 10
0.0
 20
0.0
 30
0.0
  0
VERTEX
  5
2C6
  8
MAIN
 10
40.38196983271747
 20
26.89601171345944
 30
0.0
  0
VERTEX
  5
2C7
  8
MAIN
 10
40.17354626958027
 20
26.82558715574554
 30
0.0
 42
-0.3996375341441931
  0
VERTEX
  5
2C8
  8
MAIN
 10
39.92348608732874
 20
26.9416470767016
 30
0.0
  0
VERTEX
  5
2C9
  8
MAIN
 10
38.9945798651927
 20
26.62777752727571
 30
0.0
 42
-0.975297197739538
  0
VERTEX
  5
2CA
  8
MAIN
 10
38.61266380912781
 20
26.5092867531978
 30
0.0
  0
VERTEX
  5
2CB
  8
MAIN
 10
38.38858567094724
 20
27.17245263590708
 30
0.0
 42
-0.9752971977394195
  0
VERTEX
  5
2CC
  8
MAIN
 10
38.76409949449273
 20
27.30989100663382
 30
0.0
  0
VERTEX
  5
2CD
  8
MAIN
 10
39.69300571662893
 20
27.62376055605915
 30
0.0
 42
-0.3996375341442868
  0
VERTEX
  5
2CE
  8
MAIN
 10
39.82142348101102
 20
27.86770497143095
 30
0.0
  0
VERTEX
  5
2CF
  8
MAIN
 10
40.5405157363082
 20
28.11068015750169
 30
0.0
 42
-0.4142135623731586
  0
VERTEX
  5
2D0
  8
MAIN
 10
40.79401402799098
 20
27.98522651620779
 30
0.0
  0
VERTEX
  5
2D1
  8
MAIN
 10
41.01809216617136
 20
27.32206063349908
 30
0.0
 42
-0.4142135623731609
  0
VERTEX
  5
2D2
  8
MAIN
 10
40.89263852487744
 20
27.06856234181627
 30
0.0
  0
VERTEX
  5
2D3
  8
MAIN
 10
40.38196983271747
 20
26.89601171345944
 30
0.0
  0
SEQEND
  5
2D4
  8
MAIN
  0
POLYLINE
  5
2D5
  8
MAIN
 66
     1
 10
0.0
 20
0.0
 30
0.0
  0
VERTEX
  5
2D6
  8
MAIN
 10
44.86582807706156
 20
44.77042736353455
 30
0.0
  0
VERTEX
  5
2D7
  8
MAIN
 10
44.6844654443117
 20
44.77042753803458
 30
0.0
 42
0.4142144020973932
  0
VERTEX
  5
2D8
  8
MAIN
 10
44.48310298103019
 20
44.56906479227129
 30
0.0
  0
VERTEX
  5
2D9
  8
MAIN
 10
44.48310288768261
 20
44.37770244573862
 30
0.0
 42
0.4142138533540858
  0
VERTEX
  5
2DA
  8
MAIN
 10
44.68446553034221
 20
44.1763397048534
 30
0.0
  0
VERTEX
  5
2DB
  8
MAIN
 10
45.56582807706151
 20
44.17633970485342
 30
0.0
  0
VERTEX
  5
2DC
  8
MAIN
 10
45.56582807706154
 20
43.23952696686959
 30
0.0
  0
VERTEX
  5
2DD
  8
MAIN
 10
44.68446544048091
 20
43.23952715147026
 30
0.0
 42
0.4142144050902394
  0
VERTEX
  5
2DE
  8
MAIN
 10
44.48310298103021
 20
43.03816440814599
 30
0.0
  0
VERTEX
  5
2DF
  8
MAIN
 10
44.48310288768265
 20
42.84680206161333
 30
0.0
 42
0.4142138619189862
  0
VERTEX
  5
2E0
  8
MAIN
 10
44.68446553034225
 20
42.64543932316712
 30
0.0
  0
VERTEX
  5
2E1
  8
MAIN
 10
44.86582807706159
 20
42.64543932560616
 30
0.0
  0
VERTEX
  5
2E2
  8
MAIN
 10
44.86582807706156
 20
42.46378462710864
 30
0.0
  0
VERTEX
  5
2E3
  8
MAIN
 10
44.86582807706158
 20
42.28256816348025
 30
0.0
  0
VERTEX
  5
2E4
  8
MAIN
 10
44.68446544431175
 20
42.2825683404193
 30
0.0
 42
0.4142144020974078
  0
VERTEX
  5
2E5
  8
MAIN
 10
44.48310298103024
 20
42.08120559465601
 30
0.0
  0
VERTEX
  5
2E6
  8
MAIN
 10
44.48310288768266
 20
41.88984324812334
 30
0.0
 42
0.4142138533541004
  0
VERTEX
  5
2E7
  8
MAIN
 10
44.68446553034227
 20
41.68848050723813
 30
0.0
  0
VERTEX
  5
2E8
  8
MAIN
 10
45.56582807706157
 20
41.68848050723814
 30
0.0
  0
VERTEX
  5
2E9
  8
MAIN
 10
45.5658280770616
 20
40.75166776925431
 30
0.0
  0
VERTEX
  5
2EA
  8
MAIN
 10
44.68446544048096
 20
40.75166795385498
 30
0.0
 42
0.4142144050902394
  0
VERTEX
  5
2EB
  8
MAIN
 10
44.48310298103027
 20
40.55030521053071
 30
0.0
  0
VERTEX
  5
2EC
  8
MAIN
 10
44.4831028876827
 20
40.35894286399805
 30
0.0
 42
0.4142138533540834
  0
VERTEX
  5
2ED
  8
MAIN
 10
44.68446553034229
 20
40.15758012311282
 30
0.0
  0
VERTEX
  5
2EE
  8
MAIN
 10
44.86582807706162
 20
40.15758012555186
 30
0.0
  0
VERTEX
  5
2EF
  8
MAIN
 10
44.86582807706164
 20
39.79470896586497
 30
0.0
  0
VERTEX
  5
2F0
  8
MAIN
 10
44.68446544431178
 20
39.794709140365
 30
0.0
 42
0.4142144106622657
  0
VERTEX
  5
2F1
  8
MAIN
 10
44.4831029810303
 20
39.59334639704073
 30
0.0
  0
VERTEX
  5
2F2
  8
MAIN
 10
44.48310288768272
 20
39.40198405050806
 30
0.0
 42
0.4142138533541004
  0
VERTEX
  5
2F3
  8
MAIN
 10
44.68446553034232
 20
39.20062130962285
 30
0.0
  0
VERTEX
  5
2F4
  8
MAIN
 10
45.56582807706162
 20
39.20062130962286
 30
0.0
  0
VERTEX
  5
2F5
  8
MAIN
 10
45.56582807706165
 20
38.26380857163903
 30
0.0
  0
VERTEX
  5
2F6
  8
MAIN
 10
44.68446544048102
 20
38.2638087562397
 30
0.0
 42
0.4142144050901835
  0
VERTEX
  5
2F7
  8
MAIN
 10
44.48310298103033
 20
38.06244601291543
 30
0.0
  0
VERTEX
  5
2F8
  8
MAIN
 10
44.48310288768276
 20
37.87108366638277
 30
0.0
 42
0.4142138619190154
  0
VERTEX
  5
2F9
  8
MAIN
 10
44.68446553034237
 20
37.66972092793657
 30
0.0
  0
VERTEX
  5
2FA
  8
MAIN
 10
44.86582807706168
 20
37.66972092793658
 30
0.0
  0
VERTEX
  5
2FB
  8
MAIN
 10
44.86582807706169
 20
37.30684976824969
 30
0.0
  0
VERTEX
  5
2FC
  8
MAIN
 10
44.68446544431187
 20
37.30684994518874
 30
0.0
 42
0.4142144020974347
  0
VERTEX
  5
2FD
  8
MAIN
 10
44.48310298103036
 20
37.10548719942545
 30
0.0
  0
VERTEX
  5
2FE
  8
MAIN
 10
44.48310288768278
 20
36.91412485289278
 30
0.0
 42
0.4142138533541004
  0
VERTEX
  5
2FF
  8
MAIN
 10
44.68446553034238
 20
36.71276211200757
 30
0.0
  0
VERTEX
  5
300
  8
MAIN
 10
45.56582807706168
 20
36.71276211200758
 30
0.0
  0
VERTEX
  5
301
  8
MAIN
 10
45.56582807706171
 20
35.77594937402375
 30
0.0
  0
VERTEX
  5
302
  8
MAIN
 10
44.68446544048108
 20
35.77594955862442
 30
0.0
 42
0.4142144050902661
  0
VERTEX
  5
303
  8
MAIN
 10
44.48310298103038
 20
35.57458681530015
 30
0.0
  0
VERTEX
  5
304
  8
MAIN
 10
44.48310288768282
 20
35.38322446876749
 30
0.0
 42
0.4142138619189862
  0
VERTEX
  5
305
  8
MAIN
 10
44.68446553034242
 20
35.18186173032129
 30
0.0
  0
VERTEX
  5
306
  8
MAIN
 10
44.86582807706174
 20
35.1818617303213
 30
0.0
  0
VERTEX
  5
307
  8
MAIN
 10
44.86582807706175
 20
34.81899057063441
 30
0.0
  0
VERTEX
  5
308
  8
MAIN
 10
44.68446544431193
 20
34.81899074757347
 30
0.0
 42
0.4142144020974139
  0
VERTEX
  5
309
  8
MAIN
 10
44.48310298103041
 20
34.61762800181017
 30
0.0
  0
VERTEX
  5
30A
  8
MAIN
 10
44.48310288768283
 20
34.4262656552775
 30
0.0
 42
0.4142138533541004
  0
VERTEX
  5
30B
  8
MAIN
 10
44.68446553034244
 20
34.22490291439229
 30
0.0
  0
VERTEX
  5
30C
  8
MAIN
 10
45.56582807706174
 20
34.2249029143923
 30
0.0
  0
VERTEX
  5
30D
  8
MAIN
 10
45.56582807706177
 20
33.28809017640847
 30
0.0
  0
VERTEX
  5
30E
  8
MAIN
 10
44.68446544048113
 20
33.28809036100914
 30
0.0
 42
0.4142144050902454
  0
VERTEX
  5
30F
  8
MAIN
 10
44.48310298103044
 20
33.08672761768487
 30
0.0
  0
VERTEX
  5
310
  8
MAIN
 10
44.48310288768288
 20
32.89536527115222
 30
0.0
 42
0.4142138533540773
  0
VERTEX
  5
311
  8
MAIN
 10
44.68446553034246
 20
32.69400253026699
 30
0.0
  0
VERTEX
  5
312
  8
MAIN
 10
44.86582807706178
 20
32.69400253026699
 30
0.0
  0
VERTEX
  5
313
  8
MAIN
 10
44.86582807706181
 20
32.33113137301913
 30
0.0
  0
VERTEX
  5
314
  8
MAIN
 10
44.68446544431195
 20
32.33113154751916
 30
0.0
 42
0.4142144106622658
  0
VERTEX
  5
315
  8
MAIN
 10
44.48310298103047
 20
32.1297688041949
 30
0.0
  0
VERTEX
  5
316
  8
MAIN
 10
44.48310288768289
 20
31.93840645766223
 30
0.0
 42
0.4142138533540828
  0
VERTEX
  5
317
  8
MAIN
 10
44.68446553034249
 20
31.73704371677701
 30
0.0
  0
VERTEX
  5
318
  8
MAIN
 10
45.56582807706179
 20
31.73704371677702
 30
0.0
  0
VERTEX
  5
319
  8
MAIN
 10
45.56582807706182
 20
30.80023097879318
 30
0.0
  0
VERTEX
  5
31A
  8
MAIN
 10
44.68446544048119
 20
30.80023116339386
 30
0.0
 42
0.4142144050902528
  0
VERTEX
  5
31B
  8
MAIN
 10
44.4831029810305
 20
30.59886842006959
 30
0.0
  0
VERTEX
  5
31C
  8
MAIN
 10
44.48310288768293
 20
30.40750607353694
 30
0.0
  0
SEQEND
  5
31D
  8
MAIN
  0
POLYLINE
  5
31E
  8
MAIN
 66
     1
 10
0.0
 20
0.0
 30
0.0
  0
VERTEX
  5
31F
  8
MAIN
 10
36.26488399527323
 20
15.64903519527353
 30
0.0
  0
VERTEX
  5
320
  8
MAIN
 10
37.16472648250429
 20
15.66587259928556
 30
0.0
  0
VERTEX
  5
321
  8
MAIN
 10
37.15125655929466
 20
16.3857465890704
 30
0.0
  0
VERTEX
  5
322
  8
MAIN
 10
36.2514140720636
 20
16.36890918505835
 30
0.0
  0
VERTEX
  5
323
  8
MAIN
 10
36.26488399527323
 20
15.64903519527353
 30
0.0
  0
SEQEND
  5
324
  8
MAIN
  0
POLYLINE
  5
325
  8
MAIN
 66
     1
 10
0.0
 20
0.0
 30
0.0
  0
VERTEX
  5
326
  8
MAIN
 10
38.31711263076954
 20
15.49740221586296
 30
0.0
  0
VERTEX
  5
327
  8
MAIN
 10
37.15828279571537
 20
15.47571876971444
 30
0.0
 42
-0.4142135623731369
  0
VERTEX
  5
328
  8
MAIN
 10
36.9545761532169
 20
15.67194212154089
 30
0.0
  0
VERTEX
  5
329
  8
MAIN
 10
36.94148039470094
 20
16.37181960305519
 30
0.0
 42
-0.4142135749026956
  0
VERTEX
  5
32A
  8
MAIN
 10
37.13770373802691
 20
16.57552625395186
 30
0.0
  0
VERTEX
  5
32B
  8
MAIN
 10
38.29653358142149
 20
16.59720970025642
 30
0.0
 42
-0.4142135623731065
  0
VERTEX
  5
32C
  8
MAIN
 10
38.50024022391994
 20
16.40098634842999
 30
0.0
  0
VERTEX
  5
32D
  8
MAIN
 10
38.51333598259597
 20
15.70110885836142
 30
0.0
 42
-0.4142135623731331
  0
VERTEX
  5
32E
  8
MAIN
 10
38.31711263076954
 20
15.49740221586295
 30
0.0
  0
SEQEND
  5
32F
  8
MAIN
  0
POLYLINE
  5
330
  8
MAIN
 66
     1
 10
0.0
 20
0.0
 30
0.0
  0
VERTEX
  5
331
  8
MAIN
 10
4.44209188850607
 20
26.88086537040514
 30
0.0
 42
0.0321936743204397
  0
VERTEX
  5
332
  8
MAIN
 10
3.689121873790539
 20
27.05052922606731
 30
0.0
  0
VERTEX
  5
333
  8
MAIN
 10
2.411987354741966
 20
27.25304329123438
 30
0.0
 42
-0.6075940379749308
  0
VERTEX
  5
334
  8
MAIN
 10
2.383936436422408
 20
27.3372474888433
 30
0.0
  0
VERTEX
  5
335
  8
MAIN
 10
2.897278441228387
 20
27.86622183668188
 30
0.0
 42
-0.3473293232229835
  0
VERTEX
  5
336
  8
MAIN
 10
3.266265580999022
 20
27.91514072930516
 30
0.0
 42
1.255343388591411
  0
VERTEX
  5
337
  8
MAIN
 10
3.864571812336691
 20
29.77062317181232
 30
0.0
 42
-0.3843150355143536
  0
VERTEX
  5
338
  8
MAIN
 10
3.51743580530403
 20
30.14286011166595
 30
0.0
  0
VERTEX
  5
339
  8
MAIN
 10
3.516897112316971
 20
30.40750607403132
 30
0.0
 42
0.4142139861663092
  0
VERTEX
  5
33A
  8
MAIN
 10
3.315534559518708
 20
30.60886862269528
 30
0.0
  0
VERTEX
  5
33B
  8
MAIN
 10
2.434171922938104
 20
30.60886843809463
 30
0.0
  0
VERTEX
  5
33C
  8
MAIN
 10
2.434171922938118
 20
31.92840627210977
 30
0.0
  0
VERTEX
  5
33D
  8
MAIN
 10
3.31553446965742
 20
31.92840627210977
 30
0.0
 42
0.9999997928171683
  0
VERTEX
  5
33E
  8
MAIN
 10
3.315534555687945
 20
32.33113155483625
 30
0.0
  0
VERTEX
  5
33F
  8
MAIN
 10
3.134171922938149
 20
32.33113137545817
 30
0.0
  0
VERTEX
  5
340
  8
MAIN
 10
3.134171922938163
 20
32.51234783908656
 30
0.0
  0
VERTEX
  5
341
  8
MAIN
 10
3.134171922938135
 20
32.69400253758408
 30
0.0
  0
VERTEX
  5
342
  8
MAIN
 10
3.315534469657463
 20
32.69400253758408
 30
0.0
 42
0.9999997833049531
  0
VERTEX
  5
343
  8
MAIN
 10
3.315534559518765
 20
33.09672782031056
 30
0.0
  0
VERTEX
  5
344
  8
MAIN
 10
2.434171922938161
 20
33.09672763570991
 30
0.0
  0
VERTEX
  5
345
  8
MAIN
 10
2.434171922938175
 20
34.41626546972505
 30
0.0
  0
VERTEX
  5
346
  8
MAIN
 10
3.315534469657477
 20
34.41626546972505
 30
0.0
 42
0.9999997988733951
  0
VERTEX
  5
347
  8
MAIN
 10
3.31553455568803
 20
34.8189907500125
 30
0.0
  0
VERTEX
  5
348
  8
MAIN
 10
3.134171922938206
 20
34.81899057307345
 30
0.0
  0
VERTEX
  5
349
  8
MAIN
 10
3.13417192293822
 20
35.18186173276034
 30
0.0
  0
VERTEX
  5
34A
  8
MAIN
 10
3.315534469657534
 20
35.18186173276032
 30
0.0
 42
0.9999997772486074
  0
VERTEX
  5
34B
  8
MAIN
 10
3.315534559518822
 20
35.58458701792584
 30
0.0
  0
VERTEX
  5
34C
  8
MAIN
 10
2.434171922938217
 20
35.58458683332519
 30
0.0
  0
VERTEX
  5
34D
  8
MAIN
 10
2.434171922938232
 20
36.90412466734033
 30
0.0
  0
VERTEX
  5
34E
  8
MAIN
 10
3.315534469657534
 20
36.90412466734033
 30
0.0
 42
0.9999997988733882
  0
VERTEX
  5
34F
  8
MAIN
 10
3.315534555688087
 20
37.30684994762778
 30
0.0
  0
VERTEX
  5
350
  8
MAIN
 10
3.134171922938263
 20
37.30684977068873
 30
0.0
  0
VERTEX
  5
351
  8
MAIN
 10
3.134171922938277
 20
37.66972093037562
 30
0.0
  0
VERTEX
  5
352
  8
MAIN
 10
3.315534469657591
 20
37.6697209303756
 30
0.0
 42
0.9999997772486074
  0
VERTEX
  5
353
  8
MAIN
 10
3.315534559518879
 20
38.07244621554112
 30
0.0
  0
VERTEX
  5
354
  8
MAIN
 10
2.434171922938274
 20
38.07244603094047
 30
0.0
  0
VERTEX
  5
355
  8
MAIN
 10
2.434171922938289
 20
39.39198386495561
 30
0.0
  0
VERTEX
  5
356
  8
MAIN
 10
3.315534469657591
 20
39.39198386495561
 30
0.0
 42
0.9999997928171817
  0
VERTEX
  5
357
  8
MAIN
 10
3.315534555688116
 20
39.79470914768208
 30
0.0
  0
VERTEX
  5
358
  8
MAIN
 10
3.13417192293832
 20
39.79470896830401
 30
0.0
  0
VERTEX
  5
359
  8
MAIN
 10
3.134171922938334
 20
40.1575801279909
 30
0.0
  0
VERTEX
  5
35A
  8
MAIN
 10
3.315534469657633
 20
40.15758013042992
 30
0.0
 42
0.9999997833049775
  0
VERTEX
  5
35B
  8
MAIN
 10
3.315534559518936
 20
40.5603054131564
 30
0.0
  0
VERTEX
  5
35C
  8
MAIN
 10
2.434171922938331
 20
40.56030522855575
 30
0.0
  0
VERTEX
  5
35D
  8
MAIN
 10
2.434171922938345
 20
41.87984306257088
 30
0.0
  0
VERTEX
  5
35E
  8
MAIN
 10
3.315534469657647
 20
41.87984306257088
 30
0.0
 42
0.9999997988734037
  0
VERTEX
  5
35F
  8
MAIN
 10
3.315534555688201
 20
42.28256834285834
 30
0.0
  0
VERTEX
  5
360
  8
MAIN
 10
3.134171922938377
 20
42.28256816591929
 30
0.0
  0
VERTEX
  5
361
  8
MAIN
 10
3.134171922938419
 20
42.64543932316714
 30
0.0
  0
VERTEX
  5
362
  8
MAIN
 10
3.315534469657704
 20
42.64543932560616
 30
0.0
 42
0.9999997772486012
  0
VERTEX
  5
363
  8
MAIN
 10
3.315534559518992
 20
43.04816461077168
 30
0.0
  0
VERTEX
  5
364
  8
MAIN
 10
2.434171922938388
 20
43.04816442617103
 30
0.0
  0
VERTEX
  5
365
  8
MAIN
 10
2.434171922938402
 20
44.36770226018616
 30
0.0
  0
VERTEX
  5
366
  8
MAIN
 10
3.315534469657704
 20
44.36770226018616
 30
0.0
 42
0.9999997988733929
  0
VERTEX
  5
367
  8
MAIN
 10
3.315534555688258
 20
44.77042754047362
 30
0.0
  0
VERTEX
  5
368
  8
MAIN
 10
3.134171922938476
 20
44.77042736109553
 30
0.0
  0
VERTEX
  5
369
  8
MAIN
 10
3.133783903341332
 20
44.83858685081417
 30
0.0
 42
-0.4033390311747863
  0
VERTEX
  5
36A
  8
MAIN
 10
3.61514162067226
 20
45.3382507041305
 30
0.0
  0
VERTEX
  5
36B
  8
MAIN
 10
20.05201655709037
 20
45.95152018027037
 30
0.0
 42
-0.4511231803625134
  0
VERTEX
  5
36C
  8
MAIN
 10
20.15536628299462
 20
45.84289463873786
 30
0.0
  0
VERTEX
  5
36D
  8
MAIN
 10
19.99138170082436
 20
43.96411162020389
 30
0.0
 42
-0.3559606383335644
  0
VERTEX
  5
36E
  8
MAIN
 10
19.90331788463865
 20
43.87347703744338
 30
0.0
  0
VERTEX
  5
36F
  8
MAIN
 10
7.195027801902794
 20
42.39481718882229
 30
0.0
 42
0.3682998929707553
  0
VERTEX
  5
370
  8
MAIN
 10
5.428062035334959
 20
40.49504901128621
 30
0.0
  0
VERTEX
  5
371
  8
MAIN
 10
5.03598703150192
 20
31.47266224720299
 30
0.0
 42
0.322818626886877
  0
VERTEX
  5
372
  8
MAIN
 10
6.319839806741212
 20
29.51772362238403
 30
0.0
  0
VERTEX
  5
373
  8
MAIN
 10
18.2592075011886
 20
24.95276980268128
 30
0.0
 42
-0.3349063385097102
  0
VERTEX
  5
374
  8
MAIN
 10
18.3231156917599
 20
24.85066932734906
 30
0.0
  0
VERTEX
  5
375
  8
MAIN
 10
18.15915684108422
 20
22.97218111637696
 30
0.0
 42
-0.4737540730853286
  0
VERTEX
  5
376
  8
MAIN
 10
18.03132480273558
 20
22.88493802312236
 30
0.0
  0
VERTEX
  5
377
  8
MAIN
 10
4.442091888506061
 20
26.88086537040513
 30
0.0
  0
SEQEND
  5
378
  8
MAIN
  0
POLYLINE
  5
379
  8
MAIN
 66
     1
 10
0.0
 20
0.0
 30
0.0
  0
VERTEX
  5
37A
  8
MAIN
 10
15.42766285926667
 20
25.41865820858041
 30
0.0
  0
VERTEX
  5
37B
  8
MAIN
 10
14.32961867099281
 20
25.78967804504005
 30
0.0
 42
0.4142135623731343
  0
VERTEX
  5
37C
  8
MAIN
 10
14.07612037931
 20
25.66422440374612
 30
0.0
  0
VERTEX
  5
37D
  8
MAIN
 10
13.85204224386825
 20
25.00105852914244
 30
0.0
 42
0.4142135749026549
  0
VERTEX
  5
37E
  8
MAIN
 10
13.97749587452044
 20
24.74756023202442
 30
0.0
  0
VERTEX
  5
37F
  8
MAIN
 10
15.07554007069726
 20
24.37654039289447
 30
0.0
 42
0.4142135623731171
  0
VERTEX
  5
380
  8
MAIN
 10
15.32903836238004
 20
24.50199403418837
 30
0.0
  0
VERTEX
  5
381
  8
MAIN
 10
15.55311650056058
 20
25.16515991689762
 30
0.0
 42
0.414213562373174
  0
VERTEX
  5
382
  8
MAIN
 10
15.42766285926667
 20
25.41865820858042
 30
0.0
  0
SEQEND
  5
383
  8
MAIN
  0
POLYLINE
  5
384
  8
MAIN
 66
     1
 10
0.0
 20
0.0
 30
0.0
  0
VERTEX
  5
385
  8
MAIN
 10
41.53499303920086
 20
16.65814550188394
 30
0.0
 42
0.4142135623731121
  0
VERTEX
  5
386
  8
MAIN
 10
41.33876968737442
 20
16.45443885938547
 30
0.0
  0
VERTEX
  5
387
  8
MAIN
 10
41.35186544605045
 20
15.75456136931688
 30
0.0
 42
0.4142135623730676
  0
VERTEX
  5
388
  8
MAIN
 10
41.55557208854891
 20
15.55833801749042
 30
0.0
  0
VERTEX
  5
389
  8
MAIN
 10
42.05548458145504
 20
15.56769213083043
 30
0.0
 42
0.4142135623730251
  0
VERTEX
  5
38A
  8
MAIN
 10
42.25170793328149
 20
15.7713987733289
 30
0.0
  0
VERTEX
  5
38B
  8
MAIN
 10
42.23861217460544
 20
16.47127626339752
 30
0.0
 42
0.4142135623731193
  0
VERTEX
  5
38C
  8
MAIN
 10
42.03490553210698
 20
16.66749961522395
 30
0.0
  0
VERTEX
  5
38D
  8
MAIN
 10
41.53499303920086
 20
16.65814550188394
 30
0.0
  0
SEQEND
  5
38E
  8
MAIN
  0
POLYLINE
  5
38F
  8
MAIN
 66
     1
 10
0.0
 20
0.0
 30
0.0
  0
VERTEX
  5
390
  8
MAIN
 10
13.43812445621983
 20
44.96182043581861
 30
0.0
  0
VERTEX
  5
391
  8
MAIN
 10
12.28248719520633
 20
44.87316785883554
 30
0.0
 42
0.4142135623730903
  0
VERTEX
  5
392
  8
MAIN
 10
12.09837078496171
 20
44.65845608114591
 30
0.0
  0
VERTEX
  5
393
  8
MAIN
 10
12.15191267733606
 20
43.9605067607917
 30
0.0
 42
0.4142135749026158
  0
VERTEX
  5
394
  8
MAIN
 10
12.3666244473627
 20
43.77639034137835
 30
0.0
  0
VERTEX
  5
395
  8
MAIN
 10
13.52226171669363
 20
43.86504291899948
 30
0.0
 42
0.4142135623730198
  0
VERTEX
  5
396
  8
MAIN
 10
13.70637812693825
 20
44.07975469668909
 30
0.0
  0
VERTEX
  5
397
  8
MAIN
 10
13.65283623390947
 20
44.777704025574
 30
0.0
 42
0.4142135623731389
  0
VERTEX
  5
398
  8
MAIN
 10
13.43812445621983
 20
44.96182043581862
 30
0.0
  0
SEQEND
  5
399
  8
MAIN
  0
POLYLINE
  5
39A
  8
MAIN
 66
     1
 10
0.0
 20
0.0
 30
0.0
  0
VERTEX
  5
39B
  8
MAIN
 10
16.75183150774318
 20
44.11245309732878
 30
0.0
 42
-0.4142135623731267
  0
VERTEX
  5
39C
  8
MAIN
 10
16.53711973005354
 20
44.29656950757339
 30
0.0
  0
VERTEX
  5
39D
  8
MAIN
 10
16.48357783702478
 20
44.99451883645833
 30
0.0
 42
-0.4142135623731306
  0
VERTEX
  5
39E
  8
MAIN
 10
16.66769424726936
 20
45.20923061414796
 30
0.0
  0
VERTEX
  5
39F
  8
MAIN
 10
17.16622948218716
 20
45.24747482345421
 30
0.0
 42
-0.4142135623731715
  0
VERTEX
  5
3A0
  8
MAIN
 10
17.38094125987678
 20
45.0633584132096
 30
0.0
  0
VERTEX
  5
3A1
  8
MAIN
 10
17.43448315290559
 20
44.36540908432468
 30
0.0
 42
-0.4142135623730911
  0
VERTEX
  5
3A2
  8
MAIN
 10
17.25036674266096
 20
44.15069730663507
 30
0.0
  0
VERTEX
  5
3A3
  8
MAIN
 10
16.75183150774318
 20
44.11245309732878
 30
0.0
  0
SEQEND
  5
3A4
  8
MAIN
  0
POLYLINE
  5
3A5
  8
MAIN
 66
     1
 10
0.0
 20
0.0
 30
0.0
  0
VERTEX
  5
3A6
  8
MAIN
 10
39.93527306190125
 20
16.62821233919586
 30
0.0
  0
VERTEX
  5
3A7
  8
MAIN
 10
40.15523455877995
 20
16.63232814906549
 30
0.0
 42
-0.399637534144302
  0
VERTEX
  5
3A8
  8
MAIN
 10
40.35850400634691
 20
16.44609836711367
 30
0.0
  0
VERTEX
  5
3A9
  8
MAIN
 10
41.33883271777232
 20
16.4644417892271
 30
0.0
 42
-0.9752971977394973
  0
VERTEX
  5
3AA
  8
MAIN
 10
41.73869968169932
 20
16.46192215005748
 30
0.0
  0
VERTEX
  5
3AB
  8
MAIN
 10
41.75179544037537
 20
15.7620446599889
 30
0.0
 42
-0.9752971977394905
  0
VERTEX
  5
3AC
  8
MAIN
 10
41.35230264098194
 20
15.74456779944224
 30
0.0
  0
VERTEX
  5
3AD
  8
MAIN
 10
40.37197392955653
 20
15.7262243773294
 30
0.0
 42
-0.3996375341442906
  0
VERTEX
  5
3AE
  8
MAIN
 10
40.17581360812797
 20
15.53252066467257
 30
0.0
  0
VERTEX
  5
3AF
  8
MAIN
 10
39.4169137673987
 20
15.51832050919608
 30
0.0
 42
-0.4142135623731407
  0
VERTEX
  5
3B0
  8
MAIN
 10
39.21320712490024
 20
15.71454386102251
 30
0.0
  0
VERTEX
  5
3B1
  8
MAIN
 10
39.20011136622423
 20
16.41442135109053
 30
0.0
 42
-0.4142135623731524
  0
VERTEX
  5
3B2
  8
MAIN
 10
39.39633471805067
 20
16.61812799358898
 30
0.0
  0
VERTEX
  5
3B3
  8
MAIN
 10
39.93527306190125
 20
16.62821233919586
 30
0.0
  0
SEQEND
  5
3B4
  8
MAIN
  0
POLYLINE
  5
3B5
  8
MAIN
 66
     1
 10
0.0
 20
0.0
 30
0.0
  0
VERTEX
  5
3B6
  8
MAIN
 10
13.42562941118488
 20
25.89457522399137
 30
0.0
  0
VERTEX
  5
3B7
  8
MAIN
 10
14.2782712603825
 20
25.60647476061638
 30
0.0
  0
VERTEX
  5
3B8
  8
MAIN
 10
14.04779088968251
 20
24.9243612812583
 30
0.0
  0
VERTEX
  5
3B9
  8
MAIN
 10
13.19514904048488
 20
25.2124617446333
 30
0.0
  0
VERTEX
  5
3BA
  8
MAIN
 10
13.42562941118488
 20
25.89457522399137
 30
0.0
  0
SEQEND
  5
3BB
  8
MAIN
  0
POLYLINE
  5
3BC
  8
MAIN
 66
     1
 10
0.0
 20
0.0
 30
0.0
  0
VERTEX
  5
3BD
  8
MAIN
 10
21.14663136863563
 20
10.65387658328703
 30
0.0
  0
VERTEX
  5
3BE
  8
MAIN
 10
21.14663136863564
 20
3.403876562764704
 30
0.0
 42
1.000000324003893
  0
VERTEX
  5
3BF
  8
MAIN
 10
21.84663136863556
 20
3.403876830614205
 30
-0.0000000000000002
  0
VERTEX
  5
3C0
  8
MAIN
 10
21.84663136863556
 20
17.90387633595985
 30
-0.0000000000000002
 42
1.000000324003896
  0
VERTEX
  5
3C1
  8
MAIN
 10
21.14663136863563
 20
17.90387660380935
 30
0.0
  0
VERTEX
  5
3C2
  8
MAIN
 10
21.14663136863563
 20
10.65387658328703
 30
0.0
  0
SEQEND
  5
3C3
  8
MAIN
  0
POLYLINE
  5
3C4
  8
MAIN
 66
     1
 10
0.0
 20
0.0
 30
0.0
  0
VERTEX
  5
3C5
  8
MAIN
 10
19.74663136863084
 20
10.65387658328703
 30
0.0
  0
VERTEX
  5
3C6
  8
MAIN
 10
19.74663136863323
 20
7.203876583287433
 30
0.0
 42
0.9999999999999923
  0
VERTEX
  5
3C7
  8
MAIN
 10
20.44663136863324
 20
7.203876583287435
 30
0.0
  0
VERTEX
  5
3C8
  8
MAIN
 10
20.44663136863323
 20
14.10387658328663
 30
0.0
 42
0.999999999999995
  0
VERTEX
  5
3C9
  8
MAIN
 10
19.74663136863322
 20
14.10387658328662
 30
0.0
  0
VERTEX
  5
3CA
  8
MAIN
 10
19.74663136863084
 20
10.65387658328703
 30
0.0
  0
SEQEND
  5
3CB
  8
MAIN
  0
POLYLINE
  5
3CC
  8
MAIN
 66
     1
 10
0.0
 20
0.0
 30
0.0
  0
VERTEX
  5
3CD
  8
MAIN
 10
18.34663136863563
 20
10.65387658328703
 30
0.0
  0
VERTEX
  5
3CE
  8
MAIN
 10
18.34663136863091
 20
3.403876830614201
 30
-0.0000000000000002
 42
1.000000324003893
  0
VERTEX
  5
3CF
  8
MAIN
 10
19.04663136863083
 20
3.403876562764705
 30
0.0
  0
VERTEX
  5
3D0
  8
MAIN
 10
19.04663136863083
 20
17.90387660380935
 30
0.0
 42
1.000000324003896
  0
VERTEX
  5
3D1
  8
MAIN
 10
18.34663136863092
 20
17.90387633595985
 30
-0.0000000000000002
  0
VERTEX
  5
3D2
  8
MAIN
 10
18.34663136863563
 20
10.65387658328703
 30
0.0
  0
SEQEND
  5
3D3
  8
MAIN
  0
POLYLINE
  5
3D4
  8
MAIN
 66
     1
 10
0.0
 20
0.0
 30
0.0
  0
VERTEX
  5
3D5
  8
MAIN
 10
37.16837986033541
 20
2.168467998682827
 30
0.0
  0
VERTEX
  5
3D6
  8
MAIN
 10
37.16838004700207
 20
2.545209823287029
 30
0.0
 42
-0.1719819699448232
  0
VERTEX
  5
3D7
  8
MAIN
 10
37.39160230033541
 20
3.174984649938158
 30
-0.0000000000000071
 42
0.0276158701505892
  0
VERTEX
  5
3D8
  8
MAIN
 10
37.52095467504036
 20
3.353876583287038
 30
-0.0000000000000051
  0
VERTEX
  5
3D9
  8
MAIN
 10
37.66797035374127
 20
3.553929204965497
 30
-0.0000000000000014
  0
VERTEX
  5
3DA
  8
MAIN
 10
38.77701055261166
 20
3.554326166413828
 30
0.0
  0
VERTEX
  5
3DB
  8
MAIN
 10
38.77701055261166
 20
2.153876583287028
 30
0.0
  0
VERTEX
  5
3DC
  8
MAIN
 10
37.16837986033541
 20
2.153876583287028
 30
0.0
  0
VERTEX
  5
3DD
  8
MAIN
 10
37.16837986033541
 20
2.353876583287024
 30
0.0
  0
SEQEND
  5
3DE
  8
MAIN
  0
POLYLINE
  5
3DF
  8
MAIN
 66
     1
 10
0.0
 20
0.0
 30
0.0
  0
VERTEX
  5
3E0
  8
MAIN
 10
44.54152022956223
 20
14.97500957688984
 30
0.0
  0
VERTEX
  5
3E1
  8
MAIN
 10
44.54449167737243
 20
14.98283493794778
 30
0.0
  0
VERTEX
  5
3E2
  8
MAIN
 10
44.54765123345646
 20
14.99065615382358
 30
0.0
  0
VERTEX
  5
3E3
  8
MAIN
 10
44.55100083051877
 20
14.9984671612255
 30
0.0
  0
VERTEX
  5
3E4
  8
MAIN
 10
44.55454216810445
 20
15.00626172763824
 30
0.0
  0
VERTEX
  5
3E5
  8
MAIN
 10
44.55827669941428
 20
15.01403346101396
 30
0.0
  0
VERTEX
  5
3E6
  8
MAIN
 10
44.56220561848846
 20
15.02177582051934
 30
0.0
  0
VERTEX
  5
3E7
  8
MAIN
 10
44.56632984784863
 20
15.0294821283341
 30
0.0
  0
VERTEX
  5
3E8
  8
MAIN
 10
44.57065002668936
 20
15.03714558248868
 30
0.0
  0
VERTEX
  5
3E9
  8
MAIN
 10
44.57516649971149
 20
15.04475927072034
 30
0.0
  0
VERTEX
  5
3EA
  8
MAIN
 10
44.57987930669015
 20
15.05231618531802
 30
0.0
  0
VERTEX
  5
3EB
  8
MAIN
 10
44.58478817286927
 20
15.05980923891751
 30
0.0
  0
VERTEX
  5
3EC
  8
MAIN
 10
44.58989250027356
 20
15.06723128119934
 30
0.0
  0
VERTEX
  5
3ED
  8
MAIN
 10
44.59519136002553
 20
15.07457511643238
 30
0.0
  0
VERTEX
  5
3EE
  8
MAIN
 10
44.60068348575265
 20
15.08183352179737
 30
0.0
  0
VERTEX
  5
3EF
  8
MAIN
 10
44.60636726816434
 20
15.08899926641533
 30
0.0
  0
VERTEX
  5
3F0
  8
MAIN
 10
44.61224075087362
 20
15.09606513099719
 30
0.0
  0
VERTEX
  5
3F1
  8
MAIN
 10
44.61830162753134
 20
15.10302392802292
 30
0.0
  0
VERTEX
  5
3F2
  8
MAIN
 10
44.62454724033367
 20
15.10986852235045
 30
0.0
  0
VERTEX
  5
3F3
  8
MAIN
 10
44.63097457995481
 20
15.11659185214778
 30
0.0
  0
VERTEX
  5
3F4
  8
MAIN
 10
44.63758028694794
 20
15.12318695003544
 30
0.0
  0
VERTEX
  5
3F5
  8
MAIN
 10
44.64436065464707
 20
15.12964696432087
 30
0.0
  0
VERTEX
  5
3F6
  8
MAIN
 10
44.65131163359178
 20
15.1359651802022
 30
0.0
  0
VERTEX
  5
3F7
  8
MAIN
 10
44.65842883748549
 20
15.14213504081543
 30
0.0
  0
VERTEX
  5
3F8
  8
MAIN
 10
44.66570755068615
 20
15.148150167997
 30
0.0
  0
VERTEX
  5
3F9
  8
MAIN
 10
44.67314273721583
 20
15.15400438263277
 30
0.0
  0
VERTEX
  5
3FA
  8
MAIN
 10
44.68072905126375
 20
15.15969172446504
 30
0.0
  0
VERTEX
  5
3FB
  8
MAIN
 10
44.68846084914457
 20
15.16520647123081
 30
0.0
  0
VERTEX
  5
3FC
  8
MAIN
 10
44.69633220266184
 20
15.17054315700766
 30
0.0
  0
VERTEX
  5
3FD
  8
MAIN
 10
44.70433691381418
 20
15.17569658964798
 30
0.0
  0
VERTEX
  5
3FE
  8
MAIN
 10
44.71246853077089
 20
15.180661867188
 30
0.0
  0
VERTEX
  5
3FF
  8
MAIN
 10
44.72072036503194
 20
15.18543439312501
 30
0.0
  0
VERTEX
  5
400
  8
MAIN
 10
44.729085509678
 20
15.19000989046421
 30
0.0
  0
VERTEX
  5
401
  8
MAIN
 10
44.73755685860623
 20
15.19438441444584
 30
0.0
  0
VERTEX
  5
402
  8
MAIN
 10
44.74612712663981
 20
15.19855436387335
 30
0.0
  0
VERTEX
  5
403
  8
MAIN
 10
44.75478887039149
 20
15.20251649097439
 30
0.0
  0
VERTEX
  5
404
  8
MAIN
 10
44.76353450975626
 20
15.20626790973804
 30
0.0
  0
VERTEX
  5
405
  8
MAIN
 10
44.77235634990274
 20
15.20980610268392
 30
0.0
  0
VERTEX
  5
406
  8
MAIN
 10
44.78124660363041
 20
15.21312892603163
 30
0.0
  0
VERTEX
  5
407
  8
MAIN
 10
44.7901974139573
 20
15.21623461325146
 30
0.0
  0
VERTEX
  5
408
  8
MAIN
 10
44.79920087680252
 20
15.21912177699079
 30
0.0
  0
VERTEX
  5
409
  8
MAIN
 10
44.80824906362882
 20
15.22178940938285
 30
0.0
  0
VERTEX
  5
40A
  8
MAIN
 10
44.81733404391247
 20
15.22423688075761
 30
0.0
  0
VERTEX
  5
40B
  8
MAIN
 10
44.82644790731138
 20
15.22646393678639
 30
0.0
  0
VERTEX
  5
40C
  8
MAIN
 10
44.83558278540706
 20
15.22847069410366
 30
0.0
  0
VERTEX
  5
40D
  8
MAIN
 10
44.84473087290162
 20
15.23025763446011
 30
0.0
  0
VERTEX
  5
40E
  8
MAIN
 10
44.85388444815862
 20
15.23182559747172
 30
0.0
  0
VERTEX
  5
40F
  8
MAIN
 10
44.86303589298331
 20
15.23317577203817
 30
0.0
  0
VERTEX
  5
410
  8
MAIN
 10
44.8721777115476
 20
15.23430968651262
 30
0.0
  0
VERTEX
  5
411
  8
MAIN
 10
44.88130254837343
 20
15.23522919771193
 30
0.0
  0
VERTEX
  5
412
  8
MAIN
 10
44.89040320529856
 20
15.23593647886233
 30
0.0
  0
VERTEX
  5
413
  8
MAIN
 10
44.89947265735876
 20
15.23643400658059
 30
0.0
  0
VERTEX
  5
414
  8
MAIN
 10
44.90850406753109
 20
15.23672454699453
 30
0.0
  0
VERTEX
  5
415
  8
MAIN
 10
44.91749080029316
 20
15.23681114110923
 30
0.0
  0
VERTEX
  5
416
  8
MAIN
 10
44.926426433964
 20
15.23669708952683
 30
0.0
  0
VERTEX
  5
417
  8
MAIN
 10
44.93530477180278
 20
15.23638593662815
 30
0.0
  0
VERTEX
  5
418
  8
MAIN
 10
44.94411985185115
 20
15.23588145432394
 30
0.0
  0
VERTEX
  5
419
  8
MAIN
 10
44.95286595551563
 20
15.23518762548148
 30
0.0
  0
VERTEX
  5
41A
  8
MAIN
 10
44.96153761489492
 20
15.23430862713035
 30
0.0
  0
VERTEX
  5
41B
  8
MAIN
 10
44.97012961886639
 20
15.23324881354721
 30
0.0
  0
VERTEX
  5
41C
  8
MAIN
 10
44.97863701795387
 20
15.23201269931578
 30
0.0
  0
VERTEX
  5
41D
  8
MAIN
 10
44.98705512800662
 20
15.23060494245329
 30
0.0
  0
VERTEX
  5
41E
  8
MAIN
 10
44.99537953272581
 20
15.22903032768931
 30
0.0
  0
VERTEX
  5
41F
  8
MAIN
 10
45.00360608508138
 20
15.22729374997741
 30
0.0
  0
VERTEX
  5
420
  8
MAIN
 10
45.04108488005706
 20
15.21871164126614
 30
0.0
  0
VERTEX
  5
421
  8
MAIN
 10
45.07085536608975
 20
15.21288748658253
 30
0.0
  0
VERTEX
  5
422
  8
MAIN
 10
45.1010059586712
 20
15.2079558982655
 30
0.0
  0
VERTEX
  5
423
  8
MAIN
 10
45.13149802760167
 20
15.20394309576544
 30
0.0
  0
VERTEX
  5
424
  8
MAIN
 10
45.1622908418874
 20
15.2008731502749
 30
0.0
  0
VERTEX
  5
425
  8
MAIN
 10
45.19334171342306
 20
15.19876778952659
 30
0.0
  0
VERTEX
  5
426
  8
MAIN
 10
45.22460616144454
 20
15.19764621362848
 30
0.0
  0
VERTEX
  5
427
  8
MAIN
 10
45.2560380968158
 20
15.19752492443538
 30
0.0
  0
VERTEX
  5
428
  8
MAIN
 10
45.28759002487723
 20
15.19841757087233
 30
0.0
  0
VERTEX
  5
429
  8
MAIN
 10
45.31921326525381
 20
15.20033481249073
 30
0.0
  0
VERTEX
  5
42A
  8
MAIN
 10
45.35085818670809
 20
15.20328420335469
 30
0.0
  0
VERTEX
  5
42B
  8
MAIN
 10
45.38247445483356
 20
15.20727009812331
 30
0.0
  0
VERTEX
  5
42C
  8
MAIN
 10
45.41401129012647
 20
15.21229358191893
 30
0.0
  0
VERTEX
  5
42D
  8
MAIN
 10
45.44541773375592
 20
15.21835242525665
 30
0.0
  0
VERTEX
  5
42E
  8
MAIN
 10
45.47664291817948
 20
15.2254410649627
 30
0.0
  0
VERTEX
  5
42F
  8
MAIN
 10
45.50763633963052
 20
15.23355061163614
 30
0.0
  0
VERTEX
  5
430
  8
MAIN
 10
45.53834812943695
 20
15.24266888381835
 30
0.0
  0
VERTEX
  5
431
  8
MAIN
 10
45.56872932112292
 20
15.25278046863694
 30
0.0
  0
VERTEX
  5
432
  8
MAIN
 10
45.5987321102948
 20
15.26386680829442
 30
0.0
  0
VERTEX
  5
433
  8
MAIN
 10
45.62831010442025
 20
15.2759063113869
 30
0.0
  0
VERTEX
  5
434
  8
MAIN
 10
45.65741855977181
 20
15.28887448767327
 30
0.0
  0
VERTEX
  5
435
  8
MAIN
 10
45.68601460301983
 20
15.30274410457918
 30
0.0
  0
VERTEX
  5
436
  8
MAIN
 10
45.71405743521807
 20
15.31748536342128
 30
0.0
  0
VERTEX
  5
437
  8
MAIN
 10
45.74150851622238
 20
15.33306609308027
 30
0.0
  0
VERTEX
  5
438
  8
MAIN
 10
45.76833172791051
 20
15.34945195864376
 30
0.0
  0
VERTEX
  5
439
  8
MAIN
 10
45.79449351492084
 20
15.36660668238352
 30
0.0
  0
VERTEX
  5
43A
  8
MAIN
 10
45.81996300199097
 20
15.38449227432906
 30
0.0
  0
VERTEX
  5
43B
  8
MAIN
 10
45.84471208734433
 20
15.40306926965189
 30
0.0
  0
VERTEX
  5
43C
  8
MAIN
 10
45.86871551193672
 20
15.4222969700792
 30
0.0
  0
VERTEX
  5
43D
  8
MAIN
 10
45.89195090472531
 20
15.44213368661219
 30
0.0
  0
VERTEX
  5
43E
  8
MAIN
 10
45.91439880445378
 20
15.4625369809259
 30
0.0
  0
VERTEX
  5
43F
  8
MAIN
 10
45.93604265875283
 20
15.48346390297256
 30
0.0
  0
VERTEX
  5
440
  8
MAIN
 10
45.957033484411
 20
15.50504578735508
 30
0.0
  0
VERTEX
  5
441
  8
MAIN
 10
45.97750306197162
 20
15.52743326188241
 30
0.0
  0
VERTEX
  5
442
  8
MAIN
 10
45.99740839263367
 20
15.55060990124949
 30
0.0
  0
VERTEX
  5
443
  8
MAIN
 10
46.01670698071598
 20
15.57455636976386
 30
0.0
  0
VERTEX
  5
444
  8
MAIN
 10
46.03535707125675
 20
15.59925041974373
 30
0.0
  0
VERTEX
  5
445
  8
MAIN
 10
46.05331789147688
 20
15.62466691258929
 30
0.0
  0
VERTEX
  5
446
  8
MAIN
 10
46.07054989363091
 20
15.65077786333376
 30
0.0
  0
VERTEX
  5
447
  8
MAIN
 10
46.08701499662451
 20
15.67755250917586
 30
0.0
  0
VERTEX
  5
448
  8
MAIN
 10
46.1026768236738
 20
15.7049574021642
 30
0.0
  0
VERTEX
  5
449
  8
MAIN
 10
46.11750093322487
 20
15.73295652585358
 30
0.0
  0
VERTEX
  5
44A
  8
MAIN
 10
46.13145504034613
 20
15.76151143538967
 30
0.0
  0
VERTEX
  5
44B
  8
MAIN
 10
46.14450922585293
 20
15.79058142011129
 30
0.0
  0
VERTEX
  5
44C
  8
MAIN
 10
46.15663613052501
 20
15.82012368739559
 30
0.0
  0
VERTEX
  5
44D
  8
MAIN
 10
46.16781113193307
 20
15.85009356612174
 30
0.0
  0
VERTEX
  5
44E
  8
MAIN
 10
46.17801250159733
 20
15.88044472780014
 30
0.0
  0
VERTEX
  5
44F
  8
MAIN
 10
46.18722154045661
 20
15.91112942311649
 30
0.0
  0
VERTEX
  5
450
  8
MAIN
 10
46.19542269092516
 20
15.94209873138067
 30
0.0
  0
VERTEX
  5
451
  8
MAIN
 10
46.20260362414928
 20
15.97330282015579
 30
0.0
  0
VERTEX
  5
452
  8
MAIN
 10
46.2087553014408
 20
16.00469121217946
 30
0.0
  0
VERTEX
  5
453
  8
MAIN
 10
46.21387200924858
 20
16.03621305658033
 30
0.0
  0
VERTEX
  5
454
  8
MAIN
 10
46.21795136742586
 20
16.06781740134213
 30
0.0
  0
VERTEX
  5
455
  8
MAIN
 10
46.22099431094885
 20
16.09945346397454
 30
0.0
  0
VERTEX
  5
456
  8
MAIN
 10
46.22300504563228
 20
16.13107089741541
 30
0.0
  0
VERTEX
  5
457
  8
MAIN
 10
46.22399097876097
 20
16.16262004830875
 30
0.0
  0
VERTEX
  5
458
  8
MAIN
 10
46.22396262590493
 20
16.19405220497474
 30
0.0
  0
VERTEX
  5
459
  8
MAIN
 10
46.22293349550053
 20
16.22531983260504
 30
0.0
  0
VERTEX
  5
45A
  8
MAIN
 10
46.22091995305728
 20
16.25637679347337
 30
0.0
  0
VERTEX
  5
45B
  8
MAIN
 10
46.21794106708152
 20
16.28717855024033
 30
0.0
  0
VERTEX
  5
45C
  8
MAIN
 10
46.21401843899371
 20
16.31768235074396
 30
0.0
  0
VERTEX
  5
45D
  8
MAIN
 10
46.20917601945057
 20
16.3478473929963
 30
0.0
  0
VERTEX
  5
45E
  8
MAIN
 10
46.20343991356874
 20
16.37763496944244
 30
0.0
  0
VERTEX
  5
45F
  8
MAIN
 10
46.19683817758183
 20
16.40700858987423
 30
0.0
  0
VERTEX
  5
460
  8
MAIN
 10
46.18933728310977
 20
16.4361655629241
 30
0.0
  0
VERTEX
  5
461
  8
MAIN
 10
46.18087721528776
 20
16.46529681544899
 30
0.0
  0
VERTEX
  5
462
  8
MAIN
 10
46.17144961612196
 20
16.49435708342928
 30
0.0
  0
VERTEX
  5
463
  8
MAIN
 10
46.16104887451125
 20
16.52330001745864
 30
0.0
  0
VERTEX
  5
464
  8
MAIN
 10
46.14967225129495
 20
16.55207838478172
 30
0.0
  0
VERTEX
  5
465
  8
MAIN
 10
46.1373199869523
 20
16.58064428643311
 30
0.0
  0
VERTEX
  5
466
  8
MAIN
 10
46.12399538997637
 20
16.60894938778331
 30
0.0
  0
VERTEX
  5
467
  8
MAIN
 10
46.10970490412977
 20
16.63694516051471
 30
0.0
  0
VERTEX
  5
468
  8
MAIN
 10
46.09445815301807
 20
16.66458313378995
 30
0.0
  0
VERTEX
  5
469
  8
MAIN
 10
46.0782679606868
 20
16.69181515214393
 30
0.0
  0
VERTEX
  5
46A
  8
MAIN
 10
46.06115034725509
 20
16.71859363743658
 30
0.0
  0
VERTEX
  5
46B
  8
MAIN
 10
46.04312449893716
 20
16.74487185205211
 30
0.0
  0
VERTEX
  5
46C
  8
MAIN
 10
46.02421271216603
 20
16.77060416042789
 30
0.0
  0
VERTEX
  5
46D
  8
MAIN
 10
46.00444031191359
 20
16.79574628594639
 30
0.0
  0
VERTEX
  5
46E
  8
MAIN
 10
45.98383554468918
 20
16.82025556022946
 30
0.0
  0
VERTEX
  5
46F
  8
MAIN
 10
45.96242944708617
 20
16.8440911619374
 30
0.0
  0
VERTEX
  5
470
  8
MAIN
 10
45.94025569112298
 20
16.86721434229508
 30
0.0
  0
VERTEX
  5
471
  8
MAIN
 10
45.91735040798235
 20
16.88958863474205
 30
0.0
  0
VERTEX
  5
472
  8
MAIN
 10
45.89375199208235
 20
16.91118004632956
 30
0.0
  0
VERTEX
  5
473
  8
MAIN
 10
45.86950088770538
 20
16.93195722875934
 30
0.0
  0
VERTEX
  5
474
  8
MAIN
 10
45.84463936066152
 20
16.95189162727068
 30
0.0
  0
VERTEX
  5
475
  8
MAIN
 10
45.81921125766323
 20
16.97095760592573
 30
0.0
  0
VERTEX
  5
476
  8
MAIN
 10
45.7932617562362
 20
16.98913254821016
 30
0.0
  0
VERTEX
  5
477
  8
MAIN
 10
45.76683710808274
 20
17.00639693224756
 30
0.0
  0
VERTEX
  5
478
  8
MAIN
 10
45.73998437884928
 20
17.02273438031251
 30
0.0
  0
VERTEX
  5
479
  8
MAIN
 10
45.7127511872277
 20
17.03813168270997
 30
0.0
  0
VERTEX
  5
47A
  8
MAIN
 10
45.68518544624545
 20
17.05257879645796
 30
0.0
  0
VERTEX
  5
47B
  8
MAIN
 10
45.65733510947355
 20
17.06606881955947
 30
0.0
  0
VERTEX
  5
47C
  8
MAIN
 10
45.62924792471067
 20
17.0785979419699
 30
0.0
  0
VERTEX
  5
47D
  8
MAIN
 10
45.60097119749135
 20
17.09016537465318
 30
0.0
  0
VERTEX
  5
47E
  8
MAIN
 10
45.57255156652359
 20
17.10077325836663
 30
0.0
  0
VERTEX
  5
47F
  8
MAIN
 10
45.54403479289241
 20
17.11042655402046
 30
0.0
  0
VERTEX
  5
480
  8
MAIN
 10
45.51523495418007
 20
17.11919934062055
 30
0.0
  0
VERTEX
  5
481
  8
MAIN
 10
45.48595778972919
 20
17.12713976004383
 30
0.0
  0
VERTEX
  5
482
  8
MAIN
 10
45.45623759702142
 20
17.13421711423992
 30
0.0
  0
VERTEX
  5
483
  8
MAIN
 10
45.42611103014697
 20
17.14040248557398
 30
0.0
  0
VERTEX
  5
484
  8
MAIN
 10
45.39561699238937
 20
17.14566894876555
 30
0.0
  0
VERTEX
  5
485
  8
MAIN
 10
45.36479650688569
 20
17.1499917758758
 30
0.0
  0
VERTEX
  5
486
  8
MAIN
 10
45.33369256577963
 20
17.15334863177257
 30
0.0
  0
VERTEX
  5
487
  8
MAIN
 10
45.3023499586225
 20
17.15571975751383
 30
0.0
  0
VERTEX
  5
488
  8
MAIN
 10
45.27081508111828
 20
17.15708813914889
 30
0.0
  0
VERTEX
  5
489
  8
MAIN
 10
45.23913572564711
 20
17.15743965954786
 30
0.0
  0
VERTEX
  5
48A
  8
MAIN
 10
45.20736085532728
 20
17.15676323102992
 30
0.0
  0
VERTEX
  5
48B
  8
MAIN
 10
45.17554036368067
 20
17.15505090677205
 30
0.0
  0
VERTEX
  5
48C
  8
MAIN
 10
45.14372482224367
 20
17.15229796923559
 30
0.0
  0
VERTEX
  5
48D
  8
MAIN
 10
45.11196521870552
 20
17.14850299414704
 30
0.0
  0
VERTEX
  5
48E
  8
MAIN
 10
45.08031268835296
 20
17.14366788890356
 30
0.0
  0
VERTEX
  5
48F
  8
MAIN
 10
45.04881824174796
 20
17.1377979046372
 30
0.0
  0
VERTEX
  5
490
  8
MAIN
 10
45.0175324916589
 20
17.13090162155627
 30
0.0
  0
VERTEX
  5
491
  8
MAIN
 10
44.98650538230277
 20
17.12299090757824
 30
0.0
  0
VERTEX
  5
492
  8
MAIN
 10
44.95578592393458
 20
17.11408085066774
 30
0.0
  0
VERTEX
  5
493
  8
MAIN
 10
44.92542193573995
 20
17.10418966568458
 30
0.0
  0
VERTEX
  5
494
  8
MAIN
 10
44.89545979985169
 20
17.09333857692271
 30
0.0
  0
VERTEX
  5
495
  8
MAIN
 10
44.86594422912157
 20
17.08155167787112
 30
0.0
  0
VERTEX
  5
496
  8
MAIN
 10
44.83691805104257
 20
17.06885577004472
 30
0.0
  0
VERTEX
  5
497
  8
MAIN
 10
44.80842200993875
 20
17.05528018301034
 30
0.0
  0
VERTEX
  5
498
  8
MAIN
 10
44.78049458922789
 20
17.04085657796369
 30
0.0
  0
VERTEX
  5
499
  8
MAIN
 10
44.75317185522454
 20
17.02561873739439
 30
0.0
  0
VERTEX
  5
49A
  8
MAIN
 10
44.72648732359627
 20
17.00960234350394
 30
0.0
  0
VERTEX
  5
49B
  8
MAIN
 10
44.70047184922282
 20
16.99284474811591
 30
0.0
  0
VERTEX
  5
49C
  8
MAIN
 10
44.67515353984473
 20
16.97538473683884
 30
0.0
  0
VERTEX
  5
49D
  8
MAIN
 10
44.6505576935351
 20
16.95726229021143
 30
0.0
  0
VERTEX
  5
49E
  8
MAIN
 10
44.62670675968885
 20
16.93851834448161
 30
0.0
  0
VERTEX
  5
49F
  8
MAIN
 10
44.59887140284533
 20
16.91517384714226
 30
0.0
  0
VERTEX
  5
4A0
  8
MAIN
 10
44.59401314559793
 20
16.91122066831194
 30
0.0
  0
VERTEX
  5
4A1
  8
MAIN
 10
44.58904653206147
 20
16.90733888941901
 30
0.0
  0
VERTEX
  5
4A2
  8
MAIN
 10
44.58397270893659
 20
16.9035323896341
 30
0.0
  0
VERTEX
  5
4A3
  8
MAIN
 10
44.57879299155294
 20
16.89980504776058
 30
0.0
  0
VERTEX
  5
4A4
  8
MAIN
 10
44.5735088662456
 20
16.89616073374842
 30
0.0
  0
VERTEX
  5
4A5
  8
MAIN
 10
44.56812199225548
 20
16.89260329992402
 30
0.0
  0
VERTEX
  5
4A6
  8
MAIN
 10
44.56263420312491
 20
16.88913657196471
 30
0.0
  0
VERTEX
  5
4A7
  8
MAIN
 10
44.55704750756097
 20
16.88576433964915
 30
0.0
  0
VERTEX
  5
4A8
  8
MAIN
 10
44.55136408974138
 20
16.88249034741851
 30
0.0
  0
VERTEX
  5
4A9
  8
MAIN
 10
44.54558630904003
 20
16.87931828478516
 30
0.0
  0
VERTEX
  5
4AA
  8
MAIN
 10
44.53971669915192
 20
16.87625177662888
 30
0.0
  0
VERTEX
  5
4AB
  8
MAIN
 10
44.53375796660041
 20
16.87329437342268
 30
0.0
  0
VERTEX
  5
4AC
  8
MAIN
 10
44.52771298861254
 20
16.8704495414322
 30
0.0
  0
VERTEX
  5
4AD
  8
MAIN
 10
44.52158481035215
 20
16.86772065293518
 30
0.0
  0
VERTEX
  5
4AE
  8
MAIN
 10
44.51537664150386
 20
16.86511097650829
 30
0.0
  0
VERTEX
  5
4AF
  8
MAIN
 10
44.50909185220514
 20
16.86262366743041
 30
0.0
  0
VERTEX
  5
4B0
  8
MAIN
 10
44.50273396832784
 20
16.86026175825208
 30
0.0
  0
VERTEX
  5
4B1
  8
MAIN
 10
44.49630666611452
 20
16.85802814958132
 30
0.0
  0
VERTEX
  5
4B2
  8
MAIN
 10
44.48981376617969
 20
16.85592560113624
 30
0.0
  0
VERTEX
  5
4B3
  8
MAIN
 10
44.48325922689003
 20
16.85395672311426
 30
0.0
  0
VERTEX
  5
4B4
  8
MAIN
 10
44.47664713714264
 20
16.85212396792742
 30
0.0
  0
VERTEX
  5
4B5
  8
MAIN
 10
44.46998170856406
 20
16.85042962235166
 30
0.0
  0
VERTEX
  5
4B6
  8
MAIN
 10
44.46326726715784
 20
16.84887580013647
 30
0.0
  0
VERTEX
  5
4B7
  8
MAIN
 10
44.45650824443212
 20
16.84746443511932
 30
0.0
  0
VERTEX
  5
4B8
  8
MAIN
 10
44.44970916804287
 20
16.84619727488673
 30
0.0
  0
VERTEX
  5
4B9
  8
MAIN
 10
44.44287465199227
 20
16.84507587502085
 30
0.0
  0
VERTEX
  5
4BA
  8
MAIN
 10
44.43600938642525
 20
16.8441015939673
 30
0.0
  0
VERTEX
  5
4BB
  8
MAIN
 10
44.4291181270702
 20
16.84327558855632
 30
0.0
  0
VERTEX
  5
4BC
  8
MAIN
 10
44.42220568437309
 20
16.84259881020541
 30
0.0
  0
VERTEX
  5
4BD
  8
MAIN
 10
44.41527691237651
 20
16.84207200182714
 30
0.0
  0
VERTEX
  5
4BE
  8
MAIN
 10
44.40833669739711
 20
16.84169569546175
 30
0.0
  0
VERTEX
  5
4BF
  8
MAIN
 10
44.40138994655693
 20
16.8414702106491
 30
0.0
  0
VERTEX
  5
4C0
  8
MAIN
 10
44.39444157622479
 20
16.84139565354996
 30
0.0
  0
VERTEX
  5
4C1
  8
MAIN
 10
44.38749650042503
 20
16.84147191682153
 30
0.0
  0
VERTEX
  5
4C2
  8
MAIN
 10
44.38055961927101
 20
16.84169868024723
 30
0.0
  0
VERTEX
  5
4C3
  8
MAIN
 10
44.37363580748018
 20
16.84207541211581
 30
0.0
  0
VERTEX
  5
4C4
  8
MAIN
 10
44.36672990302732
 20
16.8426013713398
 30
0.0
  0
VERTEX
  5
4C5
  8
MAIN
 10
44.35984669599083
 20
16.84327561029871
 30
0.0
  0
VERTEX
  5
4C6
  8
MAIN
 10
44.35299091764569
 20
16.84409697838769
 30
0.0
  0
VERTEX
  5
4C7
  8
MAIN
 10
44.34616722985419
 20
16.84506412624765
 30
0.0
  0
VERTEX
  5
4C8
  8
MAIN
 10
44.33938021480333
 20
16.84617551064927
 30
0.0
  0
VERTEX
  5
4C9
  8
MAIN
 10
44.33263436513486
 20
16.84742939999877
 30
0.0
  0
VERTEX
  5
4CA
  8
MAIN
 10
44.32593407451041
 20
16.84882388043006
 30
0.0
  0
VERTEX
  5
4CB
  8
MAIN
 10
44.31928362865097
 20
16.85035686244489
 30
0.0
  0
VERTEX
  5
4CC
  8
MAIN
 10
44.31268719688621
 20
16.85202608805925
 30
0.0
  0
VERTEX
  5
4CD
  8
MAIN
 10
44.30614882424462
 20
16.85382913841243
 30
0.0
  0
VERTEX
  5
4CE
  8
MAIN
 10
44.29967242411205
 20
16.85576344179268
 30
0.0
  0
VERTEX
  5
4CF
  8
MAIN
 10
44.29326177148139
 20
16.85782628203217
 30
0.0
  0
VERTEX
  5
4D0
  8
MAIN
 10
44.28692049681195
 20
16.86001480722264
 30
0.0
  0
VERTEX
  5
4D1
  8
MAIN
 10
44.28065208051277
 20
16.8623260387024
 30
0.0
  0
VERTEX
  5
4D2
  8
MAIN
 10
44.27445984805983
 20
16.86475688026516
 30
0.0
  0
VERTEX
  5
4D3
  8
MAIN
 10
44.26834696575253
 20
16.86730412754128
 30
0.0
  0
VERTEX
  5
4D4
  8
MAIN
 10
44.2623164371111
 20
16.86996447750231
 30
0.0
  0
VERTEX
  5
4D5
  8
MAIN
 10
44.25637109991211
 20
16.87273453804098
 30
0.0
  0
VERTEX
  5
4D6
  8
MAIN
 10
44.2505136238557
 20
16.87561083757966
 30
0.0
  0
VERTEX
  5
4D7
  8
MAIN
 10
44.24474650885438
 20
16.87858983466211
 30
0.0
  0
VERTEX
  5
4D8
  8
MAIN
 10
44.23907208392985
 20
16.88166792748494
 30
0.0
  0
VERTEX
  5
4D9
  8
MAIN
 10
44.23349250670125
 20
16.88484146332772
 30
0.0
  0
VERTEX
  5
4DA
  8
MAIN
 10
44.22800976344511
 20
16.88810674784237
 30
0.0
  0
VERTEX
  5
4DB
  8
MAIN
 10
44.22262566970479
 20
16.89146005416573
 30
0.0
  0
VERTEX
  5
4DC
  8
MAIN
 10
44.21734187142526
 20
16.89489763182116
 30
0.0
  0
VERTEX
  5
4DD
  8
MAIN
 10
44.21215984658637
 20
16.89841571537846
 30
0.0
  0
VERTEX
  5
4DE
  8
MAIN
 10
44.20708090730666
 20
16.9020105328437
 30
0.0
  0
VERTEX
  5
4DF
  8
MAIN
 10
43.52475894128739
 20
17.39497722769476
 30
0.0
 42
0.1674676573381653
  0
VERTEX
  5
4E0
  8
MAIN
 10
43.49357514303048
 20
17.40441201429116
 30
0.0
  0
VERTEX
  5
4E1
  8
MAIN
 10
24.16247682992265
 20
16.66836403710141
 30
0.0
 42
0.4031682978653047
  0
VERTEX
  5
4E2
  8
MAIN
 10
23.20052537574829
 20
15.66888803549092
 30
0.0
  0
VERTEX
  5
4E3
  8
MAIN
 10
23.20052535572649
 20
15.62745224792081
 30
0.0
  0
VERTEX
  5
4E4
  8
MAIN
 10
23.61636467497355
 20
15.62745224792081
 30
0.0
  0
VERTEX
  5
4E5
  8
MAIN
 10
23.61636467497354
 20
15.80881479464011
 30
0.0
 42
-0.9999997833049575
  0
VERTEX
  5
4E6
  8
MAIN
 10
24.01908995770002
 20
15.80881488450142
 30
0.0
  0
VERTEX
  5
4E7
  8
MAIN
 10
24.01908977309936
 20
14.92745224792085
 30
0.0
  0
VERTEX
  5
4E8
  8
MAIN
 10
25.33862760711451
 20
14.92745224792085
 30
0.0
  0
VERTEX
  5
4E9
  8
MAIN
 10
25.33862760711448
 20
15.80881479464014
 30
0.0
 42
-0.9999997928170911
  0
VERTEX
  5
4EA
  8
MAIN
 10
25.741352889841
 20
15.80881488067066
 30
0.0
  0
VERTEX
  5
4EB
  8
MAIN
 10
25.74135271290193
 20
15.62745224792086
 30
0.0
  0
VERTEX
  5
4EC
  8
MAIN
 10
26.10422387258883
 20
15.62745224792084
 30
0.0
  0
VERTEX
  5
4ED
  8
MAIN
 10
26.10422387258883
 20
15.80881479464016
 30
0.0
 42
-0.999999783304984
  0
VERTEX
  5
4EE
  8
MAIN
 10
26.5069491553153
 20
15.80881488450146
 30
0.0
  0
VERTEX
  5
4EF
  8
MAIN
 10
26.50694897071466
 20
14.92745224792086
 30
0.0
  0
VERTEX
  5
4F0
  8
MAIN
 10
27.8264868047298
 20
14.92745224792088
 30
0.0
  0
VERTEX
  5
4F1
  8
MAIN
 10
27.82648680472979
 20
15.80881479464017
 30
0.0
 42
-0.9999997928171617
  0
VERTEX
  5
4F2
  8
MAIN
 10
28.22921208745627
 20
15.8088148806707
 30
0.0
  0
VERTEX
  5
4F3
  8
MAIN
 10
28.22921191051721
 20
15.62745224792086
 30
0.0
  0
VERTEX
  5
4F4
  8
MAIN
 10
28.59208307020409
 20
15.62745224792088
 30
0.0
  0
VERTEX
  5
4F5
  8
MAIN
 10
28.59208307020411
 20
15.80881479464018
 30
0.0
 42
-0.9999997833050721
  0
VERTEX
  5
4F6
  8
MAIN
 10
28.99480835293058
 20
15.80881488450151
 30
0.0
  0
VERTEX
  5
4F7
  8
MAIN
 10
28.99480816832994
 20
14.92745224792088
 30
0.0
  0
VERTEX
  5
4F8
  8
MAIN
 10
43.90105991544205
 20
14.92745224792105
 30
0.0
  0
VERTEX
  5
4F9
  8
MAIN
 10
44.41500797137685
 20
14.92745246288434
 30
0.0
 42
0.0803968553617493
  0
VERTEX
  5
4FA
  8
MAIN
 10
44.50961500264932
 20
14.94287988076197
 30
0.0
 42
0.2206881935715711
  0
VERTEX
  5
4FB
  8
MAIN
 10
44.54022495314558
 20
14.97176613760993
 30
0.0
  0
VERTEX
  5
4FC
  8
MAIN
 10
44.54152022956223
 20
14.97500957688984
 30
0.0
  0
SEQEND
  5
4FD
  8
MAIN
  0
POLYLINE
  5
4FE
  8
MAIN
 66
     1
 10
0.0
 20
0.0
 30
0.0
  0
VERTEX
  5
4FF
  8
MAIN
 10
7.618030167282532
 20
26.89601171345944
 30
0.0
  0
VERTEX
  5
500
  8
MAIN
 10
7.826453730419727
 20
26.82558715574554
 30
0.0
 42
0.3996375341442325
  0
VERTEX
  5
501
  8
MAIN
 10
8.076513912671258
 20
26.9416470767016
 30
0.0
  0
VERTEX
  5
502
  8
MAIN
 10
9.005420134807302
 20
26.62777752727571
 30
0.0
 42
0.9752971977395023
  0
VERTEX
  5
503
  8
MAIN
 10
9.387336190872189
 20
26.5092867531978
 30
0.0
  0
VERTEX
  5
504
  8
MAIN
 10
9.611414329052755
 20
27.17245263590708
 30
0.0
 42
0.9752971977394113
  0
VERTEX
  5
505
  8
MAIN
 10
9.235900505507272
 20
27.30989100663382
 30
0.0
  0
VERTEX
  5
506
  8
MAIN
 10
8.306994283371074
 20
27.62376055605915
 30
0.0
 42
0.3996375341443207
  0
VERTEX
  5
507
  8
MAIN
 10
8.178576518988981
 20
27.86770497143095
 30
0.0
  0
VERTEX
  5
508
  8
MAIN
 10
7.459484263691797
 20
28.11068015750169
 30
0.0
 42
0.4142135623731354
  0
VERTEX
  5
509
  8
MAIN
 10
7.205985972009016
 20
27.98522651620779
 30
0.0
  0
VERTEX
  5
50A
  8
MAIN
 10
6.981907833828641
 20
27.32206063349908
 30
0.0
 42
0.4142135623731124
  0
VERTEX
  5
50B
  8
MAIN
 10
7.107361475122557
 20
27.06856234181627
 30
0.0
  0
VERTEX
  5
50C
  8
MAIN
 10
7.618030167282532
 20
26.89601171345944
 30
0.0
  0
SEQEND
  5
50D
  8
MAIN
  0
POLYLINE
  5
50E
  8
MAIN
 66
     1
 10
0.0
 20
0.0
 30
0.0
  0
VERTEX
  5
50F
  8
MAIN
 10
37.16837986033541
 20
19.13928516789123
 30
0.0
  0
VERTEX
  5
510
  8
MAIN
 10
37.16838004700207
 20
18.76254334328702
 30
0.0
 42
0.1719819699448232
  0
VERTEX
  5
511
  8
MAIN
 10
37.39160230033541
 20
18.13276851663589
 30
-0.0000000000000071
 42
-0.0276158701505896
  0
VERTEX
  5
512
  8
MAIN
 10
37.52095467504036
 20
17.95387658328702
 30
-0.0000000000000051
  0
VERTEX
  5
513
  8
MAIN
 10
37.66797035374127
 20
17.75382396160856
 30
-0.0000000000000014
  0
VERTEX
  5
514
  8
MAIN
 10
38.77701055261166
 20
17.75342700016023
 30
0.0
  0
VERTEX
  5
515
  8
MAIN
 10
38.77701055261166
 20
19.15387658328703
 30
0.0
  0
VERTEX
  5
516
  8
MAIN
 10
37.16837986033541
 20
19.15387658328703
 30
0.0
  0
VERTEX
  5
517
  8
MAIN
 10
37.16837986033541
 20
18.95387658328703
 30
0.0
  0
SEQEND
  5
518
  8
MAIN
  0
POLYLINE
  5
519
  8
MAIN
 66
     1
 10
0.0
 20
0.0
 30
0.0
  0
VERTEX
  5
51A
  8
MAIN
 10
3.134171922938433
 20
44.77042736353455
 30
0.0
  0
VERTEX
  5
51B
  8
MAIN
 10
3.3155345556883
 20
44.77042753803458
 30
0.0
 42
-0.4142144020974036
  0
VERTEX
  5
51C
  8
MAIN
 10
3.516897018969813
 20
44.56906479227129
 30
0.0
  0
VERTEX
  5
51D
  8
MAIN
 10
3.516897112317393
 20
44.37770244573862
 30
0.0
 42
-0.4142138533541066
  0
VERTEX
  5
51E
  8
MAIN
 10
3.31553446965779
 20
44.1763397048534
 30
0.0
  0
VERTEX
  5
51F
  8
MAIN
 10
2.434171922938487
 20
44.17633970485342
 30
0.0
  0
VERTEX
  5
520
  8
MAIN
 10
2.434171922938459
 20
43.23952696686959
 30
0.0
  0
VERTEX
  5
521
  8
MAIN
 10
3.315534559519092
 20
43.23952715147026
 30
0.0
 42
-0.4142144050902358
  0
VERTEX
  5
522
  8
MAIN
 10
3.516897018969784
 20
43.03816440814599
 30
0.0
  0
VERTEX
  5
523
  8
MAIN
 10
3.51689711231735
 20
42.84680206161333
 30
0.0
 42
-0.4142138619190026
  0
VERTEX
  5
524
  8
MAIN
 10
3.315534469657747
 20
42.64543932316712
 30
0.0
  0
VERTEX
  5
525
  8
MAIN
 10
3.134171922938405
 20
42.64543932560616
 30
0.0
  0
VERTEX
  5
526
  8
MAIN
 10
3.134171922938433
 20
42.46378462710864
 30
0.0
  0
VERTEX
  5
527
  8
MAIN
 10
3.134171922938419
 20
42.28256816348025
 30
0.0
  0
VERTEX
  5
528
  8
MAIN
 10
3.315534555688243
 20
42.2825683404193
 30
0.0
 42
-0.4142144020974169
  0
VERTEX
  5
529
  8
MAIN
 10
3.516897018969756
 20
42.08120559465601
 30
0.0
  0
VERTEX
  5
52A
  8
MAIN
 10
3.516897112317336
 20
41.88984324812334
 30
0.0
 42
-0.4142138533540983
  0
VERTEX
  5
52B
  8
MAIN
 10
3.315534469657733
 20
41.68848050723813
 30
0.0
  0
VERTEX
  5
52C
  8
MAIN
 10
2.434171922938431
 20
41.68848050723814
 30
0.0
  0
VERTEX
  5
52D
  8
MAIN
 10
2.434171922938402
 20
40.75166776925431
 30
0.0
  0
VERTEX
  5
52E
  8
MAIN
 10
3.315534559519035
 20
40.75166795385498
 30
0.0
 42
-0.4142144050902345
  0
VERTEX
  5
52F
  8
MAIN
 10
3.516897018969727
 20
40.55030521053071
 30
0.0
  0
VERTEX
  5
530
  8
MAIN
 10
3.516897112317293
 20
40.35894286399805
 30
0.0
 42
-0.4142138533540765
  0
VERTEX
  5
531
  8
MAIN
 10
3.315534469657704
 20
40.15758012311282
 30
0.0
  0
VERTEX
  5
532
  8
MAIN
 10
3.134171922938377
 20
40.15758012555186
 30
0.0
  0
VERTEX
  5
533
  8
MAIN
 10
3.134171922938362
 20
39.79470896586497
 30
0.0
  0
VERTEX
  5
534
  8
MAIN
 10
3.315534555688215
 20
39.794709140365
 30
0.0
 42
-0.4142144106622694
  0
VERTEX
  5
535
  8
MAIN
 10
3.516897018969699
 20
39.59334639704073
 30
0.0
  0
VERTEX
  5
536
  8
MAIN
 10
3.516897112317279
 20
39.40198405050806
 30
0.0
 42
-0.4142138533540923
  0
VERTEX
  5
537
  8
MAIN
 10
3.315534469657676
 20
39.20062130962285
 30
0.0
  0
VERTEX
  5
538
  8
MAIN
 10
2.434171922938374
 20
39.20062130962286
 30
0.0
  0
VERTEX
  5
539
  8
MAIN
 10
2.434171922938345
 20
38.26380857163903
 30
0.0
  0
VERTEX
  5
53A
  8
MAIN
 10
3.315534559518978
 20
38.2638087562397
 30
0.0
 42
-0.4142144050902045
  0
VERTEX
  5
53B
  8
MAIN
 10
3.51689701896967
 20
38.06244601291543
 30
0.0
  0
VERTEX
  5
53C
  8
MAIN
 10
3.516897112317237
 20
37.87108366638277
 30
0.0
 42
-0.4142138619189972
  0
VERTEX
  5
53D
  8
MAIN
 10
3.315534469657633
 20
37.66972092793657
 30
0.0
  0
VERTEX
  5
53E
  8
MAIN
 10
3.13417192293832
 20
37.66972092793658
 30
0.0
  0
VERTEX
  5
53F
  8
MAIN
 10
3.134171922938306
 20
37.30684976824969
 30
0.0
  0
VERTEX
  5
540
  8
MAIN
 10
3.31553455568813
 20
37.30684994518874
 30
0.0
 42
-0.4142144020974006
  0
VERTEX
  5
541
  8
MAIN
 10
3.516897018969642
 20
37.10548719942545
 30
0.0
  0
VERTEX
  5
542
  8
MAIN
 10
3.516897112317222
 20
36.91412485289278
 30
0.0
 42
-0.4142138533540973
  0
VERTEX
  5
543
  8
MAIN
 10
3.315534469657619
 20
36.71276211200757
 30
0.0
  0
VERTEX
  5
544
  8
MAIN
 10
2.434171922938317
 20
36.71276211200758
 30
0.0
  0
VERTEX
  5
545
  8
MAIN
 10
2.434171922938289
 20
35.77594937402375
 30
0.0
  0
VERTEX
  5
546
  8
MAIN
 10
3.315534559518921
 20
35.77594955862442
 30
0.0
 42
-0.4142144050902648
  0
VERTEX
  5
547
  8
MAIN
 10
3.516897018969614
 20
35.57458681530015
 30
0.0
  0
VERTEX
  5
548
  8
MAIN
 10
3.51689711231718
 20
35.38322446876749
 30
0.0
 42
-0.4142138619189935
  0
VERTEX
  5
549
  8
MAIN
 10
3.315534469657576
 20
35.18186173032129
 30
0.0
  0
VERTEX
  5
54A
  8
MAIN
 10
3.134171922938263
 20
35.1818617303213
 30
0.0
  0
VERTEX
  5
54B
  8
MAIN
 10
3.134171922938249
 20
34.81899057063441
 30
0.0
  0
VERTEX
  5
54C
  8
MAIN
 10
3.315534555688073
 20
34.81899074757347
 30
0.0
 42
-0.414214402097414
  0
VERTEX
  5
54D
  8
MAIN
 10
3.516897018969585
 20
34.61762800181017
 30
0.0
  0
VERTEX
  5
54E
  8
MAIN
 10
3.516897112317166
 20
34.4262656552775
 30
0.0
 42
-0.4142138533540923
  0
VERTEX
  5
54F
  8
MAIN
 10
3.315534469657562
 20
34.22490291439229
 30
0.0
  0
VERTEX
  5
550
  8
MAIN
 10
2.43417192293826
 20
34.2249029143923
 30
0.0
  0
VERTEX
  5
551
  8
MAIN
 10
2.434171922938232
 20
33.28809017640847
 30
0.0
  0
VERTEX
  5
552
  8
MAIN
 10
3.315534559518865
 20
33.28809036100914
 30
0.0
 42
-0.4142144050902449
  0
VERTEX
  5
553
  8
MAIN
 10
3.516897018969557
 20
33.08672761768487
 30
0.0
  0
VERTEX
  5
554
  8
MAIN
 10
3.516897112317123
 20
32.89536527115222
 30
0.0
 42
-0.4142138533540755
  0
VERTEX
  5
555
  8
MAIN
 10
3.315534469657534
 20
32.69400253026699
 30
0.0
  0
VERTEX
  5
556
  8
MAIN
 10
3.13417192293822
 20
32.69400253026699
 30
0.0
  0
VERTEX
  5
557
  8
MAIN
 10
3.134171922938192
 20
32.33113137301913
 30
0.0
  0
VERTEX
  5
558
  8
MAIN
 10
3.315534555688044
 20
32.33113154751916
 30
0.0
 42
-0.4142144106622556
  0
VERTEX
  5
559
  8
MAIN
 10
3.516897018969528
 20
32.1297688041949
 30
0.0
  0
VERTEX
  5
55A
  8
MAIN
 10
3.516897112317109
 20
31.93840645766223
 30
0.0
 42
-0.4142138533540923
  0
VERTEX
  5
55B
  8
MAIN
 10
3.315534469657505
 20
31.73704371677701
 30
0.0
  0
VERTEX
  5
55C
  8
MAIN
 10
2.434171922938203
 20
31.73704371677702
 30
0.0
  0
VERTEX
  5
55D
  8
MAIN
 10
2.434171922938175
 20
30.80023097879318
 30
0.0
  0
VERTEX
  5
55E
  8
MAIN
 10
3.315534559518808
 20
30.80023116339386
 30
0.0
 42
-0.4142144050902393
  0
VERTEX
  5
55F
  8
MAIN
 10
3.5168970189695
 20
30.59886842006959
 30
0.0
  0
VERTEX
  5
560
  8
MAIN
 10
3.516897112317066
 20
30.40750607353694
 30
0.0
  0
SEQEND
  5
561
  8
MAIN
  0
POLYLINE
  5
562
  8
MAIN
 66
     1
 10
0.0
 20
0.0
 30
0.0
  0
VERTEX
  5
563
  8
MAIN
 10
35.93351082718436
 20
12.47177754730059
 30
0.0
 42
-0.4142135623731548
  0
VERTEX
  5
564
  8
MAIN
 10
35.72980418468588
 20
12.27555419547416
 30
0.0
  0
VERTEX
  5
565
  8
MAIN
 10
33.09769106093314
 20
12.32480498402704
 30
0.0
 42
-0.4142135623730825
  0
VERTEX
  5
566
  8
MAIN
 10
32.9014677091067
 20
12.52851162652551
 30
0.0
  0
VERTEX
  5
567
  8
MAIN
 10
32.91456346778273
 20
13.2283891165941
 30
0.0
 42
-0.4142135623731322
  0
VERTEX
  5
568
  8
MAIN
 10
33.11827011028118
 20
13.42461246842053
 30
0.0
  0
VERTEX
  5
569
  8
MAIN
 10
35.75038323403391
 20
13.37536167986711
 30
0.0
 42
-0.4142135623731119
  0
VERTEX
  5
56A
  8
MAIN
 10
35.94660658586037
 20
13.17165503736867
 30
0.0
  0
VERTEX
  5
56B
  8
MAIN
 10
35.93351082718436
 20
12.47177754730059
 30
0.0
  0
SEQEND
  5
56C
  8
MAIN
  0
POLYLINE
  5
56D
  8
MAIN
 66
     1
 10
0.0
 20
0.0
 30
0.0
  0
VERTEX
  5
56E
  8
MAIN
 10
17.20813056378525
 20
2.243876583288039
 30
0.0
  0
VERTEX
  5
56F
  8
MAIN
 10
17.20813056378532
 20
2.04987658328806
 30
0.0
 42
-0.414213562373094
  0
VERTEX
  5
570
  8
MAIN
 10
16.81213056378547
 20
1.653876583287907
 30
0.0
  0
VERTEX
  5
571
  8
MAIN
 10
15.32813056378545
 20
1.653876583287389
 30
0.0
  0
VERTEX
  5
572
  8
MAIN
 10
15.32813056378532
 20
2.05387658328738
 30
0.0000000000000003
  0
VERTEX
  5
573
  8
MAIN
 10
15.8281305637853
 20
2.053876583287548
 30
0.0000000000000005
 42
0.9999999999999999
  0
VERTEX
  5
574
  8
MAIN
 10
15.82813056378516
 20
2.433876583287546
 30
0.0000000000000005
  0
VERTEX
  5
575
  8
MAIN
 10
15.32813056378517
 20
2.433876583287378
 30
0.0000000000000003
 42
0.2429577986671003
  0
VERTEX
  5
576
  8
MAIN
 10
15.1732112299367
 20
2.353876583287043
 30
0.0000000000000003
  0
VERTEX
  5
577
  8
MAIN
 10
14.60813056378508
 20
2.353876583286731
 30
0.0000000000000006
  0
VERTEX
  5
578
  8
MAIN
 10
14.60813056378504
 20
2.449784768648411
 30
0.0000000000000006
 42
0.4142135623730927
  0
VERTEX
  5
579
  8
MAIN
 10
14.41813056378498
 20
2.639784768648344
 30
0.0000000000000006
  0
VERTEX
  5
57A
  8
MAIN
 10
13.65909788156735
 20
2.639784768648083
 30
0.0000000000000006
 42
0.4142135623730941
  0
VERTEX
  5
57B
  8
MAIN
 10
13.46909788156741
 20
2.449784768648012
 30
0.0000000000000006
  0
VERTEX
  5
57C
  8
MAIN
 10
13.46909788156758
 20
1.985974170793209
 30
0.0000000000000006
 42
-0.4142063044982713
  0
VERTEX
  5
57D
  8
MAIN
 10
13.13709788307123
 20
1.653968354481425
 30
-0.0000000000000002
  0
VERTEX
  5
57E
  8
MAIN
 10
10.95277155221117
 20
1.653968354480661
 30
-0.0000000000000002
 42
-0.4142135623730948
  0
VERTEX
  5
57F
  8
MAIN
 10
10.55652402003876
 20
2.050215886652797
 30
-0.0000000000000002
  0
VERTEX
  5
580
  8
MAIN
 10
10.99555670225634
 20
2.220906071880936
 30
0.0000000000000001
  0
VERTEX
  5
581
  8
MAIN
 10
10.99555670225636
 20
2.131640457155344
 30
0.0000000000000005
 42
0.4142135623730502
  0
VERTEX
  5
582
  8
MAIN
 10
11.1855567022564
 20
1.941640457155419
 30
0.0000000000000005
  0
VERTEX
  5
583
  8
MAIN
 10
12.99109788164783
 20
1.941640457156028
 30
-0.0000000000000002
 42
0.4142242154247824
  0
VERTEX
  5
584
  8
MAIN
 10
13.18109788152209
 20
2.131647367770835
 30
-0.0000000000000002
  0
VERTEX
  5
585
  8
MAIN
 10
13.18109788158493
 20
2.479784768649559
 30
-0.0000000000000002
 42
0.4142135623730857
  0
VERTEX
  5
586
  8
MAIN
 10
12.99109788158493
 20
2.669784768649539
 30
-0.0000000000000002
  0
VERTEX
  5
587
  8
MAIN
 10
10.59903214604192
 20
2.669784768649411
 30
-0.0000000000000002
 42
0.1989124128203595
  0
VERTEX
  5
588
  8
MAIN
 10
10.42225541983679
 20
2.596561433037547
 30
-0.0000000000000002
  0
VERTEX
  5
589
  8
MAIN
 10
10.25279393404915
 20
2.42709988799096
 30
-0.0000000000000002
 42
-0.1989123673796613
  0
VERTEX
  5
58A
  8
MAIN
 10
10.0760172387525
 20
2.353876583287619
 30
-0.0000000000000002
  0
VERTEX
  5
58B
  8
MAIN
 10
7.764524020039055
 20
2.353876583287121
 30
0.0000000000000005
 42
-0.2618553124591126
  0
VERTEX
  5
58C
  8
MAIN
 10
8.995135698538801
 20
3.158501425689796
 30
0.0000000000000004
  0
VERTEX
  5
58D
  8
MAIN
 10
15.78025307013514
 20
3.61283602816625
 30
0.0000000000000003
 42
0.3947634397290181
  0
VERTEX
  5
58E
  8
MAIN
 10
17.6466313686356
 20
5.608367726877685
 30
0.0000000000000003
  0
VERTEX
  5
58F
  8
MAIN
 10
17.64663136863561
 20
15.6993854396964
 30
0.0000000000000003
 42
0.3947634397290188
  0
VERTEX
  5
590
  8
MAIN
 10
15.78025307013516
 20
17.69491713840781
 30
0.0000000000000003
  0
VERTEX
  5
591
  8
MAIN
 10
8.995135698538808
 20
18.14925174088425
 30
0.0000000000000004
 42
-0.2618553124591127
  0
VERTEX
  5
592
  8
MAIN
 10
7.764524020039046
 20
18.95387658328695
 30
0.0000000000000005
  0
VERTEX
  5
593
  8
MAIN
 10
10.07601723875251
 20
18.95387658328644
 30
-0.0000000000000002
 42
-0.1989123673796609
  0
VERTEX
  5
594
  8
MAIN
 10
10.25279393404915
 20
18.88065327858311
 30
-0.0000000000000002
  0
VERTEX
  5
595
  8
MAIN
 10
10.42225541983679
 20
18.71119173353652
 30
-0.0000000000000002
 42
0.1989124128203595
  0
VERTEX
  5
596
  8
MAIN
 10
10.59903214604192
 20
18.63796839792465
 30
-0.0000000000000002
  0
VERTEX
  5
597
  8
MAIN
 10
12.99109788158492
 20
18.63796839792452
 30
-0.0000000000000002
 42
0.4142135623730814
  0
VERTEX
  5
598
  8
MAIN
 10
13.18109788158494
 20
18.8279683979245
 30
-0.0000000000000002
  0
VERTEX
  5
599
  8
MAIN
 10
13.18109788152208
 20
19.17610579880322
 30
-0.0000000000000002
 42
0.4142242154247791
  0
VERTEX
  5
59A
  8
MAIN
 10
12.99109788164783
 20
19.36611270941803
 30
-0.0000000000000002
  0
VERTEX
  5
59B
  8
MAIN
 10
11.1855567022564
 20
19.36611270941864
 30
0.0000000000000005
 42
0.4142135623730522
  0
VERTEX
  5
59C
  8
MAIN
 10
10.99555670225636
 20
19.17611270941871
 30
0.0000000000000005
  0
VERTEX
  5
59D
  8
MAIN
 10
10.99555670225634
 20
19.08684709469312
 30
0.0000000000000001
  0
VERTEX
  5
59E
  8
MAIN
 10
10.55652402003876
 20
19.25753727992127
 30
-0.0000000000000002
 42
-0.4142135623730941
  0
VERTEX
  5
59F
  8
MAIN
 10
10.95277155221117
 20
19.6537848120934
 30
-0.0000000000000002
  0
VERTEX
  5
5A0
  8
MAIN
 10
13.13709788307122
 20
19.65378481209263
 30
-0.0000000000000002
 42
-0.4142063044982784
  0
VERTEX
  5
5A1
  8
MAIN
 10
13.46909788156758
 20
19.32177899578084
 30
0.0000000000000006
  0
VERTEX
  5
5A2
  8
MAIN
 10
13.46909788156742
 20
18.85796839792605
 30
0.0000000000000006
 42
0.4142135623730948
  0
VERTEX
  5
5A3
  8
MAIN
 10
13.65909788156735
 20
18.66796839792598
 30
0.0000000000000006
  0
VERTEX
  5
5A4
  8
MAIN
 10
14.41813056378498
 20
18.66796839792571
 30
0.0000000000000006
 42
0.4142135623730947
  0
VERTEX
  5
5A5
  8
MAIN
 10
14.60813056378504
 20
18.85796839792564
 30
0.0000000000000006
  0
VERTEX
  5
5A6
  8
MAIN
 10
14.60813056378508
 20
18.95387658328732
 30
0.0000000000000006
  0
VERTEX
  5
5A7
  8
MAIN
 10
15.1732112299367
 20
18.95387658328701
 30
0.0000000000000003
 42
0.2429577986671
  0
VERTEX
  5
5A8
  8
MAIN
 10
15.32813056378516
 20
18.87387658328668
 30
0.0000000000000003
  0
VERTEX
  5
5A9
  8
MAIN
 10
15.82813056378517
 20
18.87387658328651
 30
0.0000000000000005
 42
0.9999999999999999
  0
VERTEX
  5
5AA
  8
MAIN
 10
15.82813056378531
 20
19.25387658328651
 30
0.0000000000000005
  0
VERTEX
  5
5AB
  8
MAIN
 10
15.32813056378532
 20
19.25387658328668
 30
0.0000000000000003
  0
VERTEX
  5
5AC
  8
MAIN
 10
15.32813056378545
 20
19.65387658328667
 30
0.0
  0
VERTEX
  5
5AD
  8
MAIN
 10
16.81213056378547
 20
19.65387658328616
 30
0.0
 42
-0.414213562373098
  0
VERTEX
  5
5AE
  8
MAIN
 10
17.20813056378532
 20
19.257876583286
 30
0.0
  0
VERTEX
  5
5AF
  8
MAIN
 10
17.20813056378524
 20
19.06387658328602
 30
0.0
 42
0.4142135623731063
  0
VERTEX
  5
5B0
  8
MAIN
 10
17.39813056378519
 20
18.87387658328596
 30
0.0
  0
VERTEX
  5
5B1
  8
MAIN
 10
17.65321122993678
 20
18.87387658328586
 30
0.0
 42
0.2429577986668595
  0
VERTEX
  5
5B2
  8
MAIN
 10
17.80813056378519
 20
18.95387658328596
 30
0.0
  0
VERTEX
  5
5B3
  8
MAIN
 10
18.69663136863156
 20
18.95387658328596
 30
0.0000000000000002
 42
-0.414213562373095
  0
VERTEX
  5
5B4
  8
MAIN
 10
19.74663136863156
 20
17.90387658328595
 30
0.0
  0
VERTEX
  5
5B5
  8
MAIN
 10
19.74663136863323
 20
15.50387658328663
 30
0.0
 42
0.9999999999999999
  0
VERTEX
  5
5B6
  8
MAIN
 10
20.44663136863323
 20
15.50387658328663
 30
0.0
  0
VERTEX
  5
5B7
  8
MAIN
 10
20.44663136863489
 20
17.90387658328767
 30
0.0
 42
-0.4142135623730932
  0
VERTEX
  5
5B8
  8
MAIN
 10
21.49663136863563
 20
18.95387658328694
 30
0.0
  0
VERTEX
  5
5B9
  8
MAIN
 10
24.71171203478754
 20
18.95387658328789
 30
0.0
 42
0.2429577986670957
  0
VERTEX
  5
5BA
  8
MAIN
 10
24.866631368636
 20
18.87387658328757
 30
0.0
  0
VERTEX
  5
5BB
  8
MAIN
 10
25.366631368636
 20
18.87387658328739
 30
0.0000000000000002
 42
0.9999999999999999
  0
VERTEX
  5
5BC
  8
MAIN
 10
25.36663136863614
 20
19.25387658328739
 30
0.0000000000000002
  0
VERTEX
  5
5BD
  8
MAIN
 10
24.86663136863616
 20
19.25387658328756
 30
0.0
  0
VERTEX
  5
5BE
  8
MAIN
 10
24.86663136863628
 20
19.65387658328755
 30
-0.0000000000000003
  0
VERTEX
  5
5BF
  8
MAIN
 10
26.35063136863629
 20
19.65387658328704
 30
-0.0000000000000003
 42
-0.414213562373098
  0
VERTEX
  5
5C0
  8
MAIN
 10
26.74663136863614
 20
19.25787658328688
 30
-0.0000000000000003
  0
VERTEX
  5
5C1
  8
MAIN
 10
26.74663136863605
 20
19.06387658328691
 30
-0.0000000000000003
 42
0.4142135623731018
  0
VERTEX
  5
5C2
  8
MAIN
 10
26.93663136863599
 20
18.87387658328684
 30
-0.0000000000000003
  0
VERTEX
  5
5C3
  8
MAIN
 10
27.1917120347876
 20
18.87387658328674
 30
-0.0000000000000003
 42
0.2429577986668595
  0
VERTEX
  5
5C4
  8
MAIN
 10
27.34663136863602
 20
18.95387658328684
 30
-0.0000000000000003
  0
VERTEX
  5
5C5
  8
MAIN
 10
29.12515726956748
 20
18.95387658328644
 30
-0.0000000000000008
 42
-0.1989123673796643
  0
VERTEX
  5
5C6
  8
MAIN
 10
29.30193396486413
 20
18.88065327858311
 30
-0.0000000000000008
  0
VERTEX
  5
5C7
  8
MAIN
 10
29.47139545065177
 20
18.71119173353652
 30
-0.0000000000000008
 42
0.1989124128203569
  0
VERTEX
  5
5C8
  8
MAIN
 10
29.6481721768569
 20
18.63796839792465
 30
-0.0000000000000008
  0
VERTEX
  5
5C9
  8
MAIN
 10
32.04023791239992
 20
18.63796839792452
 30
-0.0000000000000008
 42
0.4142135623730859
  0
VERTEX
  5
5CA
  8
MAIN
 10
32.23023791239992
 20
18.8279683979245
 30
-0.0000000000000008
  0
VERTEX
  5
5CB
  8
MAIN
 10
32.23023791233707
 20
19.17610579880322
 30
-0.0000000000000008
 42
0.4142242154247745
  0
VERTEX
  5
5CC
  8
MAIN
 10
32.04023791246281
 20
19.36611270941804
 30
-0.0000000000000008
  0
VERTEX
  5
5CD
  8
MAIN
 10
30.23469673307138
 20
19.36611270941864
 30
-0.0000000000000002
 42
0.4142135623730561
  0
VERTEX
  5
5CE
  8
MAIN
 10
30.04469673307134
 20
19.17611270941871
 30
-0.0000000000000002
  0
VERTEX
  5
5CF
  8
MAIN
 10
30.04469673307131
 20
19.08684709469312
 30
-0.0000000000000005
  0
VERTEX
  5
5D0
  8
MAIN
 10
29.60566405085375
 20
19.25753727992127
 30
-0.0000000000000008
 42
-0.4142135623730923
  0
VERTEX
  5
5D1
  8
MAIN
 10
30.00191158302615
 20
19.6537848120934
 30
-0.0000000000000008
  0
VERTEX
  5
5D2
  8
MAIN
 10
32.18623791388619
 20
19.65378481209263
 30
-0.0000000000000008
 42
-0.4142063044982731
  0
VERTEX
  5
5D3
  8
MAIN
 10
32.51823791238255
 20
19.32177899578084
 30
0.0
  0
VERTEX
  5
5D4
  8
MAIN
 10
32.5182379123824
 20
18.85796839792605
 30
0.0
 42
0.4142135623730986
  0
VERTEX
  5
5D5
  8
MAIN
 10
32.70823791238232
 20
18.66796839792598
 30
0.0
  0
VERTEX
  5
5D6
  8
MAIN
 10
33.46727059459995
 20
18.66796839792571
 30
0.0
 42
0.4142135623730986
  0
VERTEX
  5
5D7
  8
MAIN
 10
33.65727059460003
 20
18.85796839792564
 30
0.0
  0
VERTEX
  5
5D8
  8
MAIN
 10
33.65727059460006
 20
18.95387658328732
 30
0.0
  0
VERTEX
  5
5D9
  8
MAIN
 10
38.64701055261165
 20
18.95387658328702
 30
0.0
 42
-0.4142135623730951
  0
VERTEX
  5
5DA
  8
MAIN
 10
37.64701055261165
 20
17.95387658328702
 30
0.0
  0
VERTEX
  5
5DB
  8
MAIN
 10
24.54663136862984
 20
17.95387658328703
 30
0.0
 42
0.414213562373095
  0
VERTEX
  5
5DC
  8
MAIN
 10
22.54663136862984
 20
15.95387658328703
 30
0.0
  0
VERTEX
  5
5DD
  8
MAIN
 10
22.54663136862984
 20
5.353876583287029
 30
0.0
 42
0.4142135623730948
  0
VERTEX
  5
5DE
  8
MAIN
 10
24.54663136862984
 20
3.353876583287029
 30
0.0
  0
VERTEX
  5
5DF
  8
MAIN
 10
37.64701055261165
 20
3.353876583287036
 30
0.0
 42
-0.4142135623730945
  0
VERTEX
  5
5E0
  8
MAIN
 10
38.64701055261165
 20
2.353876583287036
 30
0.0
  0
VERTEX
  5
5E1
  8
MAIN
 10
33.65727059460006
 20
2.353876583286731
 30
0.0
  0
VERTEX
  5
5E2
  8
MAIN
 10
33.65727059460001
 20
2.449784768648411
 30
0.0
 42
0.4142135623730975
  0
VERTEX
  5
5E3
  8
MAIN
 10
33.46727059459996
 20
2.639784768648344
 30
0.0
  0
VERTEX
  5
5E4
  8
MAIN
 10
32.70823791238233
 20
2.639784768648083
 30
0.0
 42
0.4142135623730945
  0
VERTEX
  5
5E5
  8
MAIN
 10
32.5182379123824
 20
2.449784768648012
 30
0.0
  0
VERTEX
  5
5E6
  8
MAIN
 10
32.51823791238255
 20
1.985974170793209
 30
0.0
 42
-0.4142063044982695
  0
VERTEX
  5
5E7
  8
MAIN
 10
32.18623791388621
 20
1.653968354481425
 30
-0.0000000000000008
  0
VERTEX
  5
5E8
  8
MAIN
 10
30.00191158302616
 20
1.653968354480661
 30
-0.0000000000000008
 42
-0.4142135623730966
  0
VERTEX
  5
5E9
  8
MAIN
 10
29.60566405085374
 20
2.050215886652797
 30
-0.0000000000000008
  0
VERTEX
  5
5EA
  8
MAIN
 10
30.04469673307131
 20
2.220906071880936
 30
-0.0000000000000005
  0
VERTEX
  5
5EB
  8
MAIN
 10
30.04469673307134
 20
2.131640457155344
 30
-0.0000000000000002
 42
0.4142135623730447
  0
VERTEX
  5
5EC
  8
MAIN
 10
30.23469673307138
 20
1.941640457155412
 30
-0.0000000000000002
  0
VERTEX
  5
5ED
  8
MAIN
 10
32.04023791246282
 20
1.941640457156028
 30
-0.0000000000000008
 42
0.4142242154247832
  0
VERTEX
  5
5EE
  8
MAIN
 10
32.23023791233707
 20
2.131647367770835
 30
-0.0000000000000008
  0
VERTEX
  5
5EF
  8
MAIN
 10
32.23023791239993
 20
2.479784768649556
 30
-0.0000000000000008
 42
0.4142135623730873
  0
VERTEX
  5
5F0
  8
MAIN
 10
32.04023791239991
 20
2.669784768649539
 30
-0.0000000000000008
  0
VERTEX
  5
5F1
  8
MAIN
 10
29.6481721768569
 20
2.669784768649411
 30
-0.0000000000000008
 42
0.1989124128203591
  0
VERTEX
  5
5F2
  8
MAIN
 10
29.47139545065178
 20
2.596561433037547
 30
-0.0000000000000008
  0
VERTEX
  5
5F3
  8
MAIN
 10
29.30193396486413
 20
2.42709988799096
 30
-0.0000000000000008
 42
-0.1989123673796578
  0
VERTEX
  5
5F4
  8
MAIN
 10
29.12515726956749
 20
2.353876583287619
 30
-0.0000000000000008
  0
VERTEX
  5
5F5
  8
MAIN
 10
27.34663136863602
 20
2.35387658328723
 30
-0.0000000000000003
 42
0.2429577986668579
  0
VERTEX
  5
5F6
  8
MAIN
 10
27.19171203478761
 20
2.433876583287311
 30
-0.0000000000000003
  0
VERTEX
  5
5F7
  8
MAIN
 10
26.93663136863599
 20
2.433876583287221
 30
-0.0000000000000003
 42
0.4142135623731024
  0
VERTEX
  5
5F8
  8
MAIN
 10
26.74663136863605
 20
2.24387658328715
 30
-0.0000000000000003
  0
VERTEX
  5
5F9
  8
MAIN
 10
26.74663136863614
 20
2.049876583287179
 30
-0.0000000000000003
 42
-0.414213562373094
  0
VERTEX
  5
5FA
  8
MAIN
 10
26.35063136863629
 20
1.653876583287026
 30
-0.0000000000000003
  0
VERTEX
  5
5FB
  8
MAIN
 10
24.86663136863628
 20
1.653876583286507
 30
-0.0000000000000003
  0
VERTEX
  5
5FC
  8
MAIN
 10
24.86663136863616
 20
2.053876583286499
 30
0.0
  0
VERTEX
  5
5FD
  8
MAIN
 10
25.36663136863614
 20
2.053876583286667
 30
0.0000000000000002
 42
1.0
  0
VERTEX
  5
5FE
  8
MAIN
 10
25.366631368636
 20
2.433876583286665
 30
0.0000000000000002
  0
VERTEX
  5
5FF
  8
MAIN
 10
24.866631368636
 20
2.433876583286497
 30
0.0
 42
0.2429577986671048
  0
VERTEX
  5
600
  8
MAIN
 10
24.71171203478753
 20
2.353876583286162
 30
0.0
  0
VERTEX
  5
601
  8
MAIN
 10
21.49663136863563
 20
2.353876583287101
 30
0.0
 42
-0.4142135623730935
  0
VERTEX
  5
602
  8
MAIN
 10
20.4466313686349
 20
3.403876583286371
 30
0.0
  0
VERTEX
  5
603
  8
MAIN
 10
20.44663136863323
 20
5.803876583287437
 30
0.0
 42
0.9999999999999999
  0
VERTEX
  5
604
  8
MAIN
 10
19.74663136863324
 20
5.803876583287437
 30
0.0
  0
VERTEX
  5
605
  8
MAIN
 10
19.74663136863157
 20
3.403876583287394
 30
0.0000000000000001
 42
-0.4142135623730958
  0
VERTEX
  5
606
  8
MAIN
 10
18.69663136863085
 20
2.353876583288105
 30
0.0000000000000002
  0
VERTEX
  5
607
  8
MAIN
 10
17.80813056378519
 20
2.353876583288111
 30
0.0
 42
0.2429577986668579
  0
VERTEX
  5
608
  8
MAIN
 10
17.65321122993678
 20
2.433876583288193
 30
0.0
  0
VERTEX
  5
609
  8
MAIN
 10
17.39813056378519
 20
2.433876583288102
 30
0.0
 42
0.4142135623731125
  0
VERTEX
  5
60A
  8
MAIN
 10
17.20813056378525
 20
2.243876583288038
 30
0.0
  0
SEQEND
  5
60B
  8
MAIN
  0
POLYLINE
  5
60C
  8
MAIN
 66
     1
 10
0.0
 20
0.0
 30
0.0
  0
VERTEX
  5
60D
  8
MAIN
 10
27.84113482993285
 20
13.523694955675
 30
0.0
 42
-0.4142135623730881
  0
VERTEX
  5
60E
  8
MAIN
 10
28.03735818175929
 20
13.31998831317652
 30
0.0
  0
VERTEX
  5
60F
  8
MAIN
 10
28.02426242308326
 20
12.62011082310794
 30
0.0
 42
-0.4142135623730886
  0
VERTEX
  5
610
  8
MAIN
 10
27.8205557805848
 20
12.42388747128147
 30
0.0
  0
VERTEX
  5
611
  8
MAIN
 10
27.32064328767867
 20
12.43324158462148
 30
0.0
 42
-0.4142135623730495
  0
VERTEX
  5
612
  8
MAIN
 10
27.12441993585222
 20
12.63694822711996
 30
0.0
  0
VERTEX
  5
613
  8
MAIN
 10
27.13751569452827
 20
13.33682571718857
 30
0.0
 42
-0.414213562373112
  0
VERTEX
  5
614
  8
MAIN
 10
27.34122233702673
 20
13.53304906901501
 30
0.0
  0
VERTEX
  5
615
  8
MAIN
 10
27.84113482993285
 20
13.523694955675
 30
0.0
  0
SEQEND
  5
616
  8
MAIN
  0
POLYLINE
  5
617
  8
MAIN
 66
     1
 10
0.0
 20
0.0
 30
0.0
  0
VERTEX
  5
618
  8
MAIN
 10
33.11124387386048
 20
12.51458464906459
 30
0.0
  0
VERTEX
  5
619
  8
MAIN
 10
32.21140138662943
 20
12.53142205307661
 30
0.0
  0
VERTEX
  5
61A
  8
MAIN
 10
32.22487130983905
 20
13.25129604286145
 30
0.0
  0
VERTEX
  5
61B
  8
MAIN
 10
33.12471379707011
 20
13.2344586388494
 30
0.0
  0
VERTEX
  5
61C
  8
MAIN
 10
33.11124387386048
 20
12.51458464906459
 30
0.0
  0
SEQEND
  5
61D
  8
MAIN
  0
POLYLINE
  5
61E
  8
MAIN
 66
     1
 10
0.0
 20
0.0
 30
0.0
  0
VERTEX
  5
61F
  8
MAIN
 10
31.05901523836418
 20
12.36295166965401
 30
0.0
  0
VERTEX
  5
620
  8
MAIN
 10
32.21784507341834
 20
12.34126822350549
 30
0.0
 42
0.4142135623731749
  0
VERTEX
  5
621
  8
MAIN
 10
32.42155171591681
 20
12.53749157533194
 30
0.0
  0
VERTEX
  5
622
  8
MAIN
 10
32.43464747443277
 20
13.23736905684625
 30
0.0
 42
0.4142135749026863
  0
VERTEX
  5
623
  8
MAIN
 10
32.2384241311068
 20
13.44107570774291
 30
0.0
  0
VERTEX
  5
624
  8
MAIN
 10
31.07959428771222
 20
13.46275915404748
 30
0.0
 42
0.4142135623731277
  0
VERTEX
  5
625
  8
MAIN
 10
30.87588764521377
 20
13.26653580222104
 30
0.0
  0
VERTEX
  5
626
  8
MAIN
 10
30.86279188653774
 20
12.56665831215247
 30
0.0
 42
0.4142135623731644
  0
VERTEX
  5
627
  8
MAIN
 10
31.05901523836418
 20
12.36295166965401
 30
0.0
  0
SEQEND
  5
628
  8
MAIN
  0
POLYLINE
  5
629
  8
MAIN
 66
     1
 10
0.0
 20
0.0
 30
0.0
  0
VERTEX
  5
62A
  8
MAIN
 10
5.673741234537557
 20
43.26261787316038
 30
0.0
  0
VERTEX
  5
62B
  8
MAIN
 10
5.893096737901386
 20
43.2794453252551
 30
0.0
 42
0.3996375341443027
  0
VERTEX
  5
62C
  8
MAIN
 10
6.077728608727361
 20
43.48416726417545
 30
0.0
  0
VERTEX
  5
62D
  8
MAIN
 10
7.055356516375746
 20
43.55916418255762
 30
0.0
 42
0.9752971977394559
  0
VERTEX
  5
62E
  8
MAIN
 10
7.45317039651909
 20
43.59971112063006
 30
0.0
  0
VERTEX
  5
62F
  8
MAIN
 10
7.399628503490318
 20
44.29766044951499
 30
0.0
 42
0.9752971977395025
  0
VERTEX
  5
630
  8
MAIN
 10
7.000284854974707
 20
44.27705492083923
 30
0.0
  0
VERTEX
  5
631
  8
MAIN
 10
6.022656947326365
 20
44.20205800245652
 30
0.0
 42
0.3996375341443292
  0
VERTEX
  5
632
  8
MAIN
 10
5.808959477427633
 20
44.37622284207367
 30
0.0
  0
VERTEX
  5
633
  8
MAIN
 10
5.052150404348351
 20
44.31816563253562
 30
0.0
 42
0.4142135623731116
  0
VERTEX
  5
634
  8
MAIN
 10
4.868033994103731
 20
44.10345385484601
 30
0.0
  0
VERTEX
  5
635
  8
MAIN
 10
4.921575887132475
 20
43.40550452596165
 30
0.0
 42
0.4142135623731284
  0
VERTEX
  5
636
  8
MAIN
 10
5.136287664822097
 20
43.22138811571706
 30
0.0
  0
VERTEX
  5
637
  8
MAIN
 10
5.673741234537557
 20
43.26261787316038
 30
0.0
  0
SEQEND
  5
638
  8
MAIN
  0
POLYLINE
  5
639
  8
MAIN
 66
     1
 10
0.0
 20
0.0
 30
0.0
  0
VERTEX
  5
63A
  8
MAIN
 10
11.40962727658905
 20
44.61564977700161
 30
0.0
  0
VERTEX
  5
63B
  8
MAIN
 10
12.30699069944107
 20
44.68448935375291
 30
0.0
  0
VERTEX
  5
63C
  8
MAIN
 10
12.36206236084212
 20
43.96659861547128
 30
0.0
  0
VERTEX
  5
63D
  8
MAIN
 10
11.46469893799008
 20
43.89775903872
 30
0.0
  0
VERTEX
  5
63E
  8
MAIN
 10
11.40962727658905
 20
44.61564977700161
 30
0.0
  0
SEQEND
  5
63F
  8
MAIN
  0
POLYLINE
  5
640
  8
MAIN
 66
     1
 10
0.0
 20
0.0
 30
0.0
  0
VERTEX
  5
641
  8
MAIN
 10
8.59608711451507
 20
44.38978486121728
 30
0.0
 42
-0.4142135623730628
  0
VERTEX
  5
642
  8
MAIN
 10
8.780203524759683
 20
44.60449663890691
 30
0.0
  0
VERTEX
  5
643
  8
MAIN
 10
11.40506518175103
 20
44.80585805045649
 30
0.0
 42
-0.4142135623731256
  0
VERTEX
  5
644
  8
MAIN
 10
11.61977695944065
 20
44.62174164021189
 30
0.0
  0
VERTEX
  5
645
  8
MAIN
 10
11.67331885246943
 20
43.92379231132698
 30
0.0
 42
-0.4142135623730083
  0
VERTEX
  5
646
  8
MAIN
 10
11.48920244222482
 20
43.70908053363733
 30
0.0
  0
VERTEX
  5
647
  8
MAIN
 10
8.86434078523345
 20
43.50771912208829
 30
0.0
 42
-0.4142135623730275
  0
VERTEX
  5
648
  8
MAIN
 10
8.649629007543806
 20
43.69183553233289
 30
0.0
  0
VERTEX
  5
649
  8
MAIN
 10
8.59608711451507
 20
44.38978486121728
 30
0.0
  0
SEQEND
  5
64A
  8
MAIN
  0
POLYLINE
  5
64B
  8
MAIN
 66
     1
 10
0.0
 20
0.0
 30
0.0
  0
VERTEX
  5
64C
  8
MAIN
 10
9.133837899189372
 20
26.38383311190388
 30
0.0
 42
-0.4142135623730434
  0
VERTEX
  5
64D
  8
MAIN
 10
9.00838425789547
 20
26.6373314035867
 30
0.0
  0
VERTEX
  5
64E
  8
MAIN
 10
9.232462396076029
 20
27.30049728629596
 30
0.0
 42
-0.4142135623730973
  0
VERTEX
  5
64F
  8
MAIN
 10
9.485960687758825
 20
27.42595092758987
 30
0.0
  0
VERTEX
  5
650
  8
MAIN
 10
9.959650603979723
 20
27.26589511460378
 30
0.0
 42
-0.4142135623730587
  0
VERTEX
  5
651
  8
MAIN
 10
10.08510424527364
 20
27.01239682292096
 30
0.0
  0
VERTEX
  5
652
  8
MAIN
 10
9.86102610709308
 20
26.34923094021171
 30
0.0
 42
-0.4142135623731339
  0
VERTEX
  5
653
  8
MAIN
 10
9.607527815410284
 20
26.2237772989178
 30
0.0
  0
VERTEX
  5
654
  8
MAIN
 10
9.133837899189372
 20
26.38383311190388
 30
0.0
  0
SEQEND
  5
655
  8
MAIN
  0
POLYLINE
  5
656
  8
MAIN
 66
     1
 10
0.0
 20
0.0
 30
0.0
  0
VERTEX
  5
657
  8
MAIN
 10
34.57437058881512
 20
25.89457522399137
 30
0.0
  0
VERTEX
  5
658
  8
MAIN
 10
33.7217287396175
 20
25.60647476061638
 30
0.0
  0
VERTEX
  5
659
  8
MAIN
 10
33.95220911031749
 20
24.9243612812583
 30
0.0
  0
VERTEX
  5
65A
  8
MAIN
 10
34.80485095951511
 20
25.2124617446333
 30
0.0
  0
VERTEX
  5
65B
  8
MAIN
 10
34.57437058881512
 20
25.89457522399137
 30
0.0
  0
SEQEND
  5
65C
  8
MAIN
  0
POLYLINE
  5
65D
  8
MAIN
 66
     1
 10
0.0
 20
0.0
 30
0.0
  0
VERTEX
  5
65E
  8
MAIN
 10
10.74837874293529
 20
26.78864013390709
 30
0.0
 42
-0.4142135623731235
  0
VERTEX
  5
65F
  8
MAIN
 10
11.0018770346181
 20
26.91409377520101
 30
0.0
  0
VERTEX
  5
660
  8
MAIN
 10
13.49592441844405
 20
26.0713762758956
 30
0.0
 42
-0.4142135623730715
  0
VERTEX
  5
661
  8
MAIN
 10
13.62137805973795
 20
25.81787798421279
 30
0.0
  0
VERTEX
  5
662
  8
MAIN
 10
13.39729992155739
 20
25.15471210150354
 30
0.0
 42
-0.4142135623730675
  0
VERTEX
  5
663
  8
MAIN
 10
13.14380162987459
 20
25.02925846020962
 30
0.0
  0
VERTEX
  5
664
  8
MAIN
 10
10.64975424604886
 20
25.87197595951552
 30
0.0
 42
-0.4142135623730351
  0
VERTEX
  5
665
  8
MAIN
 10
10.52430060475491
 20
26.12547425119833
 30
0.0
  0
VERTEX
  5
666
  8
MAIN
 10
10.74837874293529
 20
26.78864013390709
 30
0.0
  0
SEQEND
  5
667
  8
MAIN
  0
POLYLINE
  5
668
  8
MAIN
 66
     1
 10
0.0
 20
0.0
 30
0.0
  0
VERTEX
  5
669
  8
MAIN
 10
7.269053986274484
 20
43.38499934294043
 30
0.0
 42
-0.414213562373111
  0
VERTEX
  5
66A
  8
MAIN
 10
7.054342208584847
 20
43.56911575318503
 30
0.0
  0
VERTEX
  5
66B
  8
MAIN
 10
7.000800315556061
 20
44.26706508206998
 30
0.0
 42
-0.4142135623730192
  0
VERTEX
  5
66C
  8
MAIN
 10
7.184916725800681
 20
44.48177685975961
 30
0.0
  0
VERTEX
  5
66D
  8
MAIN
 10
7.68345196071847
 20
44.52002106906586
 30
0.0
 42
-0.4142135623730874
  0
VERTEX
  5
66E
  8
MAIN
 10
7.898163738408114
 20
44.33590465882126
 30
0.0
  0
VERTEX
  5
66F
  8
MAIN
 10
7.951705631436893
 20
43.63795532993633
 30
0.0
 42
-0.414213562373076
  0
VERTEX
  5
670
  8
MAIN
 10
7.76758922119228
 20
43.4232435522467
 30
0.0
  0
VERTEX
  5
671
  8
MAIN
 10
7.269053986274484
 20
43.38499934294043
 30
0.0
  0
SEQEND
  5
672
  8
MAIN
  0
POLYLINE
  5
673
  8
MAIN
 66
     1
 10
0.0
 20
0.0
 30
0.0
  0
VERTEX
  5
674
  8
MAIN
 10
30.13298344945136
 20
14.92745224792101
 30
0.0
  0
VERTEX
  5
675
  8
MAIN
 10
29.18617071146755
 20
14.92745224792095
 30
0.0
  0
VERTEX
  5
676
  8
MAIN
 10
29.1861708960682
 20
15.80881488450157
 30
0.0
 42
0.4142144050901384
  0
VERTEX
  5
677
  8
MAIN
 10
28.98480815274394
 20
16.01017734395226
 30
0.0
  0
VERTEX
  5
678
  8
MAIN
 10
28.79344580621127
 20
16.01017743729984
 30
0.0
 42
0.4142138533541169
  0
VERTEX
  5
679
  8
MAIN
 10
28.59208306532604
 20
15.80881479464023
 30
0.0
  0
VERTEX
  5
67A
  8
MAIN
 10
28.59208306532604
 20
15.62745224792094
 30
0.0
  0
VERTEX
  5
67B
  8
MAIN
 10
28.22921190563916
 20
15.62745224792094
 30
0.0
  0
VERTEX
  5
67C
  8
MAIN
 10
28.22921208257821
 20
15.80881488067076
 30
0.0
 42
0.4142144106622717
  0
VERTEX
  5
67D
  8
MAIN
 10
28.02784933925395
 20
16.01017734395225
 30
0.0
  0
VERTEX
  5
67E
  8
MAIN
 10
27.83648699272129
 20
16.01017743729983
 30
0.0
 42
0.4142138533540756
  0
VERTEX
  5
67F
  8
MAIN
 10
27.63512425183607
 20
15.80881479464022
 30
0.0
  0
VERTEX
  5
680
  8
MAIN
 10
27.63512425183607
 20
14.92745224792093
 30
0.0
  0
VERTEX
  5
681
  8
MAIN
 10
26.69831151385225
 20
14.9274522479209
 30
0.0
  0
VERTEX
  5
682
  8
MAIN
 10
26.69831169845292
 20
15.80881488450152
 30
0.0
 42
0.4142144050902622
  0
VERTEX
  5
683
  8
MAIN
 10
26.49694895512865
 20
16.01017734395221
 30
0.0
  0
VERTEX
  5
684
  8
MAIN
 10
26.30558660859599
 20
16.01017743729979
 30
0.0
 42
0.4142138533540646
  0
VERTEX
  5
685
  8
MAIN
 10
26.10422386771076
 20
15.80881479464018
 30
0.0
  0
VERTEX
  5
686
  8
MAIN
 10
26.10422386771076
 20
15.62745224792089
 30
0.0
  0
VERTEX
  5
687
  8
MAIN
 10
25.74135270802388
 20
15.62745224792089
 30
0.0
  0
VERTEX
  5
688
  8
MAIN
 10
25.74135288496293
 20
15.80881488067068
 30
0.0
 42
0.4142144106622219
  0
VERTEX
  5
689
  8
MAIN
 10
25.53999014163868
 20
16.01017734395218
 30
0.0
  0
VERTEX
  5
68A
  8
MAIN
 10
25.34862779510602
 20
16.01017743729979
 30
0.0
 42
0.4142138533541017
  0
VERTEX
  5
68B
  8
MAIN
 10
25.14726505422077
 20
15.80881479464018
 30
0.0
  0
VERTEX
  5
68C
  8
MAIN
 10
25.14726505422083
 20
14.92745224792087
 30
0.0
  0
VERTEX
  5
68D
  8
MAIN
 10
24.21045231623697
 20
14.92745224792084
 30
0.0
  0
VERTEX
  5
68E
  8
MAIN
 10
24.21045250083763
 20
15.80881488450147
 30
0.0
 42
0.414214405090188
  0
VERTEX
  5
68F
  8
MAIN
 10
24.00908975751338
 20
16.01017734395217
 30
0.0
  0
VERTEX
  5
690
  8
MAIN
 10
23.81772741098072
 20
16.01017743729973
 30
0.0
 42
0.4142138533540373
  0
VERTEX
  5
691
  8
MAIN
 10
23.61636467009549
 20
15.80881479464013
 30
0.0
  0
VERTEX
  5
692
  8
MAIN
 10
23.61636467009549
 20
15.62745224792083
 30
0.0
  0
VERTEX
  5
693
  8
MAIN
 10
23.2005253508483
 20
15.62745224792083
 30
0.0
  0
SEQEND
  5
694
  8
MAIN
  0
POLYLINE
  5
695
  8
MAIN
 66
     1
 10
0.0
 20
0.0
 30
0.0
  0
VERTEX
  5
696
  8
MAIN
 10
33.44261704194935
 20
15.60622809350954
 30
0.0
 42
0.4142135623731259
  0
VERTEX
  5
697
  8
MAIN
 10
33.64632368444783
 20
15.4100047416831
 30
0.0
  0
VERTEX
  5
698
  8
MAIN
 10
36.27843680820057
 20
15.45925553023599
 30
0.0
 42
0.4142135623730825
  0
VERTEX
  5
699
  8
MAIN
 10
36.47466016002701
 20
15.66296217273446
 30
0.0
  0
VERTEX
  5
69A
  8
MAIN
 10
36.46156440135098
 20
16.36283966280305
 30
0.0
 42
0.4142135623731806
  0
VERTEX
  5
69B
  8
MAIN
 10
36.25785775885253
 20
16.55906301462948
 30
0.0
  0
VERTEX
  5
69C
  8
MAIN
 10
33.6257446350998
 20
16.50981222607606
 30
0.0
 42
0.4142135623730667
  0
VERTEX
  5
69D
  8
MAIN
 10
33.42952128327334
 20
16.30610558357761
 30
0.0
  0
VERTEX
  5
69E
  8
MAIN
 10
33.44261704194935
 20
15.60622809350954
 30
0.0
  0
SEQEND
  5
69F
  8
MAIN
  0
POLYLINE
  5
6A0
  8
MAIN
 66
     1
 10
0.0
 20
0.0
 30
0.0
  0
VERTEX
  5
6A1
  8
MAIN
 10
15.15651875600623
 20
43.9900716275487
 30
0.0
  0
VERTEX
  5
6A2
  8
MAIN
 10
15.37587425937006
 20
44.00689907964346
 30
0.0
 42
0.3996375341442744
  0
VERTEX
  5
6A3
  8
MAIN
 10
15.56050613019602
 20
44.21162101856382
 30
0.0
  0
VERTEX
  5
6A4
  8
MAIN
 10
16.53813403784445
 20
44.28661793694597
 30
0.0
 42
0.9752971977394598
  0
VERTEX
  5
6A5
  8
MAIN
 10
16.93594791798778
 20
44.3271648750184
 30
0.0
  0
VERTEX
  5
6A6
  8
MAIN
 10
16.882406024959
 20
45.02511420390331
 30
0.0
 42
0.9752971977395274
  0
VERTEX
  5
6A7
  8
MAIN
 10
16.48306237644341
 20
45.00450867522758
 30
0.0
  0
VERTEX
  5
6A8
  8
MAIN
 10
15.50543446879502
 20
44.92951175684489
 30
0.0
 42
0.3996375341444014
  0
VERTEX
  5
6A9
  8
MAIN
 10
15.29173699889632
 20
45.10367659646202
 30
0.0
  0
VERTEX
  5
6AA
  8
MAIN
 10
14.53492792581703
 20
45.04561938692397
 30
0.0
 42
0.4142135623731043
  0
VERTEX
  5
6AB
  8
MAIN
 10
14.35081151557241
 20
44.83090760923434
 30
0.0
  0
VERTEX
  5
6AC
  8
MAIN
 10
14.40435340860115
 20
44.13295828035
 30
0.0
 42
0.4142135623731381
  0
VERTEX
  5
6AD
  8
MAIN
 10
14.61906518629077
 20
43.94884187010543
 30
0.0
  0
VERTEX
  5
6AE
  8
MAIN
 10
15.15651875600623
 20
43.9900716275487
 30
0.0
  0
SEQEND
  5
6AF
  8
MAIN
  0
POLYLINE
  5
6B0
  8
MAIN
 66
     1
 10
0.0
 20
0.0
 30
0.0
  0
VERTEX
  5
6B1
  8
MAIN
 10
19.71962076565417
 20
26.94999602138789
 30
0.0
  0
VERTEX
  5
6B2
  8
MAIN
 10
15.99999109698063
 20
26.94999602138789
 30
0.0
 42
-0.4142135623730952
  0
VERTEX
  5
6B3
  8
MAIN
 10
14.99999109698066
 20
27.9499960213879
 30
0.0
  0
VERTEX
  5
6B4
  8
MAIN
 10
14.99999985975612
 20
28.25740810193574
 30
0.0
  0
VERTEX
  5
6B5
  8
MAIN
 10
15.3500008675589
 20
28.25740810193177
 30
0.0
  0
VERTEX
  5
6B6
  8
MAIN
 10
15.35000531906856
 20
28.07607476859842
 30
0.0
 42
0.4142138571251316
  0
VERTEX
  5
6B7
  8
MAIN
 10
15.54133855906855
 20
27.88474162193172
 30
0.0
  0
VERTEX
  5
6B8
  8
MAIN
 10
15.8913386524019
 20
27.88474143526508
 30
0.0
 42
0.4142135713758155
  0
VERTEX
  5
6B9
  8
MAIN
 10
16.0826718924019
 20
28.07607495526509
 30
0.0
  0
VERTEX
  5
6BA
  8
MAIN
 10
16.08267198573524
 20
28.36307476859838
 30
0.0
 42
0.4142141428747037
  0
VERTEX
  5
6BB
  8
MAIN
 10
15.89133855906857
 20
28.5544082885984
 30
0.0
  0
VERTEX
  5
6BC
  8
MAIN
 10
15.71000531906858
 20
28.55440811168783
 30
0.0
  0
VERTEX
  5
6BD
  8
MAIN
 10
15.71000531906858
 20
28.93707476859841
 30
0.0
  0
VERTEX
  5
6BE
  8
MAIN
 10
15.89133865240189
 20
28.9370747685984
 30
0.0
 42
0.4142135713758186
  0
VERTEX
  5
6BF
  8
MAIN
 10
16.08267189240191
 20
29.12840828859841
 30
0.0
  0
VERTEX
  5
6C0
  8
MAIN
 10
16.08267198573523
 20
29.41540810193171
 30
0.0
 42
0.4142141428746992
  0
VERTEX
  5
6C1
  8
MAIN
 10
15.89133855906858
 20
29.60674162193172
 30
0.0
  0
VERTEX
  5
6C2
  8
MAIN
 10
15.54133865240189
 20
29.60674143526507
 30
0.0
 42
0.4142144286245332
  0
VERTEX
  5
6C3
  8
MAIN
 10
15.35000522573523
 20
29.4154082885984
 30
0.0
  0
VERTEX
  5
6C4
  8
MAIN
 10
15.35000531419143
 20
29.23407288741488
 30
0.0
  0
VERTEX
  5
6C5
  8
MAIN
 10
15.35000173023968
 20
29.2340749393282
 30
0.0
  0
VERTEX
  5
6C6
  8
MAIN
 10
15.00000531906855
 20
29.23407476859839
 30
0.0
  0
VERTEX
  5
6C7
  8
MAIN
 10
15.00000531906856
 20
30.74526729954704
 30
0.0
  0
VERTEX
  5
6C8
  8
MAIN
 10
15.35000352709319
 20
30.74526729954705
 30
0.0
  0
VERTEX
  5
6C9
  8
MAIN
 10
15.35000531906856
 20
30.56393396621369
 30
0.0
 42
0.4142138571251316
  0
VERTEX
  5
6CA
  8
MAIN
 10
15.54133855906855
 20
30.37260081954702
 30
0.0
  0
VERTEX
  5
6CB
  8
MAIN
 10
15.8913386524019
 20
30.37260063288036
 30
0.0
 42
0.4142135713758155
  0
VERTEX
  5
6CC
  8
MAIN
 10
16.0826718924019
 20
30.56393415288035
 30
0.0
  0
VERTEX
  5
6CD
  8
MAIN
 10
16.08267198573523
 20
30.85093396621368
 30
0.0
 42
0.4142141428746992
  0
VERTEX
  5
6CE
  8
MAIN
 10
15.89133855906857
 20
31.04226748621367
 30
0.0
  0
VERTEX
  5
6CF
  8
MAIN
 10
15.71000531906857
 20
31.04226730930314
 30
0.0
  0
VERTEX
  5
6D0
  8
MAIN
 10
15.71000531906858
 20
31.42493396621367
 30
0.0
  0
VERTEX
  5
6D1
  8
MAIN
 10
15.8913386524019
 20
31.42493396621371
 30
0.0
 42
0.4142135713758163
  0
VERTEX
  5
6D2
  8
MAIN
 10
16.0826718924019
 20
31.61626748621369
 30
0.0
  0
VERTEX
  5
6D3
  8
MAIN
 10
16.08267198573523
 20
31.90326729954701
 30
0.0
 42
0.4142141428746992
  0
VERTEX
  5
6D4
  8
MAIN
 10
15.89133855906858
 20
32.09460081954701
 30
0.0
  0
VERTEX
  5
6D5
  8
MAIN
 10
15.54133865240191
 20
32.09460063288036
 30
0.0
 42
0.4142144286245402
  0
VERTEX
  5
6D6
  8
MAIN
 10
15.35000522573524
 20
31.90326748621368
 30
0.0
  0
VERTEX
  5
6D7
  8
MAIN
 10
15.35000352221507
 20
31.72193413694438
 30
0.0
  0
VERTEX
  5
6D8
  8
MAIN
 10
15.00000531906858
 20
31.72193396621371
 30
0.0
  0
VERTEX
  5
6D9
  8
MAIN
 10
15.00000531906856
 20
33.23312649716233
 30
0.0
  0
VERTEX
  5
6DA
  8
MAIN
 10
15.35000352709319
 20
33.23312649716235
 30
0.0
  0
VERTEX
  5
6DB
  8
MAIN
 10
15.35000531906856
 20
33.05179316382901
 30
0.0
 42
0.4142138571251387
  0
VERTEX
  5
6DC
  8
MAIN
 10
15.54133855906855
 20
32.86046001716231
 30
0.0
  0
VERTEX
  5
6DD
  8
MAIN
 10
15.89133865240189
 20
32.86045983049566
 30
0.0
 42
0.4142135713758054
  0
VERTEX
  5
6DE
  8
MAIN
 10
16.0826718924019
 20
33.05179335049566
 30
0.0
  0
VERTEX
  5
6DF
  8
MAIN
 10
16.08267198573523
 20
33.33879316382897
 30
0.0
 42
0.4142141428747101
  0
VERTEX
  5
6E0
  8
MAIN
 10
15.89133855906858
 20
33.530126683829
 30
0.0
  0
VERTEX
  5
6E1
  8
MAIN
 10
15.71000531906857
 20
33.53012650691842
 30
0.0
  0
VERTEX
  5
6E2
  8
MAIN
 10
15.71000531906858
 20
33.91279316382899
 30
0.0
  0
VERTEX
  5
6E3
  8
MAIN
 10
15.8913386524019
 20
33.91279316382898
 30
0.0
 42
0.4142135713758341
  0
VERTEX
  5
6E4
  8
MAIN
 10
16.08267189240191
 20
34.10412668382899
 30
0.0
  0
VERTEX
  5
6E5
  8
MAIN
 10
16.08267198573524
 20
34.3911264971623
 30
0.0
 42
0.414214142874696
  0
VERTEX
  5
6E6
  8
MAIN
 10
15.89133855906858
 20
34.58246001716232
 30
0.0
  0
VERTEX
  5
6E7
  8
MAIN
 10
15.54133865240192
 20
34.58245983049564
 30
0.0
 42
0.4142144286245318
  0
VERTEX
  5
6E8
  8
MAIN
 10
15.35000522573524
 20
34.39112668382899
 30
0.0
  0
VERTEX
  5
6E9
  8
MAIN
 10
15.35000531419046
 20
34.20979333455878
 30
0.0
  0
VERTEX
  5
6EA
  8
MAIN
 10
15.3500017302397
 20
34.20979333455878
 30
0.0
  0
VERTEX
  5
6EB
  8
MAIN
 10
15.00000531906858
 20
34.20979316382898
 30
0.0
  0
VERTEX
  5
6EC
  8
MAIN
 10
15.00000531906857
 20
34.96538942930329
 30
0.0
  0
VERTEX
  5
6ED
  8
MAIN
 10
15.00000531906857
 20
35.72098569477761
 30
0.0
  0
VERTEX
  5
6EE
  8
MAIN
 10
15.3500035270932
 20
35.72098569477762
 30
0.0
  0
VERTEX
  5
6EF
  8
MAIN
 10
15.35000531906856
 20
35.53965236144428
 30
0.0
 42
0.4142138571251387
  0
VERTEX
  5
6F0
  8
MAIN
 10
15.54133855906855
 20
35.3483192147776
 30
0.0
  0
VERTEX
  5
6F1
  8
MAIN
 10
15.89133865240192
 20
35.34831902811094
 30
0.0
 42
0.414213571375823
  0
VERTEX
  5
6F2
  8
MAIN
 10
16.08267189240191
 20
35.53965254811094
 30
0.0
  0
VERTEX
  5
6F3
  8
MAIN
 10
16.08267198573523
 20
35.82665236144427
 30
0.0
 42
0.4142141428747101
  0
VERTEX
  5
6F4
  8
MAIN
 10
15.89133855906858
 20
36.01798588144428
 30
0.0
  0
VERTEX
  5
6F5
  8
MAIN
 10
15.71000531906857
 20
36.01798570453369
 30
0.0
  0
VERTEX
  5
6F6
  8
MAIN
 10
15.71000531906858
 20
36.40065236144426
 30
0.0
  0
VERTEX
  5
6F7
  8
MAIN
 10
15.89133865240189
 20
36.40065236144427
 30
0.0
 42
0.4142135713758195
  0
VERTEX
  5
6F8
  8
MAIN
 10
16.08267189240191
 20
36.59198588144426
 30
0.0
  0
VERTEX
  5
6F9
  8
MAIN
 10
16.08267198573525
 20
36.8789856947776
 30
0.0
 42
0.414214142874696
  0
VERTEX
  5
6FA
  8
MAIN
 10
15.8913385590686
 20
37.07031921477761
 30
0.0
  0
VERTEX
  5
6FB
  8
MAIN
 10
15.5413386524019
 20
37.07031902811093
 30
0.0
 42
0.4142144286245249
  0
VERTEX
  5
6FC
  8
MAIN
 10
15.35000522573524
 20
36.87898588144427
 30
0.0
  0
VERTEX
  5
6FD
  8
MAIN
 10
15.35000352221508
 20
36.69765253217494
 30
0.0
  0
VERTEX
  5
6FE
  8
MAIN
 10
15.00000531906858
 20
36.69765236144426
 30
0.0
  0
VERTEX
  5
6FF
  8
MAIN
 10
15.00000531906857
 20
38.20884489239288
 30
0.0
  0
VERTEX
  5
700
  8
MAIN
 10
15.3500035270932
 20
38.20884489239289
 30
0.0
  0
VERTEX
  5
701
  8
MAIN
 10
15.35000531906858
 20
38.02751155905957
 30
0.0
 42
0.4142138571251387
  0
VERTEX
  5
702
  8
MAIN
 10
15.54133855906855
 20
37.8361784123929
 30
0.0
  0
VERTEX
  5
703
  8
MAIN
 10
15.89133865240192
 20
37.8361782257262
 30
0.0
 42
0.4142135713758123
  0
VERTEX
  5
704
  8
MAIN
 10
16.08267189240191
 20
38.02751174572622
 30
0.0
  0
VERTEX
  5
705
  8
MAIN
 10
16.08267198573523
 20
38.31451155905955
 30
0.0
 42
0.4142141428747101
  0
VERTEX
  5
706
  8
MAIN
 10
15.89133855906858
 20
38.50584507905955
 30
0.0
  0
VERTEX
  5
707
  8
MAIN
 10
15.71000531906857
 20
38.50584490214898
 30
0.0
  0
VERTEX
  5
708
  8
MAIN
 10
15.71000531906858
 20
38.88851155905955
 30
0.0
  0
VERTEX
  5
709
  8
MAIN
 10
15.89133865240191
 20
38.88851155905955
 30
0.0
 42
0.4142135713758341
  0
VERTEX
  5
70A
  8
MAIN
 10
16.08267189240192
 20
39.07984507905955
 30
0.0
  0
VERTEX
  5
70B
  8
MAIN
 10
16.08267198573525
 20
39.36684489239288
 30
0.0
 42
0.414214142874696
  0
VERTEX
  5
70C
  8
MAIN
 10
15.89133855906858
 20
39.55817841239288
 30
0.0
  0
VERTEX
  5
70D
  8
MAIN
 10
15.54133865240192
 20
39.55817822572621
 30
0.0
 42
0.4142144286245249
  0
VERTEX
  5
70E
  8
MAIN
 10
15.35000522573525
 20
39.36684507905954
 30
0.0
  0
VERTEX
  5
70F
  8
MAIN
 10
15.35000352221507
 20
39.18551172979022
 30
0.0
  0
VERTEX
  5
710
  8
MAIN
 10
15.00000531906858
 20
39.18551155905953
 30
0.0
  0
VERTEX
  5
711
  8
MAIN
 10
15.00000531906858
 20
39.94110782453386
 30
0.0
  0
VERTEX
  5
712
  8
MAIN
 10
15.00000531906857
 20
40.69670409000817
 30
0.0
  0
VERTEX
  5
713
  8
MAIN
 10
15.3500035270932
 20
40.69670409000818
 30
0.0
  0
VERTEX
  5
714
  8
MAIN
 10
15.35000531906856
 20
40.51537075667485
 30
0.0
 42
0.4142138571251387
  0
VERTEX
  5
715
  8
MAIN
 10
15.54133855906855
 20
40.32403761000816
 30
0.0
  0
VERTEX
  5
716
  8
MAIN
 10
15.89133865240191
 20
40.32403742334149
 30
0.0
 42
0.4142135713758054
  0
VERTEX
  5
717
  8
MAIN
 10
16.08267189240191
 20
40.51537094334149
 30
0.0
  0
VERTEX
  5
718
  8
MAIN
 10
16.08267198573523
 20
40.80237075667483
 30
0.0
 42
0.4142141428747101
  0
VERTEX
  5
719
  8
MAIN
 10
15.89133855906858
 20
40.99370427667485
 30
0.0
  0
VERTEX
  5
71A
  8
MAIN
 10
15.71000531906858
 20
40.99370409976426
 30
0.0
  0
VERTEX
  5
71B
  8
MAIN
 10
15.71000531906858
 20
41.37637075667483
 30
0.0
  0
VERTEX
  5
71C
  8
MAIN
 10
15.8913386524019
 20
41.37637075667483
 30
0.0
 42
0.4142135713758163
  0
VERTEX
  5
71D
  8
MAIN
 10
16.08267189240192
 20
41.56770427667483
 30
0.0
  0
VERTEX
  5
71E
  8
MAIN
 10
16.08267198573525
 20
41.85470409000814
 30
0.0
 42
0.414214142874696
  0
VERTEX
  5
71F
  8
MAIN
 10
15.8913385590686
 20
42.04603761000814
 30
0.0
  0
VERTEX
  5
720
  8
MAIN
 10
15.5413386524019
 20
42.04603742334149
 30
0.0
 42
0.4142144286245249
  0
VERTEX
  5
721
  8
MAIN
 10
15.35000522573524
 20
41.85470427667484
 30
0.0
  0
VERTEX
  5
722
  8
MAIN
 10
15.35000531419046
 20
41.67337092740462
 30
0.0
  0
VERTEX
  5
723
  8
MAIN
 10
15.00000890301933
 20
41.67337075667481
 30
0.0
  0
VERTEX
  5
724
  8
MAIN
 10
15.00000890301932
 20
42.42903420589431
 30
0.0
  0
VERTEX
  5
725
  8
MAIN
 10
16.00000888716624
 20
42.42885614550772
 30
0.0
 42
-0.1989123673797485
  0
VERTEX
  5
726
  8
MAIN
 10
16.70706350446376
 20
42.1358370236306
 30
0.0
  0
VERTEX
  5
727
  8
MAIN
 10
16.71384585686823
 20
42.1290522564785
 30
0.0
 42
0.1989576509877566
  0
VERTEX
  5
728
  8
MAIN
 10
18.83553492163514
 20
41.25000086806544
 30
0.0
  0
VERTEX
  5
729
  8
MAIN
 10
29.16446507836486
 20
41.25000086806544
 30
0.0
 42
0.1989576509877572
  0
VERTEX
  5
72A
  8
MAIN
 10
31.28615414313178
 20
42.1290522564785
 30
0.0
  0
VERTEX
  5
72B
  8
MAIN
 10
31.29293649553622
 20
42.1358370236306
 30
0.0
 42
-0.1989123673797495
  0
VERTEX
  5
72C
  8
MAIN
 10
31.99999111283377
 20
42.42885614550771
 30
0.0
  0
VERTEX
  5
72D
  8
MAIN
 10
32.99999109698068
 20
42.42903420589431
 30
0.0
  0
VERTEX
  5
72E
  8
MAIN
 10
32.99999109698066
 20
41.67337075667481
 30
0.0
  0
VERTEX
  5
72F
  8
MAIN
 10
32.64999468580954
 20
41.67337092740462
 30
0.0
  0
VERTEX
  5
730
  8
MAIN
 10
32.64999477426476
 20
41.85470427667483
 30
0.0
 42
0.4142144286245236
  0
VERTEX
  5
731
  8
MAIN
 10
32.45866134759809
 20
42.0460374233415
 30
0.0
  0
VERTEX
  5
732
  8
MAIN
 10
32.10866144093141
 20
42.04603761000815
 30
0.0
 42
0.4142141428747033
  0
VERTEX
  5
733
  8
MAIN
 10
31.91732801426474
 20
41.85470409000814
 30
0.0
  0
VERTEX
  5
734
  8
MAIN
 10
31.91732810759809
 20
41.56770427667483
 30
0.0
 42
0.4142135713758152
  0
VERTEX
  5
735
  8
MAIN
 10
32.10866134759809
 20
41.37637075667483
 30
0.0
  0
VERTEX
  5
736
  8
MAIN
 10
32.28999468093142
 20
41.37637075667483
 30
0.0
  0
VERTEX
  5
737
  8
MAIN
 10
32.28999468093142
 20
40.99370409976426
 30
0.0
  0
VERTEX
  5
738
  8
MAIN
 10
32.10866144093143
 20
40.99370427667484
 30
0.0
 42
0.4142141428747109
  0
VERTEX
  5
739
  8
MAIN
 10
31.91732801426476
 20
40.80237075667482
 30
0.0
  0
VERTEX
  5
73A
  8
MAIN
 10
31.91732810759808
 20
40.51537094334149
 30
0.0
 42
0.4142135713758152
  0
VERTEX
  5
73B
  8
MAIN
 10
32.10866134759809
 20
40.32403742334149
 30
0.0
  0
VERTEX
  5
73C
  8
MAIN
 10
32.45866144093144
 20
40.32403761000817
 30
0.0
 42
0.4142138571251224
  0
VERTEX
  5
73D
  8
MAIN
 10
32.64999468093143
 20
40.51537075667484
 30
0.0
  0
VERTEX
  5
73E
  8
MAIN
 10
32.6499964729068
 20
40.69670409000818
 30
0.0
  0
VERTEX
  5
73F
  8
MAIN
 10
32.99999468093143
 20
40.69670409000817
 30
0.0
  0
VERTEX
  5
740
  8
MAIN
 10
32.99999468093142
 20
39.94110782453386
 30
0.0
  0
VERTEX
  5
741
  8
MAIN
 10
32.99999468093142
 20
39.18551155905953
 30
0.0
  0
VERTEX
  5
742
  8
MAIN
 10
32.64999647778492
 20
39.18551172979022
 30
0.0
  0
VERTEX
  5
743
  8
MAIN
 10
32.64999477426475
 20
39.36684507905955
 30
0.0
 42
0.4142144286245236
  0
VERTEX
  5
744
  8
MAIN
 10
32.45866134759809
 20
39.55817822572622
 30
0.0
  0
VERTEX
  5
745
  8
MAIN
 10
32.10866144093141
 20
39.55817841239288
 30
0.0
 42
0.4142141428747033
  0
VERTEX
  5
746
  8
MAIN
 10
31.91732801426475
 20
39.36684489239288
 30
0.0
  0
VERTEX
  5
747
  8
MAIN
 10
31.91732810759809
 20
39.07984507905956
 30
0.0
 42
0.4142135713758138
  0
VERTEX
  5
748
  8
MAIN
 10
32.1086613475981
 20
38.88851155905955
 30
0.0
  0
VERTEX
  5
749
  8
MAIN
 10
32.28999468093142
 20
38.88851155905955
 30
0.0
  0
VERTEX
  5
74A
  8
MAIN
 10
32.28999468093143
 20
38.50584490214898
 30
0.0
  0
VERTEX
  5
74B
  8
MAIN
 10
32.10866144093143
 20
38.50584507905956
 30
0.0
 42
0.4142141428747109
  0
VERTEX
  5
74C
  8
MAIN
 10
31.91732801426476
 20
38.31451155905954
 30
0.0
  0
VERTEX
  5
74D
  8
MAIN
 10
31.91732810759808
 20
38.02751174572621
 30
0.0
 42
0.4142135713758138
  0
VERTEX
  5
74E
  8
MAIN
 10
32.10866134759809
 20
37.83617822572621
 30
0.0
  0
VERTEX
  5
74F
  8
MAIN
 10
32.45866144093143
 20
37.83617841239289
 30
0.0
 42
0.4142138571251224
  0
VERTEX
  5
750
  8
MAIN
 10
32.64999468093141
 20
38.02751155905958
 30
0.0
  0
VERTEX
  5
751
  8
MAIN
 10
32.6499964729068
 20
38.20884489239289
 30
0.0
  0
VERTEX
  5
752
  8
MAIN
 10
32.99999468093143
 20
38.20884489239288
 30
0.0
  0
VERTEX
  5
753
  8
MAIN
 10
32.99999468093142
 20
36.69765236144426
 30
0.0
  0
VERTEX
  5
754
  8
MAIN
 10
32.64999647778492
 20
36.69765253217494
 30
0.0
  0
VERTEX
  5
755
  8
MAIN
 10
32.64999477426477
 20
36.87898588144427
 30
0.0
 42
0.4142144286245236
  0
VERTEX
  5
756
  8
MAIN
 10
32.45866134759809
 20
37.07031902811094
 30
0.0
  0
VERTEX
  5
757
  8
MAIN
 10
32.10866144093141
 20
37.07031921477761
 30
0.0
 42
0.4142141428747033
  0
VERTEX
  5
758
  8
MAIN
 10
31.91732801426475
 20
36.8789856947776
 30
0.0
  0
VERTEX
  5
759
  8
MAIN
 10
31.9173281075981
 20
36.59198588144427
 30
0.0
 42
0.4142135713758152
  0
VERTEX
  5
75A
  8
MAIN
 10
32.1086613475981
 20
36.40065236144429
 30
0.0
  0
VERTEX
  5
75B
  8
MAIN
 10
32.28999468093142
 20
36.40065236144426
 30
0.0
  0
VERTEX
  5
75C
  8
MAIN
 10
32.28999468093143
 20
36.01798570453369
 30
0.0
  0
VERTEX
  5
75D
  8
MAIN
 10
32.10866144093143
 20
36.01798588144428
 30
0.0
 42
0.4142141428747109
  0
VERTEX
  5
75E
  8
MAIN
 10
31.91732801426476
 20
35.82665236144427
 30
0.0
  0
VERTEX
  5
75F
  8
MAIN
 10
31.91732810759808
 20
35.53965254811094
 30
0.0
 42
0.4142135713758138
  0
VERTEX
  5
760
  8
MAIN
 10
32.1086613475981
 20
35.34831902811095
 30
0.0
  0
VERTEX
  5
761
  8
MAIN
 10
32.45866144093145
 20
35.3483192147776
 30
0.0
 42
0.4142138571251224
  0
VERTEX
  5
762
  8
MAIN
 10
32.64999468093143
 20
35.5396523614443
 30
0.0
  0
VERTEX
  5
763
  8
MAIN
 10
32.6499964729068
 20
35.72098569477762
 30
0.0
  0
VERTEX
  5
764
  8
MAIN
 10
32.99999468093143
 20
35.72098569477761
 30
0.0
  0
VERTEX
  5
765
  8
MAIN
 10
32.99999468093143
 20
34.96538942930329
 30
0.0
  0
VERTEX
  5
766
  8
MAIN
 10
32.99999468093142
 20
34.20979316382898
 30
0.0
  0
VERTEX
  5
767
  8
MAIN
 10
32.6499982697603
 20
34.20979333455878
 30
0.0
  0
VERTEX
  5
768
  8
MAIN
 10
32.64999468580954
 20
34.20979333455878
 30
0.0
  0
VERTEX
  5
769
  8
MAIN
 10
32.64999477426475
 20
34.39112668382898
 30
0.0
 42
0.4142144286245236
  0
VERTEX
  5
76A
  8
MAIN
 10
32.45866134759809
 20
34.58245983049565
 30
0.0
  0
VERTEX
  5
76B
  8
MAIN
 10
32.10866144093141
 20
34.58246001716231
 30
0.0
 42
0.4142141428747033
  0
VERTEX
  5
76C
  8
MAIN
 10
31.91732801426476
 20
34.3911264971623
 30
0.0
  0
VERTEX
  5
76D
  8
MAIN
 10
31.9173281075981
 20
34.10412668382899
 30
0.0
 42
0.4142135713758138
  0
VERTEX
  5
76E
  8
MAIN
 10
32.1086613475981
 20
33.91279316382898
 30
0.0
  0
VERTEX
  5
76F
  8
MAIN
 10
32.28999468093142
 20
33.91279316382899
 30
0.0
  0
VERTEX
  5
770
  8
MAIN
 10
32.28999468093143
 20
33.53012650691842
 30
0.0
  0
VERTEX
  5
771
  8
MAIN
 10
32.10866144093143
 20
33.53012668382899
 30
0.0
 42
0.4142141428747109
  0
VERTEX
  5
772
  8
MAIN
 10
31.91732801426475
 20
33.338793163829
 30
0.0
  0
VERTEX
  5
773
  8
MAIN
 10
31.91732810759811
 20
33.05179335049566
 30
0.0
 42
0.4142135713758152
  0
VERTEX
  5
774
  8
MAIN
 10
32.10866134759809
 20
32.86045983049564
 30
0.0
  0
VERTEX
  5
775
  8
MAIN
 10
32.45866144093145
 20
32.86046001716233
 30
0.0
 42
0.4142138571251224
  0
VERTEX
  5
776
  8
MAIN
 10
32.64999468093143
 20
33.05179316382899
 30
0.0
  0
VERTEX
  5
777
  8
MAIN
 10
32.64999647290681
 20
33.23312649716235
 30
0.0
  0
VERTEX
  5
778
  8
MAIN
 10
32.99999468093144
 20
33.23312649716233
 30
0.0
  0
VERTEX
  5
779
  8
MAIN
 10
32.99999468093142
 20
31.72193396621371
 30
0.0
  0
VERTEX
  5
77A
  8
MAIN
 10
32.64999647778493
 20
31.72193413694438
 30
0.0
  0
VERTEX
  5
77B
  8
MAIN
 10
32.64999477426475
 20
31.9032674862137
 30
0.0
 42
0.4142144286245344
  0
VERTEX
  5
77C
  8
MAIN
 10
32.4586613475981
 20
32.09460063288036
 30
0.0
  0
VERTEX
  5
77D
  8
MAIN
 10
32.10866144093143
 20
32.09460081954702
 30
0.0
 42
0.4142141428747033
  0
VERTEX
  5
77E
  8
MAIN
 10
31.91732801426476
 20
31.90326729954701
 30
0.0
  0
VERTEX
  5
77F
  8
MAIN
 10
31.9173281075981
 20
31.6162674862137
 30
0.0
 42
0.4142135713758152
  0
VERTEX
  5
780
  8
MAIN
 10
32.1086613475981
 20
31.42493396621369
 30
0.0
  0
VERTEX
  5
781
  8
MAIN
 10
32.28999468093142
 20
31.42493396621367
 30
0.0
  0
VERTEX
  5
782
  8
MAIN
 10
32.28999468093143
 20
31.04226730930314
 30
0.0
  0
VERTEX
  5
783
  8
MAIN
 10
32.10866144093143
 20
31.0422674862137
 30
0.0
 42
0.4142141428747033
  0
VERTEX
  5
784
  8
MAIN
 10
31.91732801426477
 20
30.85093396621367
 30
0.0
  0
VERTEX
  5
785
  8
MAIN
 10
31.91732810759811
 20
30.56393415288035
 30
0.0
 42
0.4142135713758107
  0
VERTEX
  5
786
  8
MAIN
 10
32.10866134759809
 20
30.37260063288038
 30
0.0
  0
VERTEX
  5
787
  8
MAIN
 10
32.45866144093145
 20
30.37260081954701
 30
0.0
 42
0.4142138571251224
  0
VERTEX
  5
788
  8
MAIN
 10
32.64999468093143
 20
30.5639339662137
 30
0.0
  0
VERTEX
  5
789
  8
MAIN
 10
32.64999647290681
 20
30.74526729954705
 30
0.0
  0
VERTEX
  5
78A
  8
MAIN
 10
32.99999468093144
 20
30.74526729954704
 30
0.0
  0
VERTEX
  5
78B
  8
MAIN
 10
32.99999468093144
 20
29.23407476859839
 30
0.0
  0
VERTEX
  5
78C
  8
MAIN
 10
32.64999826976032
 20
29.2340749393282
 30
0.0
  0
VERTEX
  5
78D
  8
MAIN
 10
32.64999468580857
 20
29.23407288741488
 30
0.0
  0
VERTEX
  5
78E
  8
MAIN
 10
32.64999477426477
 20
29.4154082885984
 30
0.0
 42
0.4142144286245268
  0
VERTEX
  5
78F
  8
MAIN
 10
32.4586613475981
 20
29.60674143526504
 30
0.0
  0
VERTEX
  5
790
  8
MAIN
 10
32.10866144093143
 20
29.60674162193173
 30
0.0
 42
0.4142141428747033
  0
VERTEX
  5
791
  8
MAIN
 10
31.91732801426478
 20
29.41540810193173
 30
0.0
  0
VERTEX
  5
792
  8
MAIN
 10
31.91732810759811
 20
29.1284082885984
 30
0.0
 42
0.4142135713758107
  0
VERTEX
  5
793
  8
MAIN
 10
32.10866134759809
 20
28.93707476859839
 30
0.0
  0
VERTEX
  5
794
  8
MAIN
 10
32.28999468093142
 20
28.93707476859841
 30
0.0
  0
VERTEX
  5
795
  8
MAIN
 10
32.28999468093142
 20
28.55440811168783
 30
0.0
  0
VERTEX
  5
796
  8
MAIN
 10
32.10866144093141
 20
28.55440828859839
 30
0.0
 42
0.4142141428746956
  0
VERTEX
  5
797
  8
MAIN
 10
31.91732801426477
 20
28.36307476859839
 30
0.0
  0
VERTEX
  5
798
  8
MAIN
 10
31.91732810759811
 20
28.07607495526507
 30
0.0
 42
0.4142135713758107
  0
VERTEX
  5
799
  8
MAIN
 10
32.1086613475981
 20
27.88474143526508
 30
0.0
  0
VERTEX
  5
79A
  8
MAIN
 10
32.45866144093144
 20
27.88474162193175
 30
0.0
 42
0.4142138571251441
  0
VERTEX
  5
79B
  8
MAIN
 10
32.64999468093145
 20
28.07607476859842
 30
0.0
  0
VERTEX
  5
79C
  8
MAIN
 10
32.6499991324411
 20
28.25740810193177
 30
0.0
  0
VERTEX
  5
79D
  8
MAIN
 10
33.00000014024388
 20
28.25740810193574
 30
0.0
  0
VERTEX
  5
79E
  8
MAIN
 10
33.00000890301935
 20
27.9499960213879
 30
0.0
 42
-0.4142135623730946
  0
VERTEX
  5
79F
  8
MAIN
 10
32.00000890301935
 20
26.94999602138789
 30
0.0
  0
VERTEX
  5
7A0
  8
MAIN
 10
19.71962076565417
 20
26.94999602138789
 30
0.0
  0
SEQEND
  5
7A1
  8
MAIN
  0
POLYLINE
  5
7A2
  8
MAIN
 66
     1
 10
0.0
 20
0.0
 30
0.0
  0
VERTEX
  5
7A3
  8
MAIN
 10
27.88884982147896
 20
4.648785519081667
 30
0.0
 42
0.1719819698379376
  0
VERTEX
  5
7A4
  8
MAIN
 10
26.62930016900718
 20
4.202341012414992
 30
-0.0000000000000071
 42
-0.1719819699448244
  0
VERTEX
  5
7A5
  8
MAIN
 10
25.99952534235606
 20
3.979118759081665
 30
0.0
  0
VERTEX
  5
7A6
  8
MAIN
 10
25.80819210235605
 20
3.979118572414997
 30
0.0
  0
VERTEX
  5
7A7
  8
MAIN
 10
25.81819210235606
 20
4.361785239081662
 30
0.0
  0
VERTEX
  5
7A8
  8
MAIN
 10
25.99952543568938
 20
4.361785239081668
 30
0.0
 42
0.4142135713758183
  0
VERTEX
  5
7A9
  8
MAIN
 10
26.19085867568941
 20
4.553118759081663
 30
0.0
  0
VERTEX
  5
7AA
  8
MAIN
 10
26.19085876902272
 20
4.840118572414982
 30
0.0
 42
0.4142141428747018
  0
VERTEX
  5
7AB
  8
MAIN
 10
25.99952534235606
 20
5.031452092415002
 30
0.0
  0
VERTEX
  5
7AC
  8
MAIN
 10
25.64952543568939
 20
5.031451905748324
 30
0.0
 42
0.4142144286245309
  0
VERTEX
  5
7AD
  8
MAIN
 10
25.45819200902272
 20
4.840118759081655
 30
0.0
  0
VERTEX
  5
7AE
  8
MAIN
 10
25.45819209747793
 20
4.658785409813216
 30
0.0
  0
VERTEX
  5
7AF
  8
MAIN
 10
25.10819210235606
 20
4.658785239081663
 30
0.0
  0
VERTEX
  5
7B0
  8
MAIN
 10
25.10819210235606
 20
6.16997777003029
 30
0.0
  0
VERTEX
  5
7B1
  8
MAIN
 10
25.45819210235606
 20
6.169977770030284
 30
0.0
  0
VERTEX
  5
7B2
  8
MAIN
 10
25.45819210235605
 20
5.988644436696958
 30
0.0
 42
0.4142138571251368
  0
VERTEX
  5
7B3
  8
MAIN
 10
25.64952534235606
 20
5.797311290030272
 30
0.0
  0
VERTEX
  5
7B4
  8
MAIN
 10
25.99952543568938
 20
5.79731110336361
 30
0.0
 42
0.4142135713758188
  0
VERTEX
  5
7B5
  8
MAIN
 10
26.19085867568941
 20
5.988644623363605
 30
0.0
  0
VERTEX
  5
7B6
  8
MAIN
 10
26.19085876902272
 20
6.275644436696925
 30
0.0
 42
0.4142141428747018
  0
VERTEX
  5
7B7
  8
MAIN
 10
25.99952534235606
 20
6.466977956696944
 30
0.0
  0
VERTEX
  5
7B8
  8
MAIN
 10
25.81819210235605
 20
6.466977779786379
 30
0.0
  0
VERTEX
  5
7B9
  8
MAIN
 10
25.81819210235606
 20
6.849644436696941
 30
0.0
  0
VERTEX
  5
7BA
  8
MAIN
 10
25.99952543568938
 20
6.849644436696947
 30
0.0
 42
0.4142135713758183
  0
VERTEX
  5
7BB
  8
MAIN
 10
26.19085867568941
 20
7.040977956696942
 30
0.0
  0
VERTEX
  5
7BC
  8
MAIN
 10
26.19085876902271
 20
7.327977770030262
 30
0.0
 42
0.4142141428747024
  0
VERTEX
  5
7BD
  8
MAIN
 10
25.99952534235606
 20
7.519311290030281
 30
0.0
  0
VERTEX
  5
7BE
  8
MAIN
 10
25.64952543568939
 20
7.519311103363603
 30
0.0
 42
0.4142144286245309
  0
VERTEX
  5
7BF
  8
MAIN
 10
25.45819200902272
 20
7.327977956696934
 30
0.0
  0
VERTEX
  5
7C0
  8
MAIN
 10
25.45819209747793
 20
7.146644607428495
 30
0.0
  0
VERTEX
  5
7C1
  8
MAIN
 10
25.10819210235606
 20
7.146644436696944
 30
0.0
  0
VERTEX
  5
7C2
  8
MAIN
 10
25.10819210235606
 20
8.657836967645567
 30
0.0
  0
VERTEX
  5
7C3
  8
MAIN
 10
25.45819210235606
 20
8.657836967645563
 30
0.0
  0
VERTEX
  5
7C4
  8
MAIN
 10
25.45819210235605
 20
8.476503634312238
 30
0.0
 42
0.4142138571251387
  0
VERTEX
  5
7C5
  8
MAIN
 10
25.64952534235606
 20
8.285170487645551
 30
0.0
  0
VERTEX
  5
7C6
  8
MAIN
 10
25.99952543568938
 20
8.28517030097889
 30
0.0
 42
0.4142135713758131
  0
VERTEX
  5
7C7
  8
MAIN
 10
26.19085867568941
 20
8.476503820978884
 30
0.0
  0
VERTEX
  5
7C8
  8
MAIN
 10
26.19085876902272
 20
8.763503634312205
 30
0.0
 42
0.4142141428747069
  0
VERTEX
  5
7C9
  8
MAIN
 10
25.99952534235606
 20
8.954837154312223
 30
0.0
  0
VERTEX
  5
7CA
  8
MAIN
 10
25.81819210235605
 20
8.954836977401657
 30
0.0
  0
VERTEX
  5
7CB
  8
MAIN
 10
25.81819210235606
 20
9.33750363431222
 30
0.0
  0
VERTEX
  5
7CC
  8
MAIN
 10
25.99952543568938
 20
9.337503634312228
 30
0.0
 42
0.4142135713758202
  0
VERTEX
  5
7CD
  8
MAIN
 10
26.19085867568941
 20
9.528837154312221
 30
0.0
  0
VERTEX
  5
7CE
  8
MAIN
 10
26.19085876902272
 20
9.815836967645541
 30
0.0
 42
0.4142141428747069
  0
VERTEX
  5
7CF
  8
MAIN
 10
25.99952534235606
 20
10.00717048764556
 30
0.0
  0
VERTEX
  5
7D0
  8
MAIN
 10
25.64952543568939
 20
10.00717030097888
 30
0.0
 42
0.4142144286245308
  0
VERTEX
  5
7D1
  8
MAIN
 10
25.45819200902272
 20
9.815837154312213
 30
0.0
  0
VERTEX
  5
7D2
  8
MAIN
 10
25.45819209747793
 20
9.634503805043774
 30
0.0
  0
VERTEX
  5
7D3
  8
MAIN
 10
25.10819210235606
 20
9.634503634312225
 30
0.0
  0
VERTEX
  5
7D4
  8
MAIN
 10
25.10819210235606
 20
10.62450363431223
 30
0.0
  0
VERTEX
  5
7D5
  8
MAIN
 10
34.10819210235811
 20
10.62450363431223
 30
0.0
  0
VERTEX
  5
7D6
  8
MAIN
 10
43.10819210236016
 20
10.62450363431223
 30
0.0
  0
VERTEX
  5
7D7
  8
MAIN
 10
43.10819210236016
 20
9.634503634312225
 30
0.0
  0
VERTEX
  5
7D8
  8
MAIN
 10
42.75819210723829
 20
9.634503805043774
 30
0.0
  0
VERTEX
  5
7D9
  8
MAIN
 10
42.7581921956935
 20
9.815837154312218
 30
0.0
 42
0.4142144286245289
  0
VERTEX
  5
7DA
  8
MAIN
 10
42.56685876902682
 20
10.00717030097888
 30
0.0
  0
VERTEX
  5
7DB
  8
MAIN
 10
42.21685886236017
 20
10.00717048764555
 30
0.0
 42
0.4142141428746994
  0
VERTEX
  5
7DC
  8
MAIN
 10
42.02552543569351
 20
9.815836967645545
 30
0.0
  0
VERTEX
  5
7DD
  8
MAIN
 10
42.02552552902684
 20
9.528837154312223
 30
0.0
 42
0.4142135713758244
  0
VERTEX
  5
7DE
  8
MAIN
 10
42.21685876902683
 20
9.33750363431222
 30
0.0
  0
VERTEX
  5
7DF
  8
MAIN
 10
42.39819210236017
 20
9.33750363431222
 30
0.0
  0
VERTEX
  5
7E0
  8
MAIN
 10
42.39819210236018
 20
8.954836977401657
 30
0.0
  0
VERTEX
  5
7E1
  8
MAIN
 10
42.21685886236017
 20
8.954837154312216
 30
0.0
 42
0.4142141428746994
  0
VERTEX
  5
7E2
  8
MAIN
 10
42.02552543569351
 20
8.763503634312208
 30
0.0
  0
VERTEX
  5
7E3
  8
MAIN
 10
42.02552552902684
 20
8.476503820978888
 30
0.0
 42
0.4142135713758107
  0
VERTEX
  5
7E4
  8
MAIN
 10
42.21685876902683
 20
8.285170300978898
 30
0.0
  0
VERTEX
  5
7E5
  8
MAIN
 10
42.56685886236019
 20
8.285170487645557
 30
0.0
 42
0.4142138571251263
  0
VERTEX
  5
7E6
  8
MAIN
 10
42.75819210236017
 20
8.47650363431223
 30
0.0
  0
VERTEX
  5
7E7
  8
MAIN
 10
42.75819210236017
 20
8.657836967645563
 30
0.0
  0
VERTEX
  5
7E8
  8
MAIN
 10
43.10819210236016
 20
8.657836967645567
 30
0.0
  0
VERTEX
  5
7E9
  8
MAIN
 10
43.10819210236016
 20
7.146644436696944
 30
0.0
  0
VERTEX
  5
7EA
  8
MAIN
 10
42.75819210723829
 20
7.146644607428495
 30
0.0
  0
VERTEX
  5
7EB
  8
MAIN
 10
42.7581921956935
 20
7.327977956696939
 30
0.0
 42
0.4142144286245289
  0
VERTEX
  5
7EC
  8
MAIN
 10
42.56685876902682
 20
7.519311103363599
 30
0.0
  0
VERTEX
  5
7ED
  8
MAIN
 10
42.21685886236017
 20
7.519311290030281
 30
0.0
 42
0.4142141428746951
  0
VERTEX
  5
7EE
  8
MAIN
 10
42.02552543569351
 20
7.327977770030266
 30
0.0
  0
VERTEX
  5
7EF
  8
MAIN
 10
42.02552552902684
 20
7.040977956696943
 30
0.0
 42
0.4142135713758236
  0
VERTEX
  5
7F0
  8
MAIN
 10
42.21685876902683
 20
6.849644436696941
 30
0.0
  0
VERTEX
  5
7F1
  8
MAIN
 10
42.39819210236017
 20
6.849644436696941
 30
0.0
  0
VERTEX
  5
7F2
  8
MAIN
 10
42.39819210236018
 20
6.466977779786378
 30
0.0
  0
VERTEX
  5
7F3
  8
MAIN
 10
42.21685886236017
 20
6.466977956696936
 30
0.0
 42
0.4142141428747013
  0
VERTEX
  5
7F4
  8
MAIN
 10
42.02552543569351
 20
6.275644436696929
 30
0.0
  0
VERTEX
  5
7F5
  8
MAIN
 10
42.02552552902684
 20
5.988644623363609
 30
0.0
 42
0.4142135713758088
  0
VERTEX
  5
7F6
  8
MAIN
 10
42.21685876902683
 20
5.797311103363619
 30
0.0
  0
VERTEX
  5
7F7
  8
MAIN
 10
42.56685886236019
 20
5.797311290030279
 30
0.0
 42
0.4142138571251281
  0
VERTEX
  5
7F8
  8
MAIN
 10
42.75819210236017
 20
5.988644436696951
 30
0.0
  0
VERTEX
  5
7F9
  8
MAIN
 10
42.75819210236017
 20
6.169977770030284
 30
0.0
  0
VERTEX
  5
7FA
  8
MAIN
 10
43.10819210236016
 20
6.16997777003029
 30
0.0
  0
VERTEX
  5
7FB
  8
MAIN
 10
43.10819210236016
 20
4.658785239081663
 30
0.0
  0
VERTEX
  5
7FC
  8
MAIN
 10
42.75819210723829
 20
4.658785409813216
 30
0.0
  0
VERTEX
  5
7FD
  8
MAIN
 10
42.7581921956935
 20
4.84011875908166
 30
0.0
 42
0.4142144286245289
  0
VERTEX
  5
7FE
  8
MAIN
 10
42.56685876902682
 20
5.03145190574832
 30
0.0
  0
VERTEX
  5
7FF
  8
MAIN
 10
42.21685886236017
 20
5.031452092414995
 30
0.0
 42
0.4142141428746994
  0
VERTEX
  5
800
  8
MAIN
 10
42.02552543569351
 20
4.840118572414987
 30
0.0
  0
VERTEX
  5
801
  8
MAIN
 10
42.02552552902684
 20
4.553118759081664
 30
0.0
 42
0.4142135713758236
  0
VERTEX
  5
802
  8
MAIN
 10
42.21685876902683
 20
4.361785239081662
 30
0.0
  0
VERTEX
  5
803
  8
MAIN
 10
42.39819210236017
 20
4.361785239081662
 30
0.0
  0
VERTEX
  5
804
  8
MAIN
 10
42.40819210236018
 20
3.979118572414997
 30
0.0
  0
VERTEX
  5
805
  8
MAIN
 10
42.21685886236017
 20
3.979118759081656
 30
0.0
 42
-0.1719819699448233
  0
VERTEX
  5
806
  8
MAIN
 10
41.58708403570902
 20
4.202341012414992
 30
-0.0000000000000071
 42
0.1719819698379382
  0
VERTEX
  5
807
  8
MAIN
 10
40.32753438323725
 20
4.648785519081663
 30
0.0
  0
VERTEX
  5
808
  8
MAIN
 10
27.88884982147896
 20
4.648785519081667
 30
0.0
  0
SEQEND
  5
809
  8
MAIN
  0
POINT
  5
80A
  8
HOLES
 10
18.7129867481632
 20
3.53610907788359
 30
0.0
  0
POINT
  5
80B
  8
HOLES
 10
21.4845668051091
 20
3.564348056120494
 30
0.0
  0
POINT
  5
80C
  8
HOLES
 10
20.10148269584749
 20
7.319457243960295
 30
0.0
  0
POINT
  5
80D
  8
HOLES
 10
17.18810331132786
 20
22.86917689892165
 30
0.0
  0
POINT
  5
80E
  8
HOLES
 10
17.20005238075938
 20
42.04414368284002
 30
0.0
  0
POINT
  5
80F
  8
HOLES
 10
17.01044265448864
 20
21.67108891853839
 30
0.0
  0
POINT
  5
810
  8
HOLES
 10
29.531987562429
 20
23.33515236709481
 30
0.0
  0
POINT
  5
811
  8
HOLES
 10
23.42444779607188
 20
17.30466291643295
 30
0.0
  0
POINT
  5
812
  8
HOLES
 10
24.39974199782726
 20
16.9063857274112
 30
0.0
  0
POINT
  5
813
  8
HOLES
 10
25.86628164710215
 20
11.56080547274236
 30
0.0
  0
POINT
  5
814
  8
HOLES
 10
25.77678973894943
 20
10.8614427831044
 30
0.0
  0
ENDSEC
  0
EOF
